<svg width="21" height="20" viewBox="0 0 21 20" fill="none" xmlns="http://www.w3.org/2000/svg">
<g clip-path="url(#clip0_690_4198)">
<path style="mix-blend-mode:multiply" d="M17.5711 17.0713C21.4764 13.166 21.4764 6.83436 17.5711 2.92912C13.6659 -0.976128 7.33422 -0.976127 3.42898 2.92912C-0.476265 6.83436 -0.476265 13.166 3.42898 17.0713C7.33422 20.9765 13.6659 20.9765 17.5711 17.0713Z" fill="url(#paint0_radial_690_4198)"/>
<path d="M19.9511 7.51627C19.9511 10.9604 17.2395 13.8628 13.5688 14.6815C12.8919 14.8325 13.9861 17.1507 14.4338 17.9627C11.958 17.9627 10.5499 14.8828 10.1141 14.8219C6.05524 14.2642 2.9502 11.2055 2.9502 7.51627C2.9502 3.43096 6.756 0.119263 11.4507 0.119263C16.1453 0.119263 19.9511 3.43096 19.9511 7.51627Z" fill="#6ADD00"/>
<path d="M10.8614 4.10522C12.6842 4.10522 13.9493 5.4617 13.9493 7.11357C13.9602 7.71494 13.786 8.30514 13.4502 8.80417C13.1145 9.3032 12.6334 9.68692 12.0722 9.90334C12.5292 10.4014 13.1624 10.5776 13.9267 10.5776C14.2786 10.5738 14.6297 10.5442 14.9772 10.4889V11.946C14.5845 12.0224 14.1851 12.0597 13.785 12.0573C12.3583 12.0573 11.0111 11.3764 10.362 10.0848C9.64009 9.99787 8.97627 9.64559 8.4996 9.09646C8.02293 8.54732 7.76748 7.84057 7.78289 7.11357C7.78289 5.4617 9.0506 4.10522 10.8614 4.10522ZM10.8614 8.58794C11.7119 8.58794 12.2563 7.88983 12.2563 7.11225C12.2563 6.33466 11.7119 5.63655 10.8614 5.63655C10.011 5.63655 9.46655 6.35718 9.46655 7.11357C9.46655 7.86996 10.0203 8.58926 10.8614 8.58926V8.58794Z" fill="#5DC200"/>
<path d="M10.8615 3.74884C12.6843 3.74884 13.9493 5.10399 13.9493 6.75454C13.9605 7.35613 13.7865 7.94662 13.4507 8.44591C13.1149 8.94521 12.6337 9.32914 12.0723 9.54563C12.5293 10.0424 13.1625 10.2186 13.9268 10.2186C14.2786 10.2152 14.6297 10.186 14.9773 10.1311V11.5883C14.5847 11.6659 14.1852 11.7036 13.7851 11.7009C12.3584 11.7009 11.0112 11.02 10.3621 9.72844C9.63969 9.64145 8.97549 9.28879 8.49876 8.73909C8.02202 8.18939 7.76687 7.48198 7.78294 6.75454C7.78294 5.10399 9.05066 3.74884 10.8615 3.74884ZM10.8615 8.23023C11.7119 8.23023 12.2564 7.53345 12.2564 6.75586C12.2564 5.97827 11.7119 5.28017 10.8615 5.28017C10.0111 5.28017 9.46661 5.99417 9.46661 6.75454C9.46661 7.5149 10.0203 8.23023 10.8615 8.23023Z" fill="white"/>
<path d="M3.66699 5.83919C3.66699 5.83919 4.9824 2.13009 9.34986 1.00279C13.7173 -0.124516 16.8502 2.50497 16.8502 2.50497C16.8502 2.50497 9.13924 -1.90886 3.66699 5.83919Z" fill="#86ED00"/>
</g>
<defs>
<radialGradient id="paint0_radial_690_4198" cx="0" cy="0" r="1" gradientUnits="userSpaceOnUse" gradientTransform="translate(10.5001 10.0005) scale(10)">
<stop stop-color="#B5FF54"/>
<stop offset="1" stop-color="white"/>
</radialGradient>
<clipPath id="clip0_690_4198">
<rect width="20" height="20" fill="white" transform="translate(0.5)"/>
</clipPath>
</defs>
</svg>
