<svg width="49" height="48" viewBox="0 0 49 48" fill="none" xmlns="http://www.w3.org/2000/svg">
<path d="M38.019 20.8438C37.9865 19.8648 37.7006 18.911 37.189 18.0757C36.6775 17.2403 35.9579 16.5521 35.1007 16.0782C34.2435 15.6043 33.2779 15.361 32.2985 15.3721C31.319 15.3832 30.3592 15.6483 29.5129 16.1415C28.4312 14.274 26.6627 12.903 24.5846 12.321V37.214H22.8069H36.7213C38.7961 37.2178 40.796 36.4386 42.3213 35.032C43.8466 33.6254 44.7849 31.695 44.9488 29.6267C45.1127 27.5583 44.4901 25.5043 43.2054 23.875C41.9207 22.2457 40.0685 21.1612 38.019 20.8382V20.8438Z" fill="#E3E1DF"/>
<path d="M24.5846 12.3154C23.8684 12.1142 23.1264 12.0202 22.3827 12.0363C23.1266 12.0357 23.8672 12.1352 24.5846 12.3322V12.3154Z" fill="#EEEEEE"/>
<path d="M24.5902 21.9237H22.9632C22.5843 21.9248 22.2078 21.9841 21.8469 22.0995C21.6242 22.171 21.4092 22.2645 21.2051 22.3786C20.6155 22.6957 20.1227 23.1663 19.7788 23.7406C19.4349 24.3149 19.2528 24.9715 19.2516 25.6409V29.4586C19.2512 29.9462 19.347 30.4292 19.5333 30.8798C19.7197 31.3305 19.993 31.74 20.3377 32.0849C20.6824 32.4299 21.0917 32.7035 21.5422 32.8902C21.9927 33.0769 22.4756 33.173 22.9632 33.173H24.5846L24.5902 21.9237Z" fill="#FFD96A"/>
<path d="M30.046 42.4828V41.6986C30.2162 41.6986 30.3753 41.6987 30.5287 41.6763L30.6041 42.4549C30.4187 42.4745 30.2324 42.4838 30.046 42.4828ZM29.4878 42.4549C29.3092 42.4549 29.125 42.4158 28.9297 42.3851L29.0608 41.6122C29.2255 41.6401 29.3901 41.6624 29.5464 41.6763L29.4878 42.4549ZM31.1622 42.374L31.006 41.6066C31.1622 41.5731 31.3185 41.5312 31.4692 41.4838L31.7092 42.2317C31.5222 42.2959 31.3381 42.3349 31.1539 42.374H31.1622ZM28.4022 42.2735C28.2292 42.2317 28.0534 42.1814 27.8748 42.1256L28.1092 41.3777C28.2683 41.4279 28.4301 41.4726 28.5864 41.5117L28.4022 42.2735ZM32.2394 42.028L31.9129 41.3135L32.005 41.2717C32.119 41.2173 32.2298 41.1568 32.3371 41.0903L32.739 41.7656C32.6134 41.841 32.4794 41.9135 32.3455 41.9777L32.2394 42.028ZM27.3585 41.947C27.1939 41.8856 27.0264 41.8159 26.8562 41.7433L27.1715 41.0261C27.3278 41.0931 27.4813 41.1573 27.6348 41.2131L27.3585 41.947ZM26.3678 41.5145C26.2088 41.4363 26.0497 41.3554 25.8878 41.2661L26.2646 40.5796C26.4153 40.6605 26.5632 40.7387 26.7139 40.8112L26.3678 41.5145ZM33.2078 41.4475L32.7334 40.8224C32.861 40.7261 32.9831 40.6227 33.099 40.5126L33.6376 41.0707C33.4996 41.2088 33.3532 41.3384 33.1994 41.4586L33.2078 41.4475ZM25.4218 41.001C25.2711 40.9089 25.1176 40.8168 24.9641 40.7219L25.3911 40.0633C25.5362 40.1582 25.6701 40.2475 25.8236 40.3424L25.4218 41.001ZM34.0255 40.6744L33.4311 40.1638C33.5371 40.041 33.6376 39.9126 33.7325 39.7814L34.3688 40.2363C34.2543 40.387 34.1371 40.5349 34.0171 40.6744H34.0255ZM24.5204 40.4205C24.3753 40.3201 24.2413 40.2168 24.085 40.108L24.5511 39.4773C24.6906 39.5805 24.8301 39.6782 24.9669 39.7758L24.5204 40.4205ZM23.6608 39.787L23.245 39.4522L23.7446 38.8466C23.8785 38.9582 24.0236 39.0642 24.1436 39.1675L23.6608 39.787ZM34.6729 39.7703L34.0004 39.3684C34.0813 39.2317 34.1622 39.0893 34.2348 38.9358L34.9381 39.2847C34.846 39.4521 34.7567 39.6168 34.6646 39.7842L34.6729 39.7703ZM22.8404 39.1089L22.4413 38.7545L22.9687 38.174C23.0971 38.2912 23.2255 38.4056 23.3539 38.5145L22.8404 39.1089ZM35.1641 38.788L34.4413 38.4838C34.5055 38.3331 34.5641 38.1796 34.6199 38.0177L35.3594 38.2772C35.2897 38.4531 35.2255 38.6233 35.1697 38.788H35.1641ZM22.0534 38.3889C21.925 38.2689 21.7994 38.1461 21.6711 38.0205L22.2292 37.4624C22.352 37.5852 22.4748 37.7052 22.6004 37.8224L22.0534 38.3889ZM35.5269 37.7582L34.7734 37.5377C34.8181 37.3786 34.8627 37.2168 34.9018 37.0521L35.6636 37.2335C35.6134 37.4149 35.566 37.588 35.5185 37.761L35.5269 37.7582ZM21.2943 37.641C21.1715 37.5154 21.0515 37.387 20.9287 37.2586L21.4953 36.7145C21.6125 36.84 21.7297 36.9656 21.8497 37.0884L21.2943 37.641ZM20.5715 36.8652L20.2199 36.4689L20.8143 35.9554C20.926 36.0866 21.0404 36.2149 21.1548 36.3433L20.5715 36.8652ZM35.7725 36.7061L35.0022 36.5582C35.0329 36.3935 35.0636 36.2261 35.0888 36.0587L35.8646 36.1758C35.8339 36.3572 35.8032 36.5359 35.7697 36.7145L35.7725 36.7061ZM19.8655 36.0642L19.5306 35.6568L20.1418 35.1628L20.4683 35.5619L19.8655 36.0642ZM35.9232 35.6428L35.1446 35.5535C35.1641 35.3861 35.1808 35.2187 35.1948 35.0456L35.9762 35.1098C35.9706 35.294 35.9511 35.4698 35.9315 35.6456L35.9232 35.6428ZM19.2013 35.241C19.0953 35.1042 18.9864 34.9619 18.8804 34.8224L19.5055 34.3507C19.6087 34.4875 19.7148 34.6298 19.8208 34.7582L19.2013 35.241ZM36.0097 34.5768L35.2283 34.5377C35.2283 34.3703 35.2339 34.2 35.245 34.027L36.0292 34.0438C36.0348 34.2252 36.0292 34.4038 36.0069 34.5796L36.0097 34.5768ZM18.5622 34.3982C18.459 34.2558 18.3557 34.1191 18.2553 33.9684L18.8943 33.5163L19.1957 33.9349L18.5622 34.3982ZM17.9511 33.5359L17.6553 33.1005L18.3083 32.6652L18.5874 33.0921L17.9511 33.5359ZM35.2534 33.5135C35.2534 33.3461 35.2534 33.1731 35.2534 33.0028L36.0376 32.9777C36.0376 33.1563 36.0376 33.3349 36.0376 33.5107L35.2534 33.5135ZM17.3678 32.6568L17.0887 32.2131L17.7529 31.7945C17.845 31.9424 17.9399 32.0735 18.032 32.2326L17.3678 32.6568ZM35.2283 32.4893C35.2283 32.3191 35.2087 32.1489 35.1948 31.9759L35.9762 31.9145C35.9901 32.0931 36.0041 32.2717 36.0125 32.4447L35.2283 32.4893ZM16.8097 31.7638C16.7176 31.6131 16.6283 31.4624 16.5306 31.3117L17.206 30.9126C17.2925 31.0605 17.3818 31.2084 17.485 31.3563L16.8097 31.7638ZM35.1446 31.4651C35.1278 31.2949 35.1083 31.1247 35.0888 30.9517L35.8674 30.8596C35.8869 31.0354 35.9064 31.2112 35.9232 31.387L35.1446 31.4651ZM16.2739 30.854C16.1874 30.7005 16.1008 30.5498 16.0171 30.3935L16.7008 30.014L16.9548 30.4633L16.2739 30.854ZM35.0246 30.441C34.9994 30.2735 34.9743 30.1033 34.9464 29.9331L35.7222 29.8075C35.7501 29.9833 35.7753 30.1591 35.8004 30.3321L35.0246 30.441ZM15.7687 29.9303C15.685 29.7768 15.6041 29.6205 15.5204 29.4642L16.2153 29.1014L16.458 29.5591L15.7687 29.9303ZM34.8683 29.4252C34.8376 29.2549 34.8069 29.0875 34.7734 28.9173L35.5408 28.7666C35.5771 28.9396 35.6078 29.1126 35.6385 29.2856L34.8683 29.4252ZM15.2804 28.9954C15.1994 28.8391 15.1213 28.6828 15.046 28.5238L15.7492 28.1777C15.8246 28.334 15.9027 28.4875 15.9781 28.641L15.2804 28.9954ZM34.6701 28.4121C34.6339 28.2447 34.5948 28.0744 34.5557 27.907L35.3204 27.7312C35.3594 27.9042 35.3985 28.0745 35.4348 28.2475L34.6701 28.4121ZM14.7976 28.0633L14.5743 27.5861L15.2887 27.2596C15.3585 27.4159 15.4339 27.5721 15.5064 27.7284L14.7976 28.0633ZM34.419 27.4214C34.3799 27.2568 34.3353 27.0894 34.2906 26.9219L35.0497 26.721C35.0943 26.8912 35.139 27.0614 35.1808 27.2317L34.419 27.4214ZM14.3567 27.1061L14.1474 26.6233L14.8674 26.3135C14.9343 26.4726 15.0041 26.6289 15.0739 26.788L14.3567 27.1061ZM34.1706 26.4224C34.1232 26.2577 34.0757 26.0931 34.0255 25.9256L34.779 25.7024C34.8292 25.8726 34.8767 26.0428 34.9241 26.2103L34.1706 26.4224ZM13.9604 26.1098C13.8934 25.948 13.8264 25.7833 13.7622 25.6214L14.4906 25.3424C14.5548 25.5014 14.619 25.6633 14.686 25.8224L13.9604 26.1098ZM33.8804 25.4065C33.8301 25.2419 33.7771 25.0772 33.7241 24.9126L34.4692 24.6698C34.525 24.8372 34.5781 25.0047 34.6311 25.1721L33.8804 25.4065ZM13.5697 25.1275L13.3855 24.6335L14.1222 24.3545C14.1808 24.5163 14.2422 24.6754 14.3036 24.8372L13.5697 25.1275ZM33.5511 24.4354C33.4953 24.2735 33.4367 24.1089 33.3781 23.947L34.1176 23.6679L34.2934 24.1647L33.5511 24.4354ZM13.1985 24.1563C13.1399 23.9889 13.0813 23.8214 13.0255 23.6568L13.7678 23.4056C13.8236 23.5675 13.8794 23.7322 13.9381 23.894L13.1985 24.1563ZM33.2022 23.467C33.1408 23.3052 33.0794 23.1433 33.0153 22.9842L33.7464 22.7052C33.8106 22.8698 33.8748 23.0344 33.9362 23.1991L33.2022 23.467ZM12.8608 23.1545L12.7018 22.6493L13.4525 22.4205C13.5027 22.5852 13.5529 22.7498 13.606 22.9145L12.8608 23.1545ZM32.8255 22.5014C32.7613 22.3424 32.6943 22.1833 32.6274 22.0242L33.3501 21.72C33.4199 21.8819 33.4869 22.0466 33.5511 22.2084L32.8255 22.5014ZM12.565 22.1387C12.5176 21.9684 12.4674 21.7982 12.4227 21.6307L13.179 21.4214C13.2236 21.5889 13.2711 21.7535 13.3185 21.921L12.565 22.1387ZM32.4376 21.5414C32.3706 21.3852 32.3008 21.2261 32.2283 21.0698L32.9427 20.7461C33.0153 20.908 33.0878 21.067 33.1576 21.2289L32.4376 21.5414ZM12.286 21.1172C12.2413 20.947 12.1994 20.7768 12.1576 20.6066L12.9222 20.4224C12.9613 20.587 13.0032 20.7545 13.045 20.9247L12.286 21.1172ZM32.0134 20.5982L31.7929 20.1293L32.499 19.7889L32.725 20.2661L32.0134 20.5982ZM12.0376 20.0903C12.0013 19.9173 11.9622 19.7442 11.9287 19.574L12.6962 19.4149C12.7297 19.5824 12.766 19.7498 12.805 19.92L12.0376 20.0903ZM31.7567 20.054L31.5278 19.5907L32.2283 19.2391C32.3064 19.3954 32.3846 19.5544 32.4599 19.7135L31.7567 20.054ZM31.2934 19.1275C31.2125 18.974 31.1343 18.8205 31.0534 18.6698L31.7455 18.3014L31.9883 18.7703L31.2934 19.1275ZM11.8255 19.0549C11.792 18.8791 11.7613 18.7061 11.7306 18.5331L12.5036 18.4019C12.5315 18.5693 12.5622 18.7368 12.5957 18.907L11.8255 19.0549ZM30.8022 18.2177C30.7185 18.0642 30.6348 17.9135 30.5483 17.7656L31.232 17.3777L31.4887 17.841L30.8022 18.2177ZM11.6329 18.0168L11.5576 17.4921L12.3362 17.3889C12.3585 17.5591 12.3836 17.7293 12.4087 17.8996L11.6329 18.0168ZM30.2832 17.3219C30.1967 17.1712 30.1074 17.0233 30.0208 16.8754L30.6906 16.4707C30.7827 16.6214 30.872 16.7749 30.9697 16.9256L30.2832 17.3219ZM11.4934 16.9647C11.4739 16.7889 11.4571 16.6131 11.4404 16.4372L12.2218 16.3675C12.2218 16.5377 12.2553 16.708 12.2748 16.8782L11.4934 16.9647ZM29.7501 16.4344L29.4711 15.9963L30.1325 15.5749L30.4115 16.0214L29.7501 16.4344ZM11.3985 15.907C11.3985 15.7284 11.3762 15.5526 11.3678 15.3768L12.152 15.3433C12.152 15.5108 12.1687 15.681 12.1799 15.854L11.3985 15.907ZM29.192 15.5638C29.0971 15.4186 29.0022 15.2847 28.9129 15.134L29.5632 14.6931L29.8562 15.1312L29.192 15.5638ZM11.3511 14.8466C11.3511 14.7014 11.3511 14.5675 11.3511 14.4196V14.3135H12.1353V14.4168C12.1353 14.5507 12.1353 14.6958 12.1353 14.827L11.3511 14.8466ZM28.6115 14.707C28.5139 14.5647 28.4134 14.428 28.3129 14.2856L28.9464 13.8252C29.0497 13.9675 29.1529 14.1042 29.2534 14.2577L28.6115 14.707ZM28.006 13.8698C27.9027 13.7303 27.7994 13.5907 27.6934 13.4568L28.3157 12.9796C28.4218 13.1163 28.5278 13.2586 28.6339 13.401L28.006 13.8698ZM12.1408 13.8056L11.3567 13.7777C11.3567 13.5991 11.3567 13.4205 11.3818 13.2447L12.166 13.2949C12.1548 13.4661 12.1464 13.6335 12.1408 13.7973V13.8056ZM27.3753 13.0521C27.2664 12.9154 27.1604 12.7731 27.0515 12.6503L27.6543 12.1507L27.9892 12.5638L27.3753 13.0521ZM12.205 12.7731L11.4236 12.6977C11.4404 12.5163 11.4627 12.3405 11.485 12.1647L12.2608 12.268C12.2413 12.4354 12.2218 12.6056 12.205 12.7786V12.7731ZM26.7167 12.2401C26.605 12.1089 26.4906 11.9777 26.379 11.8521L26.965 11.3331C27.0822 11.4642 27.1967 11.5954 27.3139 11.7321L26.7167 12.2401ZM12.3334 11.7628L11.5604 11.6345C11.5911 11.4531 11.6246 11.2772 11.6608 11.1042L12.4283 11.2661C12.3976 11.4363 12.3669 11.5982 12.3362 11.7684L12.3334 11.7628ZM26.0329 11.467L25.6813 11.0958L26.2394 10.5573L26.5994 10.9424L26.0329 11.467ZM12.5455 10.7749L11.7864 10.5768C11.8311 10.401 11.8813 10.2252 11.9343 10.0577L12.6822 10.2921C12.6376 10.454 12.5901 10.6158 12.5483 10.7805L12.5455 10.7749ZM25.3213 10.7219C25.2013 10.5991 25.0785 10.4791 24.9557 10.3591L25.5139 9.80099L25.8906 10.1749L25.3213 10.7219ZM24.5846 10.0047C24.4562 9.8875 24.3306 9.77308 24.2022 9.66145L24.7241 9.07259L25.1176 9.4326L24.5846 10.0047ZM12.8441 9.8233L12.1101 9.54423C12.1743 9.37121 12.2441 9.20375 12.3194 9.0391L13.0394 9.36562C12.9725 9.51353 12.9083 9.66702 12.8441 9.8233ZM23.8115 9.32934C23.6804 9.22051 23.5492 9.11166 23.4153 9.00561L23.9064 8.39447C24.0432 8.5033 24.1855 8.61492 24.3167 8.73213L23.8115 9.32934ZM13.2515 8.91912L12.565 8.54793C12.6515 8.38607 12.7464 8.22423 12.8441 8.07353L13.5027 8.49493C13.419 8.63167 13.3353 8.774 13.2571 8.91912H13.2515ZM23.019 8.69026L22.6115 8.38888L23.0664 7.7498C23.2087 7.85026 23.3455 7.95631 23.4962 8.06515L23.019 8.69026ZM22.1818 8.09864C22.0385 8.00375 21.8962 7.91073 21.7548 7.81957L22.165 7.15259C22.3157 7.24747 22.4664 7.34235 22.6171 7.43165L22.1818 8.09864ZM13.7846 8.09864L13.165 7.62144C13.2794 7.47074 13.4022 7.34236 13.525 7.19445L14.0999 7.73028C13.9939 7.84191 13.8878 7.97026 13.7874 8.09584L13.7846 8.09864ZM21.3194 7.56843C21.1715 7.48192 21.0208 7.40096 20.8729 7.32561L21.2329 6.62793C21.3892 6.70886 21.5483 6.79539 21.7074 6.88469L21.3194 7.56843ZM14.4487 7.39537L13.9353 6.80375C14.0771 6.6788 14.2262 6.56232 14.3818 6.45491L14.8255 7.10237C14.6945 7.19181 14.5687 7.28873 14.4487 7.39262V7.39537ZM20.4208 7.1163C20.2646 7.04375 20.1111 6.97678 19.9576 6.91538L20.2506 6.18981C20.4153 6.25399 20.5799 6.32655 20.7474 6.4019L20.4208 7.1163ZM15.2329 6.86517L14.8646 6.17308L15.0515 6.07817C15.1604 6.02515 15.2692 5.9777 15.3781 5.93305L15.6571 6.66421C15.5622 6.70049 15.4729 6.73958 15.3781 6.78423L15.2329 6.86517ZM19.4887 6.74236C19.3269 6.68655 19.1678 6.6391 19.0115 6.59445L19.2181 5.83818C19.3911 5.88562 19.5641 5.93863 19.7399 6.00003L19.4887 6.74236ZM16.1204 6.51354L15.9139 5.73772C16.0999 5.68934 16.286 5.65026 16.472 5.62049L16.592 6.39632C16.4331 6.42232 16.2756 6.45678 16.1204 6.49957V6.51354ZM18.5287 6.48005C18.3669 6.44656 18.2022 6.42144 18.0432 6.4019L18.1408 5.62329C18.3194 5.64561 18.5008 5.67633 18.699 5.71261L18.5287 6.48005ZM17.0692 6.36283L17.0274 5.58142C17.2115 5.58142 17.3985 5.58142 17.5855 5.58142L17.552 6.36562C17.3929 6.34051 17.2311 6.34049 17.0692 6.34886V6.36283Z" fill="#33AFBD"/>
<path d="M24.5846 12.5079C22.6662 11.977 20.6205 12.1581 18.8252 13.0177C17.0298 13.8774 15.6062 15.3577 14.8172 17.1852C13.7265 16.448 12.4135 16.1131 11.1031 16.2377C9.79263 16.3624 8.5663 16.9388 7.63417 17.8683C6.70204 18.7978 6.12213 20.0225 5.99379 21.3326C5.86544 22.6427 6.19664 23.9566 6.93066 25.0493C5.76603 25.9005 4.90047 27.0983 4.45781 28.4712C4.01514 29.8442 4.01806 31.3219 4.46614 32.6931C4.91422 34.0643 5.7845 35.2586 6.95247 36.1052C8.12045 36.9518 9.52627 37.4073 10.9688 37.4065H22.8069H24.5846V12.5079Z" fill="#EEEEEE"/>
<path d="M13.5642 21.1228C13.5642 21.491 13.455 21.8509 13.2505 22.157C13.0459 22.4631 12.7552 22.7016 12.4151 22.8425C12.075 22.9834 11.7007 23.0203 11.3396 22.9485C10.9786 22.8766 10.6469 22.6994 10.3866 22.439C10.1262 22.1787 9.94896 21.847 9.87714 21.486C9.80531 21.1249 9.84218 20.7506 9.98306 20.4105C10.1239 20.0704 10.3625 19.7797 10.6686 19.5751C10.9747 19.3706 11.3346 19.2614 11.7028 19.2614C12.1964 19.2614 12.6699 19.4575 13.019 19.8066C13.3681 20.1557 13.5642 20.6291 13.5642 21.1228Z" fill="white"/>
<path d="M19.6563 18.7507C19.6563 19.1188 19.5471 19.4787 19.3426 19.7848C19.138 20.0909 18.8473 20.3295 18.5072 20.4704C18.1671 20.6113 17.7928 20.6482 17.4317 20.5763C17.0707 20.5045 16.739 20.3272 16.4787 20.0669C16.2183 19.8066 16.0411 19.4749 15.9692 19.1138C15.8974 18.7528 15.9343 18.3785 16.0752 18.0384C16.216 17.6982 16.4546 17.4075 16.7607 17.203C17.0668 16.9985 17.4267 16.8893 17.7949 16.8893C18.0394 16.8889 18.2816 16.9368 18.5076 17.0302C18.7336 17.1237 18.939 17.2607 19.1119 17.4337C19.2848 17.6066 19.4219 17.8119 19.5153 18.0379C19.6087 18.2639 19.6566 18.5061 19.6563 18.7507Z" fill="white"/>
<path d="M21.833 20.8716C21.8558 20.1574 22.1555 19.48 22.6688 18.9828C23.1821 18.4857 23.8686 18.2076 24.5832 18.2076C25.2979 18.2076 25.9844 18.4857 26.4977 18.9828C27.011 19.48 27.3107 20.1574 27.3335 20.8716V22.1051C27.5566 22.1756 27.7717 22.2691 27.9753 22.3842C27.9753 22.3005 27.9893 22.2168 27.9893 22.133V20.8772C27.9893 19.9743 27.6306 19.1083 26.9921 18.4698C26.3536 17.8313 25.4876 17.4726 24.5846 17.4726C23.6817 17.4726 22.8157 17.8313 22.1772 18.4698C21.5387 19.1083 21.18 19.9743 21.18 20.8772V22.133C21.18 22.2168 21.18 22.3005 21.18 22.3842C21.3841 22.2701 21.5992 22.1766 21.8219 22.1051L21.833 20.8716Z" fill="#38597A"/>
<path d="M27.9753 22.3786C27.7716 22.2635 27.5565 22.17 27.3334 22.0995C26.9727 21.9837 26.5961 21.9244 26.2172 21.9237H22.9632C22.5843 21.9248 22.2078 21.9841 21.8469 22.0995C21.6242 22.171 21.4092 22.2645 21.2051 22.3786C20.6155 22.6957 20.1227 23.1663 19.7788 23.7406C19.4349 24.3149 19.2528 24.9715 19.2516 25.6409V29.4586C19.2512 29.9462 19.347 30.4292 19.5333 30.8798C19.7197 31.3305 19.993 31.74 20.3377 32.0849C20.6824 32.4299 21.0917 32.7035 21.5422 32.8902C21.9927 33.0769 22.4756 33.173 22.9632 33.173H26.2032C27.1883 33.173 28.1331 32.7817 28.8297 32.0851C29.5263 31.3885 29.9176 30.4437 29.9176 29.4586V25.6409C29.9179 24.9726 29.7375 24.3166 29.3956 23.7424C29.0537 23.1681 28.563 22.6969 27.9753 22.3786Z" fill="#FCCD59"/>
<path d="M25.8376 29.4586C25.9465 29.4363 25.2153 27.5442 25.2153 27.5442C25.4039 27.4114 25.5452 27.222 25.6189 27.0035C25.6926 26.785 25.6947 26.5487 25.6251 26.3288C25.5554 26.109 25.4176 25.917 25.2315 25.7808C25.0454 25.6445 24.8208 25.5711 24.5902 25.5711C24.3596 25.5711 24.135 25.6445 23.9489 25.7808C23.7628 25.917 23.625 26.109 23.5553 26.3288C23.4857 26.5487 23.4878 26.785 23.5615 27.0035C23.6352 27.222 23.7765 27.4114 23.9651 27.5442C23.9651 27.5442 23.259 29.3191 23.326 29.4586C23.393 29.5982 25.7288 29.4837 25.8376 29.4586Z" fill="#38597A"/>
</svg>
