<svg width="48" height="49" viewBox="0 0 48 49" fill="none" xmlns="http://www.w3.org/2000/svg">
<path d="M28 6.5V14.5C28 15.0304 28.2107 15.5391 28.5858 15.9142C28.9609 16.2893 29.4696 16.5 30 16.5H38" stroke="#0052D9" stroke-width="1.5" stroke-linecap="round" stroke-linejoin="round"/>
<path d="M10 26.5V10.5C10 9.43913 10.4214 8.42172 11.1716 7.67157C11.9217 6.92143 12.9391 6.5 14 6.5H28L38 16.5V38.5C38 39.5609 37.5786 40.5783 36.8284 41.3284C36.0783 42.0786 35.0609 42.5 34 42.5H23M4 38.5H18M18 38.5L12 32.5M18 38.5L12 44.5" stroke="#0052D9" stroke-width="1.5" stroke-linecap="round" stroke-linejoin="round"/>
</svg>
