<svg width="48" height="49" viewBox="0 0 48 49" fill="none" xmlns="http://www.w3.org/2000/svg">
<path d="M28 6.5V14.5C28 15.0304 28.2107 15.5391 28.5858 15.9142C28.9609 16.2893 29.4696 16.5 30 16.5H38" stroke="#0052D9" stroke-width="1.5" stroke-linecap="round" stroke-linejoin="round"/>
<path d="M34 42.5H14C12.9391 42.5 11.9217 42.0786 11.1716 41.3284C10.4214 40.5783 10 39.5609 10 38.5V10.5C10 9.43913 10.4214 8.42172 11.1716 7.67157C11.9217 6.92143 12.9391 6.5 14 6.5H28L38 16.5V38.5C38 39.5609 37.5786 40.5783 36.8284 41.3284C36.0783 42.0786 35.0609 42.5 34 42.5Z" stroke="#0052D9" stroke-width="1.5" stroke-linecap="round" stroke-linejoin="round"/>
<path d="M19 30C19 29.6685 19.1317 29.3505 19.3661 29.1161C19.6005 28.8817 19.9185 28.75 20.25 28.75H27.75C28.0815 28.75 28.3995 28.8817 28.6339 29.1161C28.8683 29.3505 29 29.6685 29 30V33.75C29 34.0815 28.8683 34.3995 28.6339 34.6339C28.3995 34.8683 28.0815 35 27.75 35H20.25C19.9185 35 19.6005 34.8683 19.3661 34.6339C19.1317 34.3995 19 34.0815 19 33.75V30Z" stroke="#0052D9" stroke-width="1.5" stroke-linecap="round" stroke-linejoin="round"/>
<path d="M21.5 28.75V26.25C21.5 25.587 21.7634 24.9511 22.2322 24.4822C22.7011 24.0134 23.337 23.75 24 23.75C24.663 23.75 25.2989 24.0134 25.7678 24.4822C26.2366 24.9511 26.5 25.587 26.5 26.25V28.75" stroke="#0052D9" stroke-width="1.5" stroke-linecap="round" stroke-linejoin="round"/>
</svg>
