<svg width="49" height="48" viewBox="0 0 49 48" fill="none" xmlns="http://www.w3.org/2000/svg">
<path d="M15.1128 6.83125C13.8469 8.64361 15.3312 11.5818 13.4528 12.9448C11.6241 14.2716 9.3773 12.0969 7.65447 13.2391C5.09792 14.9339 5.56485 22.6859 9.30251 27.5027C10.4266 28.9517 11.3657 29.5149 11.7817 31.1532C12.6744 34.671 9.53579 36.7637 10.1331 38.5035C11.4787 42.421 32.1649 45.7083 40.4654 33.9348C44.342 28.4362 44.922 20.496 41.4584 14.4655C35.1996 3.56829 17.9535 2.76471 15.1128 6.83125Z" fill="#F4F7FA"/>
<path d="M17.3408 12.2497C17.8275 12.2908 18.2581 11.8967 18.3026 11.37C18.3471 10.8433 17.9883 10.3823 17.5016 10.3413C17.4757 10.3392 17.4514 10.3389 17.4264 10.3391C17.4037 10.0703 17.3614 9.8036 17.2997 9.54104C17.3228 9.5316 17.3459 9.52177 17.3686 9.51012C17.8123 9.28203 18.0059 8.71055 17.801 8.23366C17.596 7.75676 17.0702 7.5548 16.6264 7.7829C16.6033 7.7948 16.5812 7.80878 16.5593 7.82171C16.4155 7.60417 16.2551 7.3981 16.0794 7.20535C16.0956 7.18439 16.1114 7.16291 16.1261 7.14066C16.4079 6.70477 16.3127 6.10898 15.9133 5.80985C15.5139 5.51073 14.9617 5.62186 14.6799 6.05775C14.6656 6.08013 14.6528 6.10316 14.6402 6.12619C14.4134 6.01652 14.1777 5.92615 13.9357 5.85604C13.9401 5.83017 13.944 5.80274 13.9463 5.77544C13.9907 5.24847 14.0868 4.65333 13.5995 4.61995C12.4721 4.54232 12.228 5.09994 12.1835 5.62704C12.1813 5.65434 12.1807 5.68138 12.1806 5.70829C11.9303 5.73669 11.6829 5.78612 11.4409 5.85604C11.4325 5.83107 11.4237 5.80636 11.4132 5.78191C11.2083 5.30488 11.245 4.98674 10.7792 5.16541C9.76348 5.55523 9.60111 6.13072 9.80605 6.60761C9.81666 6.63258 9.82882 6.65626 9.84124 6.67968C9.63583 6.84032 9.44316 7.01663 9.26498 7.20703C9.2457 7.18982 9.22617 7.173 9.20534 7.15735C8.80594 6.85835 8.25375 6.96936 7.97196 7.40524C7.69017 7.84112 7.78539 8.43704 8.18466 8.73604C8.2051 8.75144 8.22632 8.76489 8.24741 8.77809C8.14261 9.02667 8.05612 9.28257 7.98865 9.54376C7.96407 9.53949 7.93948 9.53548 7.91426 9.53341C7.42753 9.4924 6.99682 9.88636 6.95244 10.4132C6.90807 10.94 7.26671 11.4008 7.75343 11.4418C7.77866 11.444 7.80363 11.4442 7.82847 11.4441C7.85124 11.7128 7.89362 11.9795 7.95527 12.2421C7.93224 12.2516 7.90908 12.2614 7.88644 12.273C7.44266 12.5011 7.24911 13.0726 7.45405 13.5495C7.65899 14.0264 8.18479 14.2282 8.62856 14.0003C8.65172 13.9884 8.67384 13.9744 8.69571 13.9614C8.83951 14.179 8.99994 14.3851 9.17558 14.5778C9.15941 14.5988 9.14362 14.6201 9.12887 14.6425C8.84708 15.0785 8.94231 15.6743 9.3417 15.9734C9.7411 16.2726 10.6055 16.1355 10.8873 15.6997C10.9018 15.6773 10.6026 15.6801 10.6148 15.657C10.8417 15.7664 11.0773 15.8566 11.3193 15.9265C11.3149 15.953 11.311 15.9796 11.3087 16.0069C11.2643 16.534 11.6229 16.9945 12.1097 17.0355C12.5964 17.0765 13.027 16.6826 13.0715 16.1557C13.0737 16.1284 13.0743 16.1014 13.0744 16.0745C13.3247 16.0461 13.5721 15.9967 13.8141 15.9267C13.8225 15.9516 13.8313 15.9764 13.8418 16.0009C14.0474 16.4781 14.5732 16.68 15.017 16.4523C15.4607 16.2246 15.6543 15.6527 15.4493 15.1758C15.4386 15.1508 15.4266 15.1272 15.4142 15.1037C15.6196 14.9431 15.8122 14.7667 15.9904 14.5763C16.0097 14.5935 16.0292 14.6104 16.0501 14.6261C16.4495 14.9251 17.0017 14.8141 17.2834 14.3782C17.5652 13.9423 17.47 13.3464 17.0707 13.0472C17.0503 13.032 17.0291 13.0184 17.008 13.0052C17.1128 12.7567 17.1993 12.5008 17.2668 12.2397C17.2909 12.2437 17.3155 12.2474 17.3408 12.2497ZM12.3359 14.3563C10.5686 14.2074 9.26654 12.5354 9.42774 10.6218C9.58895 8.7081 11.1522 7.27741 12.9197 7.42607C14.6872 7.57473 15.9896 9.24748 15.8279 11.1613C15.6662 13.0751 14.1033 14.5056 12.3359 14.3563Z" fill="#BFC6D1"/>
<path d="M17.3686 9.50985C17.8124 9.28175 18.0059 8.71028 17.801 8.23338C17.596 7.75649 17.0702 7.55453 16.6265 7.78262C16.6033 7.79453 16.5812 7.8085 16.5593 7.82144C16.4155 7.6039 16.2551 7.39782 16.0794 7.20507C16.0956 7.18411 16.1114 7.16263 16.1262 7.14038C16.4079 6.7045 16.6245 5.83972 16.1965 5.58329C15.3844 5.09644 14.9617 5.62211 14.6799 6.05747C14.6656 6.07985 14.6528 6.10288 14.6402 6.12591C14.4134 6.01633 14.1777 5.92605 13.9357 5.85603C13.9401 5.83015 13.944 5.80272 13.9464 5.77542C13.9587 5.64151 13.9436 5.50648 13.902 5.37859C13.8604 5.2507 13.7932 5.13264 13.7044 5.03162C13.5958 5.85577 13.4942 6.68074 13.3996 7.50653C14.9164 7.88833 15.9743 9.4251 15.8279 11.161C15.704 12.6319 14.7514 13.8165 13.5147 14.2188C13.5176 14.3796 13.5217 14.5407 13.5203 14.7017C13.5162 15.1387 13.4878 15.5765 13.4591 16.0139C13.579 15.9896 13.6976 15.9606 13.8148 15.9268C13.8232 15.9517 13.832 15.9765 13.8425 16.001C14.0474 16.4779 14.5053 16.7679 15.3217 16.3847C15.7733 16.1728 15.6543 15.6522 15.4494 15.1751C15.4386 15.1503 15.4266 15.1265 15.4142 15.1032C15.6195 14.9427 15.8122 14.7665 15.9904 14.5762C16.0097 14.5933 16.0292 14.6103 16.0501 14.6259C16.4495 14.9249 17.3454 14.757 17.6272 14.3211C17.909 13.8852 17.47 13.3462 17.0709 13.0471C17.0503 13.0318 17.0292 13.0182 17.0081 13.005C17.1129 12.7565 17.1994 12.5006 17.2669 12.2395C17.2915 12.2438 17.3161 12.2478 17.3413 12.2499C17.828 12.2909 18.2586 11.8968 18.3031 11.3701C18.3476 10.8434 17.9888 10.3825 17.5021 10.3415C17.4762 10.3394 17.4519 10.3392 17.4269 10.3393C17.4043 10.0706 17.3619 9.80384 17.3003 9.54129C17.3223 9.53132 17.3459 9.52149 17.3686 9.50985Z" fill="#BFC6D1"/>
<path d="M17.7949 12.1227C18.2816 12.1637 18.7122 11.7696 18.7565 11.2429C18.8009 10.7162 18.4424 10.2548 17.9562 10.214C17.931 10.2119 17.906 10.2116 17.8812 10.2118C17.8585 9.94301 17.8161 9.67629 17.7544 9.41375C17.7775 9.40431 17.8006 9.39447 17.8233 9.38283C18.2671 9.15473 18.4607 8.58326 18.2557 8.10636C18.0508 7.62947 17.525 7.42751 17.0812 7.6556C17.0579 7.66751 17.0359 7.68148 17.0141 7.69442C16.8698 7.47698 16.709 7.271 16.533 7.07831C16.5491 7.05735 16.565 7.03587 16.5797 7.01362C16.8615 6.57774 16.7663 5.98194 16.3669 5.68282C15.9675 5.38369 15.4153 5.49483 15.1335 5.93071C15.119 5.95309 15.1063 5.97612 15.0938 5.99915C14.8669 5.88975 14.6313 5.79964 14.3893 5.72978C14.3936 5.70326 14.3976 5.67661 14.3999 5.64918C14.4443 5.12221 14.0857 4.66162 13.5989 4.62061C13.1122 4.57959 12.6815 4.97369 12.6371 5.50039C12.6348 5.52769 12.6343 5.55473 12.6342 5.58164C12.3839 5.61002 12.1365 5.65944 11.8945 5.72939C11.8861 5.70442 11.8773 5.67971 11.8668 5.65526C11.6619 5.17824 11.1359 4.97653 10.6922 5.2045C10.2484 5.43247 10.0548 6.00407 10.2598 6.48096C10.2705 6.50593 10.2825 6.52961 10.295 6.55303C10.0896 6.71374 9.89695 6.89004 9.7187 7.08038C9.69955 7.06317 9.67989 7.04635 9.65906 7.0307C9.25979 6.7317 8.7076 6.84271 8.42568 7.27859C8.14376 7.71447 8.23911 8.3104 8.63851 8.60939C8.65895 8.62479 8.68004 8.63825 8.70126 8.65144C8.5964 8.9 8.50991 9.15591 8.4425 9.41711C8.41804 9.41272 8.39346 9.40883 8.36823 9.40676C7.88137 9.36575 7.4508 9.75971 7.40642 10.2865C7.36204 10.8134 7.72069 11.2741 8.20741 11.3151C8.23329 11.3173 8.25761 11.3176 8.28245 11.3173C8.30521 11.5861 8.34759 11.8529 8.40925 12.1155C8.38609 12.1249 8.36306 12.1347 8.34029 12.1464C7.89664 12.3745 7.70296 12.946 7.9079 13.4228C8.11284 13.8997 8.63876 14.1016 9.08254 13.8736C9.1057 13.8617 9.12782 13.8477 9.14956 13.8348C9.29347 14.0523 9.45395 14.2584 9.62956 14.4512C9.61338 14.4721 9.59747 14.4935 9.58285 14.5159C9.30093 14.9519 9.39629 15.5477 9.79555 15.8468C10.1948 16.1459 10.7471 16.0348 11.0289 15.5989C11.0434 15.5765 11.0562 15.5535 11.0687 15.5303C11.2956 15.6397 11.5313 15.7299 11.7733 15.7998C11.7689 15.8263 11.765 15.853 11.7626 15.8803C11.7183 16.4074 12.0768 16.868 12.5636 16.9089C13.0505 16.9497 13.4809 16.5559 13.5253 16.0291C13.5277 16.0018 13.5282 15.9747 13.5284 15.9478C13.779 15.9195 14.0266 15.87 14.2689 15.8001C14.2773 15.825 14.2859 15.8498 14.2966 15.8742C14.5015 16.3511 15.0273 16.5529 15.4711 16.325C15.9148 16.097 16.1084 15.5254 15.9035 15.0485C15.8927 15.0235 15.8807 14.9999 15.8683 14.9764C16.0736 14.8157 16.2662 14.6394 16.4445 14.4491C16.4638 14.4662 16.4833 14.4831 16.5042 14.4988C16.9036 14.7978 17.4558 14.6868 17.7375 14.2509C18.0193 13.815 17.9241 13.2191 17.5247 12.9199C17.5043 12.9047 17.4832 12.8911 17.462 12.8779C17.5668 12.6294 17.6533 12.3735 17.7207 12.1124C17.7449 12.1166 17.7696 12.1206 17.7949 12.1227ZM12.7901 14.2297C11.0227 14.0809 9.72064 12.4088 9.88185 10.4951C10.0431 8.58145 11.6064 7.15076 13.3737 7.29942C15.141 7.44808 16.4431 9.12019 16.2819 11.034C16.1207 12.9478 14.5574 14.3785 12.7901 14.2297Z" fill="#D8DEE8"/>
<path d="M31.7195 32.7319C31.1656 32.7495 30.6182 32.6079 30.1423 32.3238C28.7025 31.4608 26.5754 30.0357 24.6615 28.1707C22.2331 25.8031 20.8378 23.3966 20.5325 21.034L20.5278 20.997L20.4685 10.9141C20.4685 8.92168 21.7683 7.30443 24.2084 6.24106C26.2245 5.36295 28.8966 4.92785 31.7195 5.00962C34.5096 5.09035 37.0914 5.66596 39.0023 6.62519C41.2739 7.76554 42.4657 9.36804 42.4657 11.2679L42.4116 20.902L42.4072 20.9375C42.1283 23.1997 40.8446 25.5386 38.5755 27.9038C36.7555 29.8009 34.699 31.3043 33.2866 32.2358C32.8205 32.5437 32.2778 32.7155 31.7195 32.7319Z" fill="url(#paint0_linear_687_996)"/>
<path d="M32.2733 32.7319C31.7259 32.7493 31.1852 32.6075 30.7168 32.3238C29.2962 31.4608 27.1976 30.0357 25.3087 28.1707C22.9123 25.8031 21.5354 23.3966 21.2342 21.034L21.2294 20.997L21.171 10.9141C21.171 8.92168 22.4535 7.30443 24.8615 6.24106C26.8509 5.36295 29.4878 4.92785 32.2735 5.00962C35.0267 5.09035 37.5743 5.66596 39.4599 6.62519C41.7015 7.76554 42.8776 9.36804 42.8776 11.2679L42.8243 20.902L42.8199 20.9375C42.5447 23.2003 41.2778 25.5393 39.0387 27.9045C37.2429 29.8016 35.2135 31.3049 33.8197 32.2365C33.3611 32.5438 32.8251 32.7155 32.2733 32.7319Z" fill="url(#paint1_linear_687_996)"/>
<path d="M21.8366 10.9207L21.8955 20.9526C22.5553 26.0711 28.5715 30.2153 31.1912 31.7897C31.9416 32.2408 32.9012 32.2141 33.6464 31.7238C36.2118 30.0357 41.8976 25.7862 42.5052 20.865L42.5592 11.2573C42.5592 4.12919 21.8366 3.47763 21.8366 10.9207Z" fill="url(#paint2_linear_687_996)"/>
<path d="M32.422 30.2441C32.3537 30.2457 32.2864 30.2277 32.2279 30.1923C31.1491 29.5391 29.0581 28.1709 27.2389 26.3839C25.2737 24.4534 24.1406 22.5767 23.8806 20.8142L23.823 10.9485C23.8253 10.0018 24.5747 9.1916 26.0435 8.54341C27.6833 7.81966 30.0119 7.43993 32.422 7.49724C34.808 7.55391 37.0687 8.03417 38.6348 8.81135C40.0202 9.49875 40.7206 10.3092 40.7229 11.223L40.6692 20.7476C40.4266 22.4532 39.3624 24.2919 37.4954 26.2247C35.7393 28.042 33.6881 29.4827 32.6159 30.1838C32.5581 30.2215 32.491 30.2424 32.422 30.2441Z" fill="url(#paint3_linear_687_996)"/>
<path d="M32.1757 29.569C31.0864 28.898 29.1491 27.6024 27.4589 25.9391C25.6123 24.1217 24.5437 22.3778 24.2925 20.7639L24.2353 10.9554C24.237 10.2787 24.859 9.65776 26.0796 9.11734C27.6329 8.42956 29.8585 8.06717 32.1757 8.11918C34.4707 8.17093 36.6338 8.62376 38.1204 9.35941C39.2753 9.9314 39.8603 10.5545 39.8613 11.2146L39.8077 20.7037C39.572 22.2692 38.564 23.9816 36.8013 25.8026C35.1648 27.4932 33.2602 28.8526 32.1757 29.569Z" fill="#F4F7FA"/>
<path d="M36.0738 16.7271L28.738 16.7918C28.174 16.7968 27.7146 17.2365 27.7146 17.7734V22.4742C27.7146 23.008 28.1723 23.4217 28.7342 23.3988L36.0442 23.0994C36.5642 23.0782 36.9858 22.6478 36.9887 22.1376L37.0119 17.6481C37.0139 17.1346 36.5955 16.7224 36.0738 16.7271Z" fill="url(#paint4_linear_687_996)"/>
<path style="mix-blend-mode:multiply" opacity="0.8" d="M33.4096 19.4223C33.4112 18.9033 32.9656 18.4929 32.4217 18.5273C31.94 18.5577 31.5404 18.9467 31.5133 19.4135C31.4924 19.7758 31.6882 20.0893 31.9863 20.2486C32.0472 20.2818 32.096 20.3336 32.1255 20.3964C32.1551 20.4592 32.1639 20.5297 32.1508 20.5979L31.9387 21.7852C31.9118 21.9363 32.0316 22.0698 32.1896 22.0638L32.7263 22.045C32.8831 22.0394 33.0025 21.8989 32.9766 21.7504L32.7714 20.5742C32.747 20.4338 32.8193 20.2946 32.9465 20.2182C33.2231 20.052 33.4085 19.756 33.4096 19.4223Z" fill="url(#paint5_linear_687_996)"/>
<path d="M35.9707 16.2609C35.9189 16.2617 35.8674 16.2522 35.8192 16.233C35.771 16.2137 35.7272 16.185 35.6902 16.1487C35.6532 16.1123 35.6238 16.0689 35.6038 16.0211C35.5837 15.9733 35.5733 15.9219 35.5733 15.87L35.5777 14.8463C35.5822 13.8179 34.7321 12.9719 33.6726 12.9615L31.278 12.9376C30.1815 12.9268 29.28 13.7818 29.2791 14.8426L29.278 15.8989C29.278 16.1231 29.0869 16.3062 28.8511 16.3077C28.6152 16.3093 28.4231 16.1279 28.4231 15.9026V14.8417C28.4231 13.3257 29.7148 12.1082 31.2794 12.1299L33.6749 12.1632C35.1798 12.1841 36.3819 13.3885 36.3749 14.8463L36.37 15.866C36.3686 15.9711 36.326 16.0714 36.2513 16.1453C36.1766 16.2192 36.0758 16.2607 35.9707 16.2609Z" fill="url(#paint6_linear_687_996)"/>
<path d="M43.5261 38.9884L7.09906 38.6779V39.5965C7.09906 39.8458 7.25807 40.0578 7.47323 40.0956L17.7737 41.9047C17.8956 41.9262 18.0198 41.9319 18.1432 41.9217L43.1302 39.859C43.3533 39.8406 43.5261 39.6279 43.5261 39.3717V38.9884Z" fill="#26264F"/>
<path d="M30.3068 37.516L7.47642 39.1972C7.06784 39.2272 6.73572 38.9076 6.73572 38.4832V21.4812C6.73572 21.0568 7.06784 20.7128 7.47642 20.7128H30.3068C30.6432 20.7128 30.9156 21.0233 30.9156 21.4074V36.7766C30.9156 37.1602 30.6435 37.4913 30.3068 37.516Z" fill="#26264F"/>
<path d="M30.6709 37.516L7.83989 39.1972C7.43131 39.2272 7.09906 38.9076 7.09906 38.4832V21.4812C7.09906 21.0568 7.43131 20.7128 7.83989 20.7128H30.6709C31.0073 20.7128 31.279 21.0233 31.279 21.4074V36.7766C31.2797 37.1602 31.0076 37.4913 30.6709 37.516Z" fill="url(#paint7_linear_687_996)"/>
<path d="M29.9597 36.4325L8.69494 37.8924C8.36243 37.9153 8.09229 37.6529 8.09229 37.3066V22.4215C8.09229 22.075 8.36243 21.7931 8.69494 21.7917L29.9597 21.7C30.2374 21.6988 30.462 21.9535 30.462 22.2692V35.8267C30.462 36.1423 30.2374 36.4134 29.9597 36.4325Z" fill="white"/>
<path d="M20.0618 21.1779C20.0618 21.3359 19.9441 21.4642 19.7991 21.4647C19.6541 21.4653 19.5358 21.3372 19.5358 21.1789C19.5358 21.0207 19.6538 20.8921 19.7991 20.892C19.9444 20.8918 20.0618 21.0199 20.0618 21.1779Z" fill="white"/>
<path d="M31.5809 37.4229L7.09906 39.1919L17.7737 41.0668C17.8956 41.0883 18.0198 41.094 18.1432 41.0837L43.5261 38.9878L31.9703 37.4343C31.8412 37.4171 31.7107 37.4133 31.5809 37.4229Z" fill="url(#paint8_linear_687_996)"/>
<path d="M10.6713 39.2071L31.0532 37.7123L37.3611 38.5535L17.1549 40.1514L10.6713 39.2071Z" fill="#26264F"/>
<path d="M17.2751 37.2785L8.60025 37.8621C8.54 37.8662 8.47955 37.8578 8.42266 37.8376C8.36578 37.8173 8.31366 37.7856 8.26955 37.7443C8.22544 37.7031 8.19028 37.6532 8.16624 37.5978C8.1422 37.5424 8.12981 37.4826 8.12982 37.4222V22.2293C8.12982 22.1127 8.17602 22.0009 8.2583 21.9183C8.34057 21.8357 8.45223 21.7891 8.56881 21.7886L17.2751 21.7534V37.2785Z" fill="#D8DEE8"/>
<path d="M28.4778 28.9934L19.3379 29.3145V28.3903L28.4778 28.1039V28.9934Z" fill="#D8DEE8"/>
<path d="M28.4778 30.4505L19.3379 30.8286V29.9044L28.4778 29.5612V30.4505Z" fill="#D8DEE8"/>
<path d="M16.3803 29.1594L11.132 29.3384V28.6476L16.3803 28.4832V29.1594Z" fill="white"/>
<path d="M16.3803 30.2675L11.132 30.4699V29.7792L16.3803 29.5911V30.2675Z" fill="white"/>
<path d="M16.3803 31.3752L11.132 31.6014V30.9106L16.3803 30.699V31.3752Z" fill="white"/>
<path d="M16.3803 32.4833L11.132 32.733V32.0422L16.3803 31.807V32.4833Z" fill="white"/>
<path d="M23.3767 32.1505L19.3379 32.3426V31.4184L23.3767 31.2417V32.1505Z" fill="#D8DEE8"/>
<path d="M22.7263 24.9086V26.2968C22.7263 26.6979 23.064 27.0148 23.4793 27.0039L24.5089 26.9771C24.9192 26.9664 25.2508 26.6358 25.2508 26.2386V24.865L22.7263 24.9086ZM23.6747 26.3438L23.866 25.7639C23.8248 25.7431 23.7901 25.7113 23.7658 25.672C23.7415 25.6327 23.7286 25.5875 23.7285 25.5413C23.7285 25.3989 23.848 25.2809 23.9953 25.2781C24.1425 25.2753 24.2614 25.3883 24.2614 25.5305C24.2609 25.5773 24.248 25.6231 24.2238 25.6632C24.1997 25.7032 24.1654 25.7361 24.1243 25.7585L24.315 26.3288L23.6747 26.3438Z" fill="#D8DEE8"/>
<path d="M24.9581 24.7447C24.9327 24.7456 24.9073 24.7414 24.8834 24.7324C24.8596 24.7233 24.8378 24.7096 24.8194 24.692C24.8009 24.6744 24.7862 24.6533 24.776 24.6299C24.7659 24.6066 24.7605 24.5814 24.7602 24.5559C24.7602 24.1479 24.4177 23.8203 23.9953 23.8257C23.5729 23.8311 23.2253 24.1697 23.2253 24.5804C23.2253 24.6871 23.1348 24.7752 23.0245 24.7772C22.9988 24.7781 22.9731 24.7739 22.949 24.7648C22.9248 24.7557 22.9028 24.7418 22.8841 24.7241C22.8653 24.7064 22.8504 24.6851 22.8399 24.6615C22.8295 24.6379 22.824 24.6125 22.8235 24.5867C22.8235 23.9618 23.3506 23.4474 23.9953 23.4401C24.6365 23.4329 25.1556 23.9306 25.1556 24.5496C25.1547 24.6014 25.1335 24.6509 25.0966 24.6873C25.0597 24.7238 25.01 24.7444 24.9581 24.7447Z" fill="#D8DEE8"/>
<g style="mix-blend-mode:soft-light" opacity="0.48">
<path d="M7.83977 39.1972L30.5554 37.525L30.6709 37.5164C30.8254 37.505 30.9658 37.4287 31.0731 37.3129C29.4385 37.2235 28.4231 36.6434 27.7682 36.0439C26.4529 34.8407 26.6814 33.6533 25.2627 32.8612C23.4936 31.874 22.1026 33.1249 20.7603 31.8908C19.9464 31.1426 20.3463 30.5841 19.3445 29.4665C18.2353 28.2281 17.5131 28.6444 16.3985 27.5298C14.9891 26.1206 15.6939 25.0241 14.4798 24.0122C13.0069 22.7847 11.4185 23.9209 10.0162 22.7437C9.41161 22.236 9.07975 21.4977 8.90651 20.7124H7.83977C7.43119 20.7124 7.09894 21.0564 7.09894 21.4808V38.4829C7.09907 38.9072 7.43119 39.2268 7.83977 39.1972Z" fill="white"/>
</g>
<path d="M22.2159 20.626C22.2159 23.5737 19.9307 26.0046 17.0724 26.0882C14.1695 26.173 11.732 23.8124 11.6685 20.7817C11.6038 17.7141 13.9921 15.1996 16.9601 15.1996C19.8811 15.1996 22.2159 17.6436 22.2159 20.626Z" fill="url(#paint9_linear_687_996)"/>
<path d="M22.5724 20.626C22.5724 23.5737 20.2871 26.0046 17.4288 26.0882C14.5259 26.173 12.0884 23.8124 12.0249 20.7817C11.9602 17.7141 14.3486 15.1996 17.3165 15.1996C20.2376 15.1996 22.5724 17.6436 22.5724 20.626Z" fill="url(#paint10_linear_687_996)"/>
<path d="M21.8975 20.636C21.8992 21.9385 21.3876 23.1249 20.558 23.987C19.7526 24.8235 15.1716 24.9951 14.3433 24.2686C13.3844 23.4276 12.7641 22.1824 12.7364 20.7716C12.6846 18.1141 14.7525 15.935 17.3239 15.9299C19.8602 15.9246 21.894 18.0427 21.8975 20.636Z" fill="white"/>
<mask id="mask0_687_996" style="mask-type:luminance" maskUnits="userSpaceOnUse" x="12" y="15" width="10" height="11">
<path d="M21.8975 20.636C21.9009 23.2029 19.9104 25.3196 17.421 25.3871C14.8981 25.4561 12.7872 23.4009 12.7358 20.7712C12.684 18.1138 14.7519 15.9346 17.3233 15.9296C19.8602 15.9247 21.894 18.0427 21.8975 20.636Z" fill="white"/>
</mask>
<g mask="url(#mask0_687_996)">
<path d="M17.4174 22.2564C16.5496 22.3652 16.2788 22.688 15.9295 22.4724C15.6118 22.2758 15.7366 21.9464 15.3965 21.7192C14.9189 21.4004 14.3531 21.8345 14.1248 21.5606C13.946 21.3462 14.2812 21.0673 14.2117 20.494C14.1291 19.8106 13.5884 19.6701 13.6566 19.1196C13.7048 18.7307 14.0161 18.4669 14.0386 18.4484C14.2798 18.2496 14.4009 18.3524 14.6233 18.1712C14.9457 17.9086 14.802 17.602 15.1312 17.2978C15.1571 17.2741 15.4832 16.9803 15.8322 17.057C16.102 17.1164 16.1006 17.3348 16.3271 17.3919C16.7322 17.4939 16.9516 16.8485 17.4548 16.8517C17.8517 16.8544 17.8711 17.2578 18.3537 17.353C18.9461 17.4695 19.3749 16.9505 19.6066 17.1564C19.755 17.2882 19.5902 17.5115 19.7611 17.7627C19.9479 18.0375 20.2287 17.892 20.5374 18.1795C20.7185 18.3477 20.8805 18.6388 20.8701 18.9378C20.8598 19.2346 20.6873 19.3094 20.7264 19.5718C20.7644 19.8277 20.9404 19.8358 20.9852 20.0802C21.0358 20.3552 20.8749 20.6807 20.6599 20.8589C20.3648 21.1033 20.0971 20.9624 19.9331 21.2056C19.8104 21.3867 19.9201 21.524 19.8166 21.7371C19.7167 21.9425 19.4932 22.0657 19.0635 22.1659C18.3139 22.3409 18.1329 22.1668 17.4174 22.2564Z" fill="url(#paint11_linear_687_996)"/>
<g style="mix-blend-mode:multiply" opacity="0.3">
<path d="M20.202 20.7296C19.7059 20.6342 19.6571 20.1559 19.131 20.0111C18.2246 19.7618 17.4766 20.9314 17.0192 20.6511C16.5806 20.3826 17.1638 19.2489 16.5578 18.5772C16.1092 18.0801 15.434 18.3038 15.2798 17.9317C15.2099 17.7635 15.2571 17.496 15.6239 17.0511C15.3628 17.0893 15.1522 17.2789 15.1323 17.2977C14.803 17.6024 14.9467 17.9085 14.6243 18.1712C14.4018 18.3523 14.2808 18.2496 14.0397 18.4483C14.0171 18.4668 13.7059 18.7306 13.6576 19.1195C13.5894 19.6701 14.1301 19.8106 14.2128 20.494C14.2822 21.0672 13.947 21.3462 14.1258 21.5606C14.3542 21.8345 14.92 21.4004 15.3975 21.7192C15.7376 21.9464 15.6128 22.2755 15.9305 22.4723C16.279 22.688 16.5502 22.3652 17.4184 22.2564C18.1339 22.1667 18.3149 22.3409 19.0649 22.1658C19.4943 22.0657 19.7182 21.9425 19.818 21.737C19.9215 21.5239 19.8117 21.3869 19.9345 21.2055C20.0985 20.9627 20.3662 21.1032 20.6613 20.8588C20.7441 20.7888 20.8144 20.7052 20.8691 20.6116C20.6516 20.7201 20.4262 20.7726 20.202 20.7296Z" fill="url(#paint12_linear_687_996)"/>
</g>
<path d="M14.2106 25.6263C14.5156 26.0899 15.5737 25.8296 17.5615 25.7498C19.5434 25.6703 20.4195 25.8533 20.7225 25.3905C20.8632 25.176 20.8088 24.9325 20.7054 24.469C20.6345 24.1517 20.496 23.5302 19.9893 23.1105C19.3645 22.5937 18.4918 22.6408 17.6096 22.6882C16.6825 22.7382 15.3958 22.8075 14.6895 23.6502C14.1956 24.2409 14.157 25.0043 14.1525 25.1172C14.1428 25.3828 14.1377 25.5156 14.2106 25.6263Z" fill="url(#paint13_linear_687_996)"/>
<path d="M17.1291 21.1848C17.1291 21.1848 17.263 22.5971 16.3024 22.8986C16.2781 22.9066 16.2565 22.921 16.2399 22.9404C16.2232 22.9597 16.212 22.9831 16.2076 23.0083C16.2032 23.0334 16.2056 23.0593 16.2147 23.0831C16.2238 23.107 16.2391 23.1279 16.2592 23.1438C16.5673 23.3822 17.1214 23.7605 17.5788 23.8004C18.0538 23.8418 18.6123 23.3262 18.8975 23.0221C18.9738 22.9409 18.9307 22.8063 18.8231 22.7893C18.4142 22.7225 17.6772 22.4353 17.7419 21.23L17.1291 21.1848Z" fill="url(#paint14_linear_687_996)"/>
<path d="M16.4704 20.1707C16.4704 20.1707 16.4187 21.5913 17.4082 21.5579C18.3922 21.5248 18.3126 20.3212 18.2554 20.0098C18.2554 20.0098 18.2554 19.1855 17.5973 19.2635C16.9374 19.3418 16.4928 19.5619 16.4704 20.1707Z" fill="url(#paint15_linear_687_996)"/>
<path d="M18.1824 20.514C18.1824 20.514 18.2736 20.1427 18.4699 20.3232C18.7545 20.5849 18.1546 20.8952 18.1546 20.8952L18.1824 20.514Z" fill="url(#paint16_linear_687_996)"/>
<path d="M16.5694 20.5371C16.5694 20.5371 16.4697 20.1668 16.2751 20.3535C15.9921 20.6252 16.6054 20.9189 16.6054 20.9189L16.5694 20.5371Z" fill="url(#paint17_linear_687_996)"/>
<path d="M16.4397 20.1517C16.4415 20.1578 16.4452 20.1632 16.4502 20.1671C16.4553 20.171 16.4615 20.1732 16.4679 20.1733C16.4743 20.1735 16.4806 20.1716 16.4858 20.1679C16.4911 20.1642 16.495 20.1589 16.497 20.1528C16.5617 19.9695 16.77 19.553 17.3262 19.4865C17.8224 19.4273 18.0895 19.8016 18.206 20.0357C18.2114 20.0467 18.2203 20.0556 18.2313 20.0609C18.2422 20.0663 18.2547 20.0679 18.2667 20.0655C18.2786 20.063 18.2895 20.0567 18.2975 20.0475C18.3055 20.0382 18.3102 20.0266 18.3109 20.0144C18.3413 19.6726 18.2905 19.0136 17.4441 19.0223C16.3725 19.0333 16.3527 19.875 16.4397 20.1517Z" fill="url(#paint18_linear_687_996)"/>
</g>
<path d="M30.8979 41.4397C30.8979 41.4397 29.9509 41.87 29.9354 41.9387C29.9199 42.0074 30.5444 41.9157 30.7993 41.9258C31.0542 41.9359 31.2639 41.8611 31.2408 41.7524C31.2178 41.6437 31.1285 41.3729 31.1285 41.3729L30.8979 41.4397Z" fill="url(#paint19_linear_687_996)"/>
<path d="M30.8632 41.0904L30.9207 41.5173C30.9207 41.5173 31.0707 41.5708 31.1713 41.5076L31.2143 41.04L30.8632 41.0904Z" fill="url(#paint20_linear_687_996)"/>
<path d="M35.3225 41.1006L35.4326 41.2774C35.448 41.3018 35.4582 41.329 35.4627 41.3574C35.4671 41.3859 35.4657 41.4149 35.4585 41.4428C35.4197 41.5898 35.3431 41.8763 35.3095 41.951C35.2638 42.0528 34.6511 42.1132 34.6511 42.1132C34.6511 42.1132 34.5965 42.0364 34.7236 41.9435C34.8508 41.8506 34.9327 41.836 34.9776 41.699C35.0225 41.562 35.0524 41.1742 35.0524 41.1742L35.3225 41.1006Z" fill="url(#paint21_linear_687_996)"/>
<path d="M34.864 40.6512C34.9043 40.6833 35.101 41.2806 35.101 41.2806C35.101 41.2806 35.1648 41.3621 35.2858 41.2418C35.4068 41.1215 35.3405 41.1879 35.3405 41.1879L35.3179 40.6003L34.864 40.6512Z" fill="url(#paint22_linear_687_996)"/>
<path d="M30.3422 32.5249C30.2922 33.7967 30.2904 35.1784 30.3634 36.6545C30.4457 38.3166 30.6113 39.8529 30.82 41.2455C30.8976 41.248 30.979 41.2484 31.0641 41.2455C31.1216 41.2439 31.1773 41.2412 31.2311 41.2374C31.3689 40.8702 31.486 40.4956 31.582 40.1153C31.6908 39.6828 31.7726 39.244 31.8271 38.8014C32.0094 37.361 31.7956 37.2359 31.9435 36.1679C32.0746 35.2224 32.261 35.1855 32.4798 33.8432C32.7172 32.3868 32.5405 32.1682 32.4539 32.0893C32.0888 31.7538 31.2295 31.9826 30.3422 32.5249Z" fill="url(#paint23_linear_687_996)"/>
<path style="mix-blend-mode:multiply" opacity="0.3" d="M32.4547 32.0899C32.1054 31.7694 31.3078 31.9634 30.4648 32.4521C31.4344 33.5001 31.5401 34.1793 31.4239 34.6203C31.2926 35.1188 30.8935 35.2622 30.8946 35.8072C30.8966 36.4769 31.5009 36.6542 31.4881 37.3629C31.4796 37.8315 31.214 37.8267 31.1517 38.4054C31.0775 39.0902 31.4245 39.3262 31.312 39.8329C31.2636 40.0509 31.1257 40.3356 30.7327 40.6291C30.761 40.8371 30.7901 41.0431 30.8204 41.2452C30.898 41.2476 30.9794 41.248 31.0645 41.2452C31.1221 41.2435 31.1777 41.2408 31.2315 41.237C31.3693 40.8698 31.4864 40.4952 31.5824 40.1149C31.6912 39.6824 31.773 39.2436 31.8275 38.8011C32.0098 37.3607 31.796 37.2356 31.9439 36.1675C32.075 35.222 32.2614 35.1851 32.4802 33.8428C32.7173 32.3873 32.5406 32.1688 32.4547 32.0899Z" fill="url(#paint24_linear_687_996)"/>
<path d="M30.9427 32.5036C31.9271 33.9436 32.7775 35.4705 33.4835 37.0655C34.0314 38.3035 34.4906 39.579 34.8575 40.8822C34.9448 40.9227 35.0417 40.9377 35.1371 40.9255C35.2596 40.9079 35.3719 40.8473 35.4537 40.7545C35.5615 40.0841 35.5859 39.4029 35.5263 38.7266C35.4976 38.4031 35.4469 37.8662 35.2417 37.2025C35.0112 36.4589 34.8527 36.4173 34.5521 35.6306C34.24 34.8142 34.3156 34.6105 34.0167 33.5889C33.8369 32.9767 33.6138 32.3781 33.3492 31.7975L30.9427 32.5036Z" fill="url(#paint25_linear_687_996)"/>
<path d="M26.9938 23.8077C26.9938 23.8077 26.8318 23.6136 26.7286 23.4693C26.6254 23.3251 26.1492 22.9231 26.1492 22.9231C26.1492 22.9231 26.1151 22.9892 26.2179 23.0913C26.3208 23.1934 26.5362 23.3683 26.4896 23.4453C26.4431 23.5223 26.3071 23.592 26.409 23.733C26.511 23.874 26.6807 23.7726 26.7713 23.8856C26.8619 23.9985 26.9544 24.1219 26.9544 24.1219L26.9938 23.8077Z" fill="url(#paint26_linear_687_996)"/>
<path d="M27.0166 23.6041L26.6922 24.011C26.8304 24.609 27.1251 25.51 27.81 26.3854C28.5363 27.3132 30.0849 28.7026 31.0491 28.2471C31.6367 27.9694 32.4301 27.0168 32.1449 26.5574C31.8709 26.1158 30.6849 26.3245 29.8704 26.1406C29.072 25.9603 28.0357 25.3795 27.0166 23.6041Z" fill="url(#paint27_linear_687_996)"/>
<path d="M34.4608 27.1309C34.4608 27.1309 35.0925 29.2812 34.7011 30.1084C34.3098 30.9357 33.0618 30.0273 33.0618 30.0273L34.4608 27.1309Z" fill="url(#paint28_linear_687_996)"/>
<path d="M34.3437 27.1334C34.3437 27.1334 34.9755 29.2837 34.5841 30.111C34.1928 30.9382 32.9448 30.0297 32.9448 30.0297L34.3437 27.1334Z" fill="url(#paint29_linear_687_996)"/>
<path d="M32.4962 26.3358C31.6847 26.321 31.0601 26.3476 30.7143 26.7081C30.3493 27.0892 30.7355 27.5018 30.6754 28.4788C30.584 29.9745 29.6404 30.36 29.6016 31.8764C29.5925 32.274 29.6449 32.6706 29.7568 33.0523C29.9714 33.3077 30.3211 33.6672 30.8321 33.9631C31.5758 34.3937 31.9998 34.3065 33.06 34.572C34.7945 35.0063 34.9601 35.5649 35.812 35.4031C36.6729 35.2396 37.415 34.4959 37.3147 34.0986C37.2547 33.8607 36.9079 33.9361 36.4996 33.58C35.9725 33.1213 36.1621 32.6682 35.758 32.1717C35.1777 31.4585 34.4011 31.9192 33.9064 31.3007C33.406 30.6753 33.5717 29.4176 33.9669 28.7254C34.2256 28.2734 34.3284 27.748 34.5461 27.2751C34.5727 27.218 34.5822 27.1545 34.5734 27.0921C34.5298 26.7882 34.0182 26.634 33.6307 26.5211C33.0397 26.3489 32.5632 26.3368 32.4962 26.3358Z" fill="url(#paint30_linear_687_996)"/>
<path d="M31.7064 26.3195L31.8651 26.2667C31.8651 26.2667 31.9117 26.4824 32.4265 26.4982C32.5963 26.4945 32.7601 26.4347 32.8923 26.328L33.0033 26.4057C33.0033 26.4057 32.7704 26.7104 32.3887 26.7111C31.8969 26.712 31.7064 26.3195 31.7064 26.3195Z" fill="url(#paint31_linear_687_996)"/>
<path d="M31.8365 25.6235C31.793 25.3876 31.9254 25.185 31.9544 25.1413C32.0761 24.9587 32.1051 24.9343 32.1579 24.9062L32.2309 24.8699L32.2393 24.8675C32.2851 24.8559 32.4366 24.8651 32.4666 24.8744C32.5625 24.9041 32.6301 25.3119 32.549 25.8723L32.5606 26.0043C32.7788 25.9741 32.8419 25.9949 32.8532 26.0241C32.8774 26.0875 32.7255 26.4572 32.5176 26.5299C32.257 26.6213 31.8938 26.3832 31.8721 26.297C31.8633 26.2622 31.8648 26.2921 32.0422 26.1894C32.0587 26.1377 32.1094 25.9983 32.1257 25.9468C32.088 25.9229 31.8686 25.7973 31.8365 25.6235Z" fill="url(#paint32_linear_687_996)"/>
<path d="M32.1339 25.4336C32.1821 25.3788 32.2522 25.4409 32.2456 25.5168C32.239 25.5927 32.1582 25.6652 32.0881 25.6436C32.018 25.622 32.0692 25.5074 32.1339 25.4336Z" fill="url(#paint33_linear_687_996)"/>
<g style="mix-blend-mode:multiply" opacity="0.3">
<path d="M35.2026 34.1192C34.3864 33.577 33.6478 34.1968 33.0709 33.7196C32.5957 33.3261 32.9853 32.8139 32.4714 32.1208C31.9077 31.3615 31.1258 31.5557 30.9391 30.9883C30.7465 30.4019 31.5194 30.0039 31.5387 29.19C31.5485 28.7745 31.3619 28.2333 30.6167 27.5842C30.6568 27.821 30.6981 28.1098 30.6754 28.4793C30.584 29.9749 29.6404 30.3605 29.6016 31.8768C29.5925 32.2744 29.6449 32.6711 29.7568 33.0527C29.9714 33.3081 30.3211 33.6677 30.8321 33.9636C31.5758 34.3941 31.9998 34.3069 33.06 34.5724C34.7945 35.0068 34.9601 35.5653 35.812 35.4036C36.0574 35.3548 36.293 35.2656 36.5092 35.1396C36.2612 35.1008 36.0762 35.0166 35.9353 34.9197C35.5629 34.6607 35.6284 34.402 35.2026 34.1192Z" fill="url(#paint34_linear_687_996)"/>
</g>
<path d="M33.4859 23.8884C33.0426 23.9387 32.8918 23.5555 32.5001 23.6339C32.0071 23.7323 31.6203 24.4636 31.807 24.8293C31.9234 25.0576 32.2016 25.0204 32.3668 25.3126C32.4355 25.4342 32.4703 25.5862 32.4201 25.9485C32.2997 26.829 31.9521 26.9989 32.0735 27.3221C32.2232 27.7206 32.9049 27.869 33.3264 27.8562C33.4687 27.8519 33.8439 27.8405 34.1528 27.6018C34.4293 27.3881 34.4091 27.1804 34.6933 27.0469C34.9256 26.9377 35.0125 27.0417 35.3257 26.9659C35.5894 26.9021 36.0548 26.7007 36.1254 26.3809C36.2041 26.0247 35.7176 25.8617 35.7592 25.4069C35.7859 25.1128 35.9968 25.0991 36.0721 24.753C36.178 24.2668 35.8618 23.8344 35.8056 23.761C35.5519 23.427 35.0533 23.0889 34.5793 23.176C34.044 23.2742 34.0061 23.8294 33.4859 23.8884Z" fill="url(#paint35_linear_687_996)"/>
<defs>
<linearGradient id="paint0_linear_687_996" x1="44.3699" y1="4.23761" x2="38.0298" y2="10.3314" gradientUnits="userSpaceOnUse">
<stop stop-color="#FFC444"/>
<stop offset="1" stop-color="#F36F56"/>
</linearGradient>
<linearGradient id="paint1_linear_687_996" x1="25.5263" y1="5.62611" x2="47.0776" y2="40.8748" gradientUnits="userSpaceOnUse">
<stop stop-color="#FFC444"/>
<stop offset="1" stop-color="#F36F56"/>
</linearGradient>
<linearGradient id="paint2_linear_687_996" x1="36.9542" y1="25.6953" x2="19.4514" y2="-9.49932" gradientUnits="userSpaceOnUse">
<stop stop-color="#FFC444"/>
<stop offset="1" stop-color="#F36F56"/>
</linearGradient>
<linearGradient id="paint3_linear_687_996" x1="23.823" y1="18.8675" x2="40.7229" y2="18.8675" gradientUnits="userSpaceOnUse">
<stop stop-color="#311944"/>
<stop offset="1" stop-color="#893976"/>
</linearGradient>
<linearGradient id="paint4_linear_687_996" x1="37.6559" y1="10.1482" x2="30.7052" y2="22.9963" gradientUnits="userSpaceOnUse">
<stop stop-color="#E38DDD"/>
<stop offset="1" stop-color="#9571F6"/>
</linearGradient>
<linearGradient id="paint5_linear_687_996" x1="29.7539" y1="7.30305" x2="33.3382" y2="23.6197" gradientUnits="userSpaceOnUse">
<stop stop-color="#E38DDD"/>
<stop offset="1" stop-color="#9571F6"/>
</linearGradient>
<linearGradient id="paint6_linear_687_996" x1="35.6474" y1="9.06181" x2="28.6969" y2="21.9099" gradientUnits="userSpaceOnUse">
<stop stop-color="#E38DDD"/>
<stop offset="1" stop-color="#9571F6"/>
</linearGradient>
<linearGradient id="paint7_linear_687_996" x1="7.09906" y1="29.9558" x2="31.2797" y2="29.9558" gradientUnits="userSpaceOnUse">
<stop stop-color="#444B8C"/>
<stop offset="1" stop-color="#26264F"/>
</linearGradient>
<linearGradient id="paint8_linear_687_996" x1="7.09906" y1="39.2533" x2="43.5261" y2="39.2533" gradientUnits="userSpaceOnUse">
<stop stop-color="#444B8C"/>
<stop offset="1" stop-color="#26264F"/>
</linearGradient>
<linearGradient id="paint9_linear_687_996" x1="11.6672" y1="20.6449" x2="22.2159" y2="20.6449" gradientUnits="userSpaceOnUse">
<stop stop-color="#AB316D"/>
<stop offset="1" stop-color="#792D3D"/>
</linearGradient>
<linearGradient id="paint10_linear_687_996" x1="20.406" y1="14.7697" x2="12.0359" y2="30.5799" gradientUnits="userSpaceOnUse">
<stop stop-color="#FF9085"/>
<stop offset="1" stop-color="#FB6FBB"/>
</linearGradient>
<linearGradient id="paint11_linear_687_996" x1="17.642" y1="22.0843" x2="16.9968" y2="16.9587" gradientUnits="userSpaceOnUse">
<stop stop-color="#311944"/>
<stop offset="1" stop-color="#6B3976"/>
</linearGradient>
<linearGradient id="paint12_linear_687_996" x1="17.532" y1="22.0981" x2="16.8869" y2="16.9726" gradientUnits="userSpaceOnUse">
<stop stop-color="#311944"/>
<stop offset="1" stop-color="#6B3976"/>
</linearGradient>
<linearGradient id="paint13_linear_687_996" x1="17.4091" y1="23.0215" x2="17.5267" y2="26.7959" gradientUnits="userSpaceOnUse">
<stop stop-color="#FFC444"/>
<stop offset="1" stop-color="#F36F56"/>
</linearGradient>
<linearGradient id="paint14_linear_687_996" x1="17.5385" y1="23.9576" x2="17.6464" y2="20.6863" gradientUnits="userSpaceOnUse">
<stop stop-color="#AB316D"/>
<stop offset="1" stop-color="#792D3D"/>
</linearGradient>
<linearGradient id="paint15_linear_687_996" x1="17.3198" y1="21.199" x2="17.462" y2="19.0225" gradientUnits="userSpaceOnUse">
<stop stop-color="#AB316D"/>
<stop offset="1" stop-color="#792D3D"/>
</linearGradient>
<linearGradient id="paint16_linear_687_996" x1="18.3136" y1="21.256" x2="18.4557" y2="19.0803" gradientUnits="userSpaceOnUse">
<stop stop-color="#AB316D"/>
<stop offset="1" stop-color="#792D3D"/>
</linearGradient>
<linearGradient id="paint17_linear_687_996" x1="16.3742" y1="21.1485" x2="16.5157" y2="18.9821" gradientUnits="userSpaceOnUse">
<stop stop-color="#AB316D"/>
<stop offset="1" stop-color="#792D3D"/>
</linearGradient>
<linearGradient id="paint18_linear_687_996" x1="17.3499" y1="20.4126" x2="17.4496" y2="16.3584" gradientUnits="userSpaceOnUse">
<stop stop-color="#FFC444"/>
<stop offset="1" stop-color="#F36F56"/>
</linearGradient>
<linearGradient id="paint19_linear_687_996" x1="30.4391" y1="39.9465" x2="30.6743" y2="42.9404" gradientUnits="userSpaceOnUse">
<stop stop-color="#26264F"/>
<stop offset="1" stop-color="#444B8C"/>
</linearGradient>
<linearGradient id="paint20_linear_687_996" x1="31.0464" y1="41.6133" x2="31.0035" y2="38.5126" gradientUnits="userSpaceOnUse">
<stop stop-color="#AB316D"/>
<stop offset="1" stop-color="#792D3D"/>
</linearGradient>
<linearGradient id="paint21_linear_687_996" x1="34.8845" y1="39.5973" x2="35.1197" y2="42.591" gradientUnits="userSpaceOnUse">
<stop stop-color="#26264F"/>
<stop offset="1" stop-color="#444B8C"/>
</linearGradient>
<linearGradient id="paint22_linear_687_996" x1="35.1203" y1="41.5571" x2="35.0775" y2="38.4563" gradientUnits="userSpaceOnUse">
<stop stop-color="#AB316D"/>
<stop offset="1" stop-color="#792D3D"/>
</linearGradient>
<linearGradient id="paint23_linear_687_996" x1="30.3063" y1="36.5901" x2="32.5989" y2="36.5901" gradientUnits="userSpaceOnUse">
<stop stop-color="#E38DDD"/>
<stop offset="1" stop-color="#9571F6"/>
</linearGradient>
<linearGradient id="paint24_linear_687_996" x1="30.4648" y1="36.5902" x2="32.599" y2="36.5902" gradientUnits="userSpaceOnUse">
<stop stop-color="#E38DDD"/>
<stop offset="1" stop-color="#9571F6"/>
</linearGradient>
<linearGradient id="paint25_linear_687_996" x1="30.9427" y1="36.3641" x2="35.5581" y2="36.3641" gradientUnits="userSpaceOnUse">
<stop stop-color="#E38DDD"/>
<stop offset="1" stop-color="#9571F6"/>
</linearGradient>
<linearGradient id="paint26_linear_687_996" x1="26.3014" y1="22.6589" x2="27.6431" y2="26.4308" gradientUnits="userSpaceOnUse">
<stop stop-color="#AB316D"/>
<stop offset="1" stop-color="#792D3D"/>
</linearGradient>
<linearGradient id="paint27_linear_687_996" x1="29.5846" y1="25.8821" x2="31.9448" y2="34.809" gradientUnits="userSpaceOnUse">
<stop stop-color="#FFC444"/>
<stop offset="1" stop-color="#F36F56"/>
</linearGradient>
<linearGradient id="paint28_linear_687_996" x1="33.0364" y1="28.8211" x2="34.8185" y2="28.7822" gradientUnits="userSpaceOnUse">
<stop stop-color="#FFC444"/>
<stop offset="1" stop-color="#F36F56"/>
</linearGradient>
<linearGradient id="paint29_linear_687_996" x1="32.9194" y1="28.8237" x2="34.7016" y2="28.7848" gradientUnits="userSpaceOnUse">
<stop stop-color="#FFC444"/>
<stop offset="1" stop-color="#F36F56"/>
</linearGradient>
<linearGradient id="paint30_linear_687_996" x1="31.3772" y1="25.408" x2="33.7374" y2="34.3349" gradientUnits="userSpaceOnUse">
<stop stop-color="#FFC444"/>
<stop offset="1" stop-color="#F36F56"/>
</linearGradient>
<linearGradient id="paint31_linear_687_996" x1="31.8881" y1="25.6549" x2="32.6163" y2="26.7584" gradientUnits="userSpaceOnUse">
<stop stop-color="#FF9085"/>
<stop offset="1" stop-color="#FB6FBB"/>
</linearGradient>
<linearGradient id="paint32_linear_687_996" x1="32.519" y1="25.331" x2="32.1493" y2="26.8529" gradientUnits="userSpaceOnUse">
<stop stop-color="#AB316D"/>
<stop offset="1" stop-color="#792D3D"/>
</linearGradient>
<linearGradient id="paint33_linear_687_996" x1="32.1498" y1="25.1635" x2="32.1444" y2="26.5875" gradientUnits="userSpaceOnUse">
<stop stop-color="#AB316D"/>
<stop offset="1" stop-color="#792D3D"/>
</linearGradient>
<linearGradient id="paint34_linear_687_996" x1="30.8722" y1="25.5416" x2="33.2324" y2="34.4685" gradientUnits="userSpaceOnUse">
<stop stop-color="#FFC444"/>
<stop offset="1" stop-color="#F36F56"/>
</linearGradient>
<linearGradient id="paint35_linear_687_996" x1="31.759" y1="25.5095" x2="36.1341" y2="25.5095" gradientUnits="userSpaceOnUse">
<stop stop-color="#311944"/>
<stop offset="1" stop-color="#6B3976"/>
</linearGradient>
</defs>
</svg>
