<svg width="79" height="40" viewBox="0 0 79 40" fill="none" xmlns="http://www.w3.org/2000/svg">
<g clip-path="url(#clip0_1076_931)">
<path d="M27.5187 40L9.70467 17.2025V40H0V0H8.80732L26.6546 22.7557V0H36.3593V40H27.5187Z" fill="white"/>
<path d="M42.7404 40V29.3946H67.3344C67.8662 29.4363 68.5641 29.3946 68.9297 28.9353C69.1624 28.6848 69.2953 28.0585 69.2953 27.2234C69.2953 26.3883 69.1624 25.762 68.9297 25.5115C68.5309 25.094 67.833 25.0104 67.3344 25.0104H53.0433C49.6866 25.0104 47.0278 23.9666 45.0669 21.8789C43.0395 19.7077 42.0425 16.5762 42.0425 12.4843C42.0425 8.39249 43.0728 5.30271 45.0669 3.13152C46.9945 1.04384 49.6866 0 53.0433 0H77.1056V10.6054H53.708C53.2095 10.5637 52.4783 10.6054 52.0795 11.0647C51.8136 11.357 51.7472 12.0251 51.7472 12.5261C51.7472 13.0271 51.8136 13.6952 52.0795 13.9875C52.5116 14.405 53.2095 14.4885 53.708 14.4885H67.9991C71.3559 14.4885 74.048 15.5741 75.9756 17.7036C77.9697 19.8747 79 23.0898 79 27.2651C79 31.4405 77.9697 34.572 75.9756 36.785C74.048 38.9144 71.3559 40.0418 67.9991 40.0418H42.7404V40Z" fill="white"/>
</g>
<defs>
<clipPath id="clip0_1076_931">
<rect width="79" height="40" fill="white"/>
</clipPath>
</defs>
</svg>
