<svg width="56" height="43" viewBox="0 0 56 43" fill="none" xmlns="http://www.w3.org/2000/svg">
<path d="M36.1677 42.656C35.6343 42.656 35.3677 42.3893 35.3677 41.856V35.84C35.3677 35.5627 35.3783 35.3387 35.3997 35.168C35.4423 34.9973 35.5703 34.8587 35.7837 34.752L44.1677 30.912V25.216L35.9117 20.096C35.549 19.8827 35.3677 19.5627 35.3677 19.136V7.392C35.3677 7.05067 35.389 6.80533 35.4317 6.656C35.4743 6.48533 35.6343 6.304 35.9117 6.112L44.3277 0.416C44.541 0.287999 44.733 0.191999 44.9037 0.127998C45.0957 0.0426661 45.3303 0 45.6077 0H54.2477C54.781 0 55.0477 0.266666 55.0477 0.799999V6.24C55.0477 6.70933 54.8877 7.02933 54.5677 7.2L46.1837 10.656V16.576L54.5677 21.376C54.8877 21.5253 55.0477 21.8667 55.0477 22.4V36.32C55.0477 36.4907 55.0157 36.672 54.9517 36.864C54.909 37.056 54.8023 37.1947 54.6317 37.28L44.5837 42.272C44.4557 42.336 44.2957 42.4213 44.1037 42.528C43.933 42.6133 43.7623 42.656 43.5917 42.656H36.1677Z" fill="white"/>
<path d="M1.75264 42.656C1.2193 42.656 0.952637 42.3893 0.952637 41.856V0.799999C0.952637 0.266666 1.2193 0 1.75264 0H19.9286C20.4406 0 20.8673 0.170667 21.2086 0.512001L27.6086 6.912C27.9713 7.27467 28.1526 7.70133 28.1526 8.192V41.856C28.1526 42.3893 27.886 42.656 27.3526 42.656H18.2966C17.7633 42.656 17.4966 42.3893 17.4966 41.856V8.512H11.6086V41.856C11.6086 42.3893 11.342 42.656 10.8086 42.656H1.75264Z" fill="white"/>
</svg>
