<svg width="48" height="48" viewBox="0 0 48 48" fill="none" xmlns="http://www.w3.org/2000/svg">
<path d="M24 20C24 21.0609 24.4214 22.0783 25.1716 22.8284C25.9217 23.5786 26.9391 24 28 24C29.0609 24 30.0783 23.5786 30.8284 22.8284C31.5786 22.0783 32 21.0609 32 20C32 18.9391 31.5786 17.9217 30.8284 17.1716C30.0783 16.4214 29.0609 16 28 16C26.9391 16 25.9217 16.4214 25.1716 17.1716C24.4214 17.9217 24 18.9391 24 20Z" stroke="black" stroke-width="1.5" stroke-linecap="round" stroke-linejoin="round"/>
<path d="M42 24C42 26.3638 41.5344 28.7044 40.6298 30.8883C39.7252 33.0722 38.3994 35.0565 36.7279 36.7279C35.0565 38.3994 33.0722 39.7252 30.8883 40.6298C28.7044 41.5344 26.3638 42 24 42C21.6362 42 19.2956 41.5344 17.1117 40.6298C14.9278 39.7252 12.9435 38.3994 11.2721 36.7279C9.60062 35.0565 8.27475 33.0722 7.37017 30.8883C6.46558 28.7044 6 26.3638 6 24C6 19.2261 7.89642 14.6477 11.2721 11.2721C14.6477 7.89642 19.2261 6 24 6C28.7739 6 33.3523 7.89642 36.7279 11.2721C40.1036 14.6477 42 19.2261 42 24Z" stroke="black" stroke-width="1.5" stroke-linecap="round" stroke-linejoin="round"/>
<path d="M25 23L17 31L20 34" stroke="black" stroke-width="1.5" stroke-linecap="round" stroke-linejoin="round"/>
<path d="M24 30L21 27" stroke="black" stroke-width="1.5" stroke-linecap="round" stroke-linejoin="round"/>
</svg>
