<svg width="21" height="20" viewBox="0 0 21 20" fill="none" xmlns="http://www.w3.org/2000/svg">
<g clip-path="url(#clip0_690_4208)">
<path style="mix-blend-mode:multiply" d="M20.3839 11.5006C21.2145 6.04059 17.4617 0.941003 12.0016 0.110377C6.54161 -0.720249 1.44203 3.03262 0.611403 8.49265C-0.219223 13.9527 3.53365 19.0523 8.99368 19.8829C14.4537 20.7135 19.5533 16.9606 20.3839 11.5006Z" fill="url(#paint0_radial_690_4208)"/>
<path d="M16.1292 15.9102H9.03687L7.31347 17.8764L5.49146 15.9102C4.6488 15.9079 3.84126 15.5723 3.24513 14.9767C2.649 14.3811 2.31268 13.5739 2.30957 12.7312V6.56762C2.31229 5.72471 2.64844 4.91711 3.24462 4.32121C3.84079 3.72532 4.64854 3.38954 5.49146 3.38721H16.1292C16.9719 3.38954 17.7795 3.72536 18.3755 4.3213C18.9714 4.91724 19.3072 5.72484 19.3096 6.56762V12.7312C19.3065 13.5737 18.9703 14.3807 18.3745 14.9762C17.7787 15.5717 16.9716 15.9075 16.1292 15.9102Z" fill="#8277FF"/>
<path d="M12.0669 12.1014H10.1139L9.72244 12.9476H7.78857L11.0499 6.4455H11.1382L14.3981 12.9476H12.4657L12.0669 12.1014ZM10.6334 10.8901H11.5592C11.3853 10.5013 11.234 10.1028 11.1059 9.69656H11.0882C10.9585 10.1028 10.8057 10.5013 10.6305 10.8901H10.6334Z" fill="#675AFA"/>
<path d="M11.7798 11.704H9.82974L9.43825 12.5503H7.50439L10.7658 6.04962H10.8541L14.114 12.5517H12.1816L11.7798 11.704ZM10.3463 10.4928H11.272C11.0982 10.1039 10.9469 9.70542 10.8187 9.29921H10.8011C10.6723 9.70541 10.5205 10.1039 10.3463 10.4928Z" fill="white"/>
<path d="M9.36035 3.88323H14.6292C15.4239 3.88323 17.2636 3.73605 17.736 4.45426C17.736 4.45426 16.5424 4.33063 13.8079 4.33063C11.0734 4.33063 9.36035 4.30561 9.36035 4.30561V3.88323Z" fill="#9C94FF"/>
</g>
<defs>
<radialGradient id="paint0_radial_690_4208" cx="0" cy="0" r="1" gradientUnits="userSpaceOnUse" gradientTransform="translate(10.4965 9.99982) scale(10)">
<stop stop-color="#B8B3FF"/>
<stop offset="1" stop-color="white"/>
</radialGradient>
<clipPath id="clip0_690_4208">
<rect width="20" height="20" fill="white" transform="translate(0.5)"/>
</clipPath>
</defs>
</svg>
