<svg width="51" height="48" viewBox="0 0 51 48" fill="none" xmlns="http://www.w3.org/2000/svg">
<path d="M26.1812 22.4833H24.8188V37.9516H26.1812V22.4833Z" fill="#3A7F91"/>
<path d="M33.6618 35.0987H35.0242V30.8434H30.9131V22.4833H29.5508V32.2037H33.6618V35.0987Z" fill="#3A7F91"/>
<path d="M17.3381 35.0987V32.2037H21.4552V22.4833H20.0929V30.8434H15.9758V35.0987H17.3381Z" fill="#3A7F91"/>
<path d="M34.7227 27.7738H42.0105V32.0953H43.3729V26.4196H36.079V21.8092H33.3665V23.1634H34.7227V27.7738Z" fill="#3A7F91"/>
<path d="M8.9955 32.0953V27.7738H16.2833V23.1634H17.6335V21.8092H14.921V26.4196H7.63318V32.0953H8.9955Z" fill="#3A7F91"/>
<path d="M10.0503 31.6499L8.3143 33.3833L6.57825 31.6499H10.0503Z" fill="#3A7F91"/>
<path d="M44.4278 31.6499L42.6918 33.3833L40.9497 31.6499H44.4278Z" fill="#3A7F91"/>
<path d="M18.4774 34.4366L16.7353 36.1701L14.9993 34.4366H18.4774Z" fill="#3A7F91"/>
<path d="M36.079 34.4366L34.343 36.1701L32.6069 34.4366H36.079Z" fill="#3A7F91"/>
<path d="M27.236 37.2233L25.5 38.9567L23.7639 37.2233H27.236Z" fill="#3A7F91"/>
<path d="M25.3071 39.4743C25.2583 39.4129 25.1971 39.3625 25.1275 39.3262C25.058 39.2899 24.9815 39.2686 24.9032 39.2637H23.7519C23.6733 39.2678 23.5966 39.2888 23.527 39.3251C23.4573 39.3615 23.3962 39.4124 23.348 39.4743L23.1551 39.7512H22.8055C22.7367 39.7512 22.6708 39.7785 22.6222 39.827C22.5736 39.8755 22.5463 39.9414 22.5463 40.01V43.6213C22.5463 43.6553 22.553 43.6889 22.566 43.7203C22.579 43.7517 22.5981 43.7803 22.6222 43.8043C22.6463 43.8283 22.6748 43.8474 22.7063 43.8604C22.7377 43.8734 22.7714 43.8801 22.8055 43.8801H28.2005C28.2345 43.8801 28.2682 43.8734 28.2997 43.8604C28.3311 43.8474 28.3597 43.8283 28.3838 43.8043C28.4078 43.7803 28.4269 43.7517 28.4399 43.7203C28.453 43.6889 28.4597 43.6553 28.4597 43.6213V40.01C28.4597 39.9414 28.4324 39.8755 28.3838 39.827C28.3352 39.7785 28.2692 39.7512 28.2005 39.7512H25.5L25.3071 39.4743Z" fill="#F99B1D"/>
<path d="M34.337 36.8381C34.2894 36.7769 34.2293 36.7264 34.1607 36.6901C34.0922 36.6538 34.0166 36.6324 33.9392 36.6274H32.7878C32.7093 36.6316 32.6326 36.6526 32.5629 36.6889C32.4933 36.7253 32.4322 36.7761 32.384 36.8381L32.185 37.115H31.8354C31.8016 37.115 31.7682 37.1217 31.7371 37.1348C31.706 37.1478 31.6778 37.167 31.6542 37.1911C31.6306 37.2152 31.6121 37.2438 31.5997 37.2752C31.5874 37.3066 31.5814 37.3401 31.5822 37.3738V40.9851C31.5814 41.0188 31.5874 41.0523 31.5997 41.0836C31.6121 41.115 31.6306 41.1436 31.6542 41.1677C31.6778 41.1918 31.706 41.211 31.7371 41.2241C31.7682 41.2371 31.8016 41.2439 31.8354 41.2439H37.2606C37.2943 41.2439 37.3277 41.2371 37.3589 41.2241C37.39 41.211 37.4182 41.1918 37.4417 41.1677C37.4653 41.1436 37.4839 41.115 37.4962 41.0836C37.5086 41.0523 37.5145 41.0188 37.5137 40.9851V37.3738C37.5145 37.3401 37.5086 37.3066 37.4962 37.2752C37.4839 37.2438 37.4653 37.2152 37.4417 37.1911C37.4182 37.167 37.39 37.1478 37.3589 37.1348C37.3277 37.1217 37.2943 37.115 37.2606 37.115H34.56L34.337 36.8381Z" fill="#F99B1D"/>
<path d="M16.2713 36.8381C16.223 36.7761 16.162 36.7253 16.0923 36.6889C16.0226 36.6526 15.9459 36.6316 15.8674 36.6274H14.7161C14.559 36.6422 14.414 36.7178 14.3122 36.8381L14.1193 37.115H13.7697C13.701 37.115 13.635 37.1422 13.5864 37.1908C13.5378 37.2393 13.5105 37.3051 13.5105 37.3738V40.9851C13.5105 41.0537 13.5378 41.1195 13.5864 41.1681C13.635 41.2166 13.701 41.2439 13.7697 41.2439H19.1647C19.1987 41.2439 19.2324 41.2372 19.2639 41.2242C19.2953 41.2112 19.3239 41.1921 19.348 41.1681C19.3721 41.144 19.3912 41.1155 19.4042 41.0841C19.4172 41.0527 19.4239 41.019 19.4239 40.9851V37.3738C19.4239 37.3398 19.4172 37.3061 19.4042 37.2747C19.3912 37.2433 19.3721 37.2148 19.348 37.1908C19.3239 37.1667 19.2953 37.1477 19.2639 37.1347C19.2324 37.1216 19.1987 37.115 19.1647 37.115H16.4702L16.2713 36.8381Z" fill="#F99B1D"/>
<path d="M42.7701 34.2019C42.6683 34.0816 42.5233 34.006 42.3663 33.9912H41.2149C41.1364 33.9954 41.0597 34.0163 40.99 34.0527C40.9204 34.089 40.8593 34.1399 40.8111 34.2019L40.6121 34.4787H40.2625C40.2288 34.4787 40.1953 34.4855 40.1642 34.4985C40.1331 34.5116 40.1049 34.5308 40.0813 34.5549C40.0577 34.579 40.0392 34.6076 40.0269 34.639C40.0145 34.6703 40.0085 34.7038 40.0093 34.7375V38.3488C40.0085 38.3825 40.0145 38.4161 40.0269 38.4474C40.0392 38.4788 40.0577 38.5074 40.0813 38.5315C40.1049 38.5556 40.1331 38.5747 40.1642 38.5878C40.1953 38.6009 40.2288 38.6076 40.2625 38.6076H45.6877C45.7214 38.6076 45.7549 38.6009 45.786 38.5878C45.8171 38.5747 45.8453 38.5556 45.8689 38.5315C45.8925 38.5074 45.911 38.4788 45.9233 38.4474C45.9357 38.4161 45.9417 38.3825 45.9408 38.3488V34.7375C45.9417 34.7038 45.9357 34.6703 45.9233 34.639C45.911 34.6076 45.8925 34.579 45.8689 34.5549C45.8453 34.5308 45.8171 34.5116 45.786 34.4985C45.7549 34.4855 45.7214 34.4787 45.6877 34.4787H42.9872L42.7701 34.2019Z" fill="#F99B1D"/>
<path d="M7.84412 34.2019C7.79532 34.1405 7.73416 34.09 7.66459 34.0537C7.59502 34.0174 7.51859 33.9961 7.44025 33.9912H6.28891C6.13187 34.006 5.98687 34.0816 5.88503 34.2019L5.69215 34.4787H5.33649C5.30273 34.4787 5.26931 34.4855 5.2382 34.4985C5.20708 34.5116 5.1789 34.5308 5.15531 34.5549C5.13172 34.579 5.1132 34.6076 5.10084 34.639C5.08847 34.6703 5.08252 34.7038 5.08332 34.7375V38.3488C5.08252 38.3825 5.08847 38.4161 5.10084 38.4474C5.1132 38.4788 5.13172 38.5074 5.15531 38.5315C5.1789 38.5556 5.20708 38.5747 5.2382 38.5878C5.26931 38.6009 5.30273 38.6076 5.33649 38.6076H10.7616C10.7954 38.6076 10.8288 38.6009 10.86 38.5878C10.8911 38.5747 10.9193 38.5556 10.9428 38.5315C10.9664 38.5074 10.9849 38.4788 10.9973 38.4474C11.0097 38.4161 11.0156 38.3825 11.0148 38.3488V34.7375C11.0156 34.7038 11.0097 34.6703 10.9973 34.639C10.9849 34.6076 10.9664 34.579 10.9428 34.5549C10.9193 34.5308 10.8911 34.5116 10.86 34.4985C10.8288 34.4855 10.7954 34.4787 10.7616 34.4787H8.06113L7.84412 34.2019Z" fill="#F99B1D"/>
<path d="M37.6464 11.3726C37.4974 9.82841 36.9016 8.36093 35.9317 7.14907C34.9617 5.93722 33.6595 5.03337 32.1839 4.54778C30.7083 4.0622 29.1231 4.01585 27.6216 4.4144C26.1201 4.81294 24.7672 5.63915 23.7279 6.79226C22.8093 6.41802 21.8229 6.23826 20.8312 6.26438C19.8394 6.2905 18.8639 6.52191 17.9664 6.94398C17.0688 7.36604 16.2688 7.96955 15.617 8.71632C14.9652 9.46309 14.4757 10.3368 14.1796 11.2823C12.6345 11.3778 11.1866 12.0672 10.1398 13.2059C9.09295 14.3445 8.52862 15.8439 8.56528 17.3891C8.60194 18.9343 9.23674 20.4053 10.3364 21.4932C11.4361 22.5811 12.9151 23.2013 14.4629 23.2236H36.5373C38.0295 23.2252 39.4684 22.6702 40.5721 21.6674C41.6758 20.6647 42.3645 19.2865 42.5034 17.803C42.6422 16.3195 42.2211 14.8378 41.3226 13.6482C40.4241 12.4587 39.1131 11.6471 37.6464 11.3726Z" fill="#A3B5C6"/>
<path d="M28.0016 40.4374L23.6434 43.4107H28.0016V40.4374Z" fill="#3A7F91"/>
<path d="M18.9717 37.8011L14.6074 40.7744H18.9717V37.8011Z" fill="#14B0BF"/>
<path d="M45.4646 35.1589L41.1003 38.1322H45.4646V35.1589Z" fill="white"/>
<path d="M10.5387 35.1649L6.17444 38.1322H10.5387V35.1649Z" fill="#A55353"/>
<path d="M21.0092 7.62277C19.7741 7.61894 18.5706 8.01182 17.5763 8.7434C16.582 9.47498 15.8497 10.5065 15.4876 11.6855L15.2043 12.6003L14.2458 12.6485C13.0228 12.6772 11.8613 13.1899 11.0169 14.0737C10.1724 14.9575 9.7142 16.14 9.74298 17.3612C9.77175 18.5824 10.2852 19.7421 11.1703 20.5853C12.0555 21.4284 13.2398 21.886 14.4629 21.8573H28.7853C30.6001 19.5309 31.5901 16.6688 31.5999 13.72C31.6098 10.7713 30.6388 7.90265 28.8395 5.56433C27.2605 5.76064 25.8063 6.52191 24.7465 7.70703L24.1015 8.42326L23.2094 8.0501C22.5106 7.76703 21.7634 7.62191 21.0092 7.62277Z" fill="#B8C7D8"/>
<path d="M16.3073 10.0485C15.9489 10.5474 15.6722 11.1 15.4875 11.6856L15.2042 12.6004L14.2457 12.6486C13.0524 12.6954 11.9238 13.2027 11.0974 14.0636C10.2711 14.9246 9.81155 16.072 9.81545 17.2645C9.81936 18.4569 10.2865 19.6014 11.1184 20.4569C11.9503 21.3124 13.0822 21.8123 14.2759 21.8513C15.5082 20.1761 16.3333 18.2376 16.6859 16.1891C17.0384 14.1406 16.9088 12.0383 16.3073 10.0485Z" fill="#D3DCE5"/>
</svg>
