<svg width="63" height="48" viewBox="0 0 63 48" fill="none" xmlns="http://www.w3.org/2000/svg">
<g clip-path="url(#clip0_689_2027)">
<path d="M56.4802 17.9909H55.8626V17.373H56.4802V17.9909ZM56.4802 16.7516H55.8626V16.1337H56.4802V16.7516ZM56.4802 15.5157H55.8626V14.8943H56.4802V15.5157ZM56.4802 14.2764H55.8626V13.655H56.4802V14.2764ZM18.5077 13.3426H17.8936V12.7247H18.5077V13.3426ZM56.4802 13.0371H55.8626V12.4192H56.4802V13.0371ZM18.5077 12.1067H17.8936V11.4715H18.5077V12.1067ZM56.4802 11.7978H55.8626V11.1799H56.4802V11.7978ZM18.5077 10.8674H17.8936V10.246H18.5077V10.8674ZM56.4802 10.5585H55.8626V10.0829C55.8626 10.0447 55.8626 10.01 55.8626 9.97527L56.4767 9.92666C56.4767 9.97873 56.4767 10.0308 56.4767 10.0829L56.4802 10.5585ZM18.556 9.71143L17.9591 9.55522C18.019 9.31902 18.1207 9.09559 18.2593 8.89563L18.763 9.24278C18.6657 9.38471 18.5955 9.54364 18.556 9.71143ZM55.735 9.4719C55.665 9.31693 55.568 9.17584 55.4486 9.05533L55.8867 8.61792C56.0557 8.79178 56.1935 8.9938 56.2939 9.21501L55.735 9.4719ZM19.1149 8.8887L18.7699 8.38186C18.9669 8.24077 19.1879 8.13722 19.422 8.07637L19.5807 8.67347C19.4144 8.71794 19.2568 8.79073 19.1149 8.8887ZM55.0346 8.76025C54.8808 8.69008 54.7163 8.64666 54.5481 8.63181L54.5998 8.01389C54.8391 8.03435 55.0728 8.09784 55.2899 8.20134L55.0346 8.76025ZM53.9581 8.62486H53.3405V8H53.9616L53.9581 8.62486ZM52.7264 8.62486H52.1123V8H52.7264V8.62486ZM51.4947 8.62486H50.8806V8H51.4947V8.62486ZM50.263 8.62486H49.6489V8H50.263V8.62486ZM49.0347 8.62486H48.4172V8H49.0347V8.62486ZM47.803 8.62486H47.1854V8H47.803V8.62486ZM46.5713 8.62486H45.9572V8H46.5713V8.62486ZM45.3396 8.62486H44.7255V8H45.3362L45.3396 8.62486ZM44.1079 8.62486H43.4938V8H44.1079V8.62486ZM42.8796 8.62486H42.2621V8H42.8796V8.62486ZM41.648 8.62486H41.0304V8H41.648V8.62486ZM40.4162 8.62486H39.8159V8H40.43L40.4162 8.62486ZM39.1845 8.62486H38.5704V8H39.1845V8.62486ZM37.9528 8.62486H37.3387V8H37.9528V8.62486ZM36.7246 8.62486H36.107V8H36.7246V8.62486ZM35.4928 8.62486H34.8753V8H35.4928V8.62486ZM34.2611 8.62486H33.647V8H34.2611V8.62486ZM33.0294 8.62486H32.4153V8H33.0294V8.62486ZM31.7977 8.62486H31.1905V8H31.8046L31.7977 8.62486ZM30.566 8.62486H29.9519V8H30.566V8.62486ZM29.3378 8.62486H28.7202V8H29.3378V8.62486ZM28.1061 8.62486H27.4885V8H28.1061V8.62486ZM26.8743 8.62486H26.2602V8H26.8743V8.62486ZM25.6426 8.62486H25.0285V8H25.6426V8.62486ZM24.4109 8.62486H23.7968V8H24.4109V8.62486ZM23.1827 8.62486H22.5651V8H23.1827V8.62486ZM21.9509 8.62486H21.3334V8H21.9509V8.62486ZM20.7193 8.62486H20.1051V8H20.7193V8.62486Z" fill="#FCCD59"/>
<path d="M5.49363 15.9844C5.42808 15.2137 5.64198 15.2137 6.25956 15.2137H34.7752C35.3306 15.2137 35.5411 15.2901 35.5411 15.9844V35.7926H37.1868V14.2486C37.1868 14.0221 37.0974 13.8049 36.9382 13.6448C36.779 13.4846 36.5632 13.3947 36.3381 13.3947H4.69663C4.47153 13.3947 4.25564 13.4846 4.09647 13.6448C3.9373 13.8049 3.8479 14.0221 3.8479 14.2486V35.796H5.49363V15.9844Z" fill="#365370"/>
<path d="M34.7752 15.2102H6.25957C5.64199 15.2102 5.42809 15.2102 5.49364 15.9809V35.7891H35.5411V15.9843C35.5411 15.2901 35.3306 15.2102 34.7752 15.2102Z" fill="#E3E1DF"/>
<path d="M5.49364 15.5713V35.7892H35.5411C35.5411 35.7892 5.42808 14.8006 5.49364 15.5713Z" fill="#EEEEEE"/>
<path d="M39.281 35.7891H1.75363C1.57062 35.7891 1.39508 35.8623 1.26567 35.9925C1.13627 36.1227 1.0636 36.2993 1.0636 36.4834C1.0636 36.4834 1.61216 39.146 3.68226 40.0174H37.342C39.3638 39.7397 39.971 36.4834 39.971 36.4834C39.971 36.2993 39.8984 36.1227 39.769 35.9925C39.6396 35.8623 39.464 35.7891 39.281 35.7891Z" fill="#38597A"/>
<path d="M9.18188 17.3452H7.87427V18.6608H9.18188V17.3452Z" fill="#33AFBD"/>
<path d="M11.9109 17.3452H10.6033V18.6608H11.9109V17.3452Z" fill="#33AFBD"/>
<path d="M11.7212 20.0911H10.4136V21.4068H11.7212V20.0911Z" fill="#33AFBD"/>
<path d="M11.7212 22.719H10.4136V24.0347H11.7212V22.719Z" fill="#33AFBD"/>
<path d="M11.7212 25.6663H10.4136V26.982H11.7212V25.6663Z" fill="#33AFBD"/>
<path d="M9.18188 28.131H7.87427V29.4467H9.18188V28.131Z" fill="#33AFBD"/>
<path d="M9.18188 20.0911H7.87427V21.4068H9.18188V20.0911Z" fill="#33AFBD"/>
<path d="M9.18188 22.719H7.87427V24.0347H9.18188V22.719Z" fill="#33AFBD"/>
<path d="M9.18188 25.6663H7.87427V26.982H9.18188V25.6663Z" fill="#33AFBD"/>
<path d="M62.4041 38.6566C62.4087 38.8312 62.3791 39.005 62.3169 39.1681C62.2547 39.3312 62.1612 39.4803 62.0416 39.607C61.9221 39.7337 61.779 39.8355 61.6203 39.9065C61.4617 39.9775 61.2908 40.0163 61.1172 40.0208H51.2256C51.052 40.0163 50.8811 39.9775 50.7225 39.9065C50.5639 39.8355 50.4207 39.7337 50.3012 39.607C50.1817 39.4803 50.0882 39.3312 50.026 39.1681C49.9638 39.005 49.9341 38.8312 49.9387 38.6566V19.494C49.9341 19.3194 49.9638 19.1456 50.026 18.9825C50.0882 18.8194 50.1817 18.6703 50.3012 18.5436C50.4207 18.4169 50.5639 18.3151 50.7225 18.2441C50.8811 18.1731 51.052 18.1343 51.2256 18.1298H61.1172C61.2908 18.1343 61.4617 18.1731 61.6203 18.2441C61.779 18.3151 61.9221 18.4169 62.0416 18.5436C62.1612 18.6703 62.2547 18.8194 62.3169 18.9825C62.3791 19.1456 62.4087 19.3194 62.4041 19.494V38.6566Z" fill="#365370"/>
<path d="M56.1732 40.0208H51.2256C51.052 40.0163 50.8811 39.9775 50.7225 39.9065C50.5639 39.8355 50.4207 39.7337 50.3012 39.607C50.1817 39.4803 50.0882 39.3312 50.026 39.1681C49.9638 39.005 49.9341 38.8312 49.9387 38.6566V19.494C49.9341 19.3194 49.9638 19.1456 50.026 18.9825C50.0882 18.8194 50.1817 18.6703 50.3012 18.5436C50.4207 18.4169 50.5639 18.3151 50.7225 18.2441C50.8811 18.1731 51.052 18.1343 51.2256 18.1298H56.1732V40.0208Z" fill="#38597A"/>
<path d="M57.1426 37.5388C57.1426 37.7317 57.0857 37.9203 56.9792 38.0807C56.8727 38.2411 56.7213 38.3662 56.5441 38.44C56.367 38.5138 56.172 38.5331 55.984 38.4955C55.7959 38.4579 55.6231 38.365 55.4875 38.2285C55.352 38.0921 55.2597 37.9183 55.2223 37.7291C55.1848 37.5398 55.204 37.3437 55.2774 37.1655C55.3508 36.9872 55.4751 36.8349 55.6345 36.7277C55.7939 36.6205 55.9814 36.5633 56.1731 36.5633C56.4302 36.5633 56.6768 36.6661 56.8586 36.849C57.0405 37.0319 57.1426 37.2801 57.1426 37.5388Z" fill="#E3E1DF"/>
<path d="M56.1731 38.5143C55.916 38.5143 55.6694 38.4115 55.4876 38.2285C55.3057 38.0456 55.2036 37.7975 55.2036 37.5388C55.2036 37.2801 55.3057 37.0319 55.4876 36.849C55.6694 36.6661 55.916 36.5633 56.1731 36.5633V38.5143Z" fill="#EEEEEE"/>
<path d="M57.6151 19.2406H54.7307C54.7003 19.2406 54.6755 19.2655 54.6755 19.2961V19.7891C54.6755 19.8198 54.7003 19.8446 54.7307 19.8446H57.6151C57.6456 19.8446 57.6703 19.8198 57.6703 19.7891V19.2961C57.6703 19.2655 57.6456 19.2406 57.6151 19.2406Z" fill="#E3E1DF"/>
<path d="M62.0142 21.2957H50.3147V35.9037H62.0142V21.2957Z" fill="#E3E1DF"/>
<path d="M62.0142 35.9071H50.3147V21.2957L62.0142 35.9071Z" fill="#EEEEEE"/>
<path d="M25.1734 20.7437H20.5847V20.6639C20.5595 20.0715 20.3022 19.5131 19.869 19.1111C19.4358 18.709 18.862 18.496 18.2731 18.5185H17.5002C16.9113 18.496 16.3374 18.709 15.9042 19.1111C15.471 19.5131 15.2137 20.0715 15.1886 20.6639V22.4309C15.1886 22.5073 15.1886 22.5836 15.1886 22.66C15.1886 22.7364 15.1886 22.8128 15.1886 22.8891V30.3354C15.2128 30.9285 15.4698 31.4877 15.9031 31.8905C16.3364 32.2933 16.9107 32.5068 17.5002 32.4843H25.1734C25.7629 32.5068 26.3372 32.2933 26.7705 31.8905C27.2038 31.4877 27.4607 30.9285 27.485 30.3354V22.8891C27.4599 22.2967 27.2025 21.7383 26.7693 21.3363C26.3361 20.9342 25.7623 20.7212 25.1734 20.7437Z" fill="#FCCD59"/>
<path d="M16.1064 18.9525C15.8266 19.1411 15.5967 19.3956 15.4368 19.6939C15.2769 19.9921 15.1917 20.3251 15.1886 20.664V22.4309C15.1886 22.5073 15.1886 22.5837 15.1886 22.66C15.1886 22.7364 15.1886 22.8128 15.1886 22.8892V30.3355C15.2128 30.9285 15.4698 31.4877 15.9031 31.8905C16.3364 32.2933 16.9107 32.5069 17.5002 32.4843H25.1734L16.1064 18.9525Z" fill="#FFD96A"/>
<path d="M58.1017 25.1317H55.8074V25.0936C55.7957 24.7967 55.6674 24.5167 55.4507 24.3149C55.234 24.1131 54.9466 24.0061 54.6516 24.0174H54.2652C53.9701 24.0061 53.6827 24.1131 53.466 24.3149C53.2493 24.5167 53.121 24.7967 53.1094 25.0936V25.9753C53.1186 26.0514 53.1186 26.1283 53.1094 26.2044V29.9293C53.1219 30.2255 53.2506 30.5047 53.4672 30.7057C53.6838 30.9068 53.9707 31.0133 54.2652 31.002H58.1017C58.3959 31.0133 58.6824 30.9066 58.8985 30.7055C59.1145 30.5044 59.2424 30.2252 59.2541 29.9293V26.2044C59.2424 25.9085 59.1145 25.6293 58.8985 25.4282C58.6824 25.2271 58.3959 25.1205 58.1017 25.1317Z" fill="#FCCD59"/>
<path d="M53.5509 24.2361C53.4108 24.3306 53.2957 24.4581 53.2157 24.6075C53.1358 24.757 53.0933 24.9238 53.092 25.0935V25.9753C53.1012 26.0514 53.1012 26.1283 53.092 26.2044V29.9293C53.1046 30.2255 53.2333 30.5047 53.4499 30.7057C53.6665 30.9067 53.9534 31.0133 54.2478 31.002H58.1017L53.5509 24.2361Z" fill="#FFD96A"/>
<path d="M54.1616 26.4613H53.2749L54.0133 27.2007H22.5305L23.2654 26.4613H22.3787L21.3368 27.5097L22.3787 28.5615H23.2654L22.5305 27.8221H54.0133L53.2749 28.5615H54.1616L55.2036 27.5097L54.1616 26.4613Z" fill="#E1744D"/>
</g>
<defs>
<clipPath id="clip0_689_2027">
<rect width="62" height="48" fill="white" transform="translate(0.5)"/>
</clipPath>
</defs>
</svg>
