<svg width="49" height="48" viewBox="0 0 49 48" fill="none" xmlns="http://www.w3.org/2000/svg">
<path d="M42.4722 9.85413H35.4241L38.3613 12.7049V35.2951L35.4241 38.1517H42.4722V9.85413Z" fill="#8C9FAF"/>
<path d="M39.4808 12.7049L36.5436 9.85413H32.4328L35.37 12.7049V35.2951L32.4328 38.1517H36.5436L39.4808 35.2951V12.7049Z" fill="#B8C7D8"/>
<path d="M39.9322 12.7049L36.989 9.85413H35.1352L38.0784 12.7049V35.2951L35.1352 38.1517H36.995L39.9322 35.2951V12.7049Z" fill="#A3B5C6"/>
<path d="M36.5316 12.7108L33.5884 9.85413H14.1296C14.0099 9.85413 13.895 9.90029 13.8104 9.98245C13.7257 10.0646 13.6782 10.1761 13.6782 10.2923V37.7136C13.6782 37.8298 13.7257 37.9412 13.8104 38.0234C13.895 38.1056 14.0099 38.1517 14.1296 38.1517H33.5884L36.5316 35.2951V12.7108Z" fill="#D3DCE5"/>
<path d="M32.0476 31.2467H18.1622V32.8824H32.0476V31.2467Z" fill="white"/>
<path d="M32.0476 23.1851H18.1622V24.8208H32.0476V23.1851Z" fill="white"/>
<path d="M32.0476 15.1176H18.1622V16.7591H32.0476V15.1176Z" fill="white"/>
<path d="M42.4662 9.85413H38.578L41.5152 12.7108V35.2951L38.578 38.1693H42.4662C42.5859 38.1693 42.7007 38.1231 42.7853 38.0409C42.87 37.9588 42.9176 37.8473 42.9176 37.7311V10.2923C42.9176 10.1761 42.87 10.0646 42.7853 9.98245C42.7007 9.90029 42.5859 9.85413 42.4662 9.85413Z" fill="#788D9B"/>
<path d="M11.0059 9.85413H6.91307C6.65379 9.85413 6.4436 10.0581 6.4436 10.3098V14.2822C6.4436 14.5339 6.65379 14.7379 6.91307 14.7379H11.0059C11.2651 14.7379 11.4753 14.5339 11.4753 14.2822V10.3098C11.4753 10.0581 11.2651 9.85413 11.0059 9.85413Z" fill="#D3DCE5"/>
<path d="M6.4436 18.1144V22.0868C6.4436 22.2077 6.49307 22.3236 6.58111 22.409C6.66915 22.4945 6.78856 22.5425 6.91307 22.5425H11.036C11.1605 22.5425 11.2799 22.4945 11.3679 22.409C11.456 22.3236 11.5054 22.2077 11.5054 22.0868V18.1144C11.5054 17.9936 11.456 17.8777 11.3679 17.7922C11.2799 17.7068 11.1605 17.6588 11.036 17.6588H6.94317C6.87903 17.6548 6.81473 17.6636 6.75425 17.6847C6.69378 17.7058 6.6384 17.7387 6.59157 17.7815C6.54474 17.8242 6.50744 17.8758 6.48199 17.933C6.45654 17.9903 6.44347 18.0521 6.4436 18.1144Z" fill="#788D9B"/>
<path d="M9.91036 21.4852H8.02647C7.90196 21.4852 7.78255 21.4372 7.69451 21.3518C7.60647 21.2663 7.55701 21.1504 7.55701 21.0296V19.1777C7.55701 19.0569 7.60647 18.941 7.69451 18.8555C7.78255 18.7701 7.90196 18.722 8.02647 18.722H9.93443C10.0589 18.722 10.1784 18.7701 10.2664 18.8555C10.3544 18.941 10.4039 19.0569 10.4039 19.1777V21.0296C10.404 21.0914 10.3911 21.1526 10.366 21.2095C10.3409 21.2664 10.3042 21.3177 10.258 21.3603C10.2118 21.4029 10.1572 21.436 10.0974 21.4575C10.0377 21.4789 9.97401 21.4884 9.91036 21.4852Z" fill="#D3DCE5"/>
<path d="M11.0059 25.4575H6.91307C6.65379 25.4575 6.4436 25.6615 6.4436 25.9132V29.8856C6.4436 30.1372 6.65379 30.3413 6.91307 30.3413H11.0059C11.2651 30.3413 11.4753 30.1372 11.4753 29.8856V25.9132C11.4753 25.6615 11.2651 25.4575 11.0059 25.4575Z" fill="#D3DCE5"/>
<path d="M11.0059 33.2622H6.91307C6.65379 33.2622 6.4436 33.4662 6.4436 33.7179V37.6903C6.4436 37.9419 6.65379 38.1459 6.91307 38.1459H11.0059C11.2651 38.1459 11.4753 37.9419 11.4753 37.6903V33.7179C11.4753 33.4662 11.2651 33.2622 11.0059 33.2622Z" fill="#D3DCE5"/>
<path d="M8.94738 19.5398H7.98438V20.6673H8.94738V19.5398Z" fill="#788D9B"/>
<path d="M9.9345 20.1006L8.95343 21.0587V19.1426L9.9345 20.1006Z" fill="#788D9B"/>
</svg>
