<svg width="51" height="48" viewBox="0 0 51 48" fill="none" xmlns="http://www.w3.org/2000/svg">
<path d="M39.611 26.7245C39.5772 25.6994 39.2776 24.7007 38.7418 23.8259C38.2059 22.9512 37.452 22.2304 36.5539 21.7341C35.6557 21.2378 34.644 20.9828 33.6178 20.9943C32.5915 21.0057 31.5857 21.2832 30.6989 21.7994C29.8992 20.4153 28.7302 19.2806 27.3224 18.5221C25.9146 17.7637 24.3235 17.4113 22.7268 17.5045C21.1302 17.5976 19.5909 18.1325 18.2809 19.0495C16.971 19.9664 15.942 21.2293 15.3089 22.697C14.1663 21.9264 12.7914 21.5767 11.4192 21.7075C10.0471 21.8384 8.76307 22.4417 7.78703 23.4143C6.81098 24.3869 6.20355 25.6683 6.06872 27.0391C5.93388 28.4099 6.28001 29.7849 7.04787 30.9288C5.827 31.8189 4.91934 33.0723 4.45487 34.5094C3.99041 35.9466 3.99298 37.4937 4.46221 38.9293C4.93144 40.3648 5.84325 41.6152 7.06707 42.5013C8.29089 43.3874 9.76393 43.8637 11.2752 43.8621H38.2487C40.4139 43.8539 42.4971 43.0328 44.0848 41.5616C45.6726 40.0904 46.6491 38.0766 46.8206 35.9197C46.992 33.7627 46.346 31.6201 45.0106 29.9169C43.6751 28.2136 41.7479 27.0742 39.611 26.7245Z" fill="#E3E1DF"/>
<path d="M25.54 17.7986C24.7916 17.5822 24.015 17.4788 23.236 17.4917C21.551 17.4917 19.9028 17.9847 18.4948 18.9096C17.0867 19.8346 15.9804 21.1512 15.3123 22.697C14.1698 21.9265 12.7948 21.5767 11.4226 21.7075C10.0505 21.8384 8.76647 22.4417 7.79043 23.4143C6.81438 24.3869 6.20697 25.6683 6.07213 27.0391C5.9373 28.4099 6.28343 29.7849 7.05129 30.9288C5.83042 31.8189 4.92275 33.0723 4.45829 34.5094C3.99383 35.9466 3.9964 37.4937 4.46563 38.9293C4.93486 40.3649 5.84667 41.6152 7.07049 42.5013C8.2943 43.3874 9.76735 43.8637 11.2786 43.8621H23.6868H25.5467L25.54 17.7986Z" fill="#EEEEEE"/>
<path d="M31.7844 37.2819C32.2083 36.5557 32.5788 35.7995 32.893 35.0196C32.8696 34.9362 31.7744 34.7527 31.7911 34.6859C31.8078 34.6192 31.9747 32.8273 32.0215 32.7639C32.0682 32.7005 33.1434 32.764 33.1735 32.7172C33.2035 32.6705 32.6793 30.2781 32.6325 30.2547C32.5858 30.2314 31.6308 30.7052 31.5673 30.6952C31.1571 30.1186 30.7781 29.5205 30.4321 28.9033C30.4321 28.8566 31.2835 28.236 31.2835 28.1292C30.6446 27.5799 29.9758 27.0663 29.2801 26.5909C29.2366 26.5909 28.8059 27.5719 28.7525 27.6153C28.699 27.6587 28.0279 27.2817 27.6339 27.1682C27.3333 27.0815 26.7557 27.0114 26.7256 26.9813C26.6956 26.9513 26.9126 25.8735 26.8725 25.8402C26.0317 25.8333 25.1912 25.8734 24.3548 25.9603C24.3281 26.0204 24.6387 27.0214 24.6086 27.0814C23.9725 27.3905 23.3205 27.6656 22.6552 27.9056C22.6051 27.9056 22.141 26.9547 22.0308 26.9346C21.9206 26.9146 20.2143 28.5196 20.1809 28.6497C20.1475 28.7799 21.0992 29.2937 21.1025 29.3438C21.1059 29.3938 20.1642 31.2224 20.1375 31.2324C19.7788 31.0979 19.4119 30.9865 19.039 30.8987C18.9221 30.9321 18.705 33.3612 18.7317 33.3979C18.7585 33.4346 19.8403 33.3112 19.8838 33.3379C19.9272 33.3646 20.3946 35.3399 20.3679 35.3967C20.3412 35.4534 19.3361 35.7971 19.3094 35.8538C19.2827 35.9105 20.6451 37.9559 20.6918 37.9593C20.7386 37.9626 21.5032 37.1651 21.5333 37.1685C21.5633 37.1718 23.2195 38.3931 23.2329 38.4331C23.2463 38.4732 22.7187 39.4041 22.7187 39.4642C23.1081 39.6708 23.5206 39.831 23.9475 39.9413C24.3308 40.0709 24.7292 40.1505 25.1329 40.1782C25.1963 40.1248 25.2197 39.1005 25.2631 39.0371C25.964 38.9358 26.672 38.8912 27.3801 38.9036C27.4369 38.9503 27.5905 39.978 27.6539 40.0214C28.4513 39.7569 29.2234 39.4219 29.9612 39.0204C29.998 38.9136 29.27 38.0961 29.3201 38.0594C29.3702 38.0227 30.7927 36.6046 30.8561 36.5979C30.9196 36.5912 31.7009 37.2819 31.7844 37.2819ZM29.8945 34.1554C29.6669 34.9338 29.2137 35.6275 28.5921 36.1488C27.9704 36.6701 27.2081 36.9956 26.4014 37.0843C25.5947 37.1731 24.7798 37.021 24.0596 36.6473C23.3393 36.2736 22.746 35.6951 22.3544 34.9847C21.9629 34.2744 21.7908 33.464 21.8598 32.656C21.9287 31.8479 22.2357 31.0784 22.7419 30.4446C23.2482 29.8107 23.931 29.341 24.7042 29.0946C25.4773 28.8482 26.3063 28.8362 27.0862 29.0601C27.6061 29.2094 28.0913 29.4598 28.514 29.7969C28.9367 30.1341 29.2887 30.5514 29.5496 31.0248C29.8106 31.4982 29.9753 32.0185 30.0345 32.5557C30.0937 33.093 30.0461 33.6366 29.8945 34.1554Z" fill="#33AFBD"/>
<path d="M15.202 22.3866H14.3105V21.4957H15.202V22.3866ZM15.202 20.6015H14.3105V19.7105H15.202V20.6015ZM15.202 18.8196H14.3105V17.9287H15.202V18.8196ZM15.202 17.0378H14.3105V16.1469H15.202V17.0378ZM15.202 15.256H14.3071V14.3651H15.1987L15.202 15.256ZM15.202 13.4741H14.3105V12.5799H15.202V13.4741ZM15.202 11.689H14.3105V10.7981H15.202V11.689ZM15.202 9.90714H14.3105V9.01624H15.202V9.90714Z" fill="#8F7560"/>
<path d="M14.7547 4.13794C15.198 4.13794 15.6313 4.26934 15.9999 4.51551C16.3684 4.76168 16.6556 5.11156 16.825 5.52087C16.9945 5.93018 17.0387 6.38054 16.952 6.81495C16.8653 7.24935 16.6515 7.64829 16.3379 7.96129C16.0242 8.27428 15.6246 8.48725 15.1898 8.57326C14.7549 8.65928 14.3043 8.61446 13.895 8.44449C13.4856 8.27452 13.1359 7.98702 12.8901 7.61838C12.6443 7.24975 12.5135 6.81654 12.5142 6.37358C12.5142 6.07971 12.5721 5.78872 12.6848 5.51727C12.7974 5.24581 12.9625 4.99921 13.1706 4.79157C13.3787 4.58393 13.6257 4.41932 13.8975 4.30716C14.1694 4.19501 14.4606 4.1375 14.7547 4.13794Z" fill="#E1744D"/>
<path d="M24.1577 17.4917H23.2661V16.6007H24.1577V17.4917ZM24.1577 15.7098H23.2661V14.8189H24.1577V15.7098ZM24.1577 13.9247H23.2661V13.0438H24.1577V13.9247ZM24.1577 12.1428H23.2661V11.2519H24.1577V12.1428ZM24.1577 10.361H23.2661V9.47009H24.1577V10.361Z" fill="#8F7560"/>
<path d="M23.7103 4.13794C24.1536 4.13794 24.5869 4.26934 24.9554 4.51551C25.3239 4.76168 25.6111 5.11156 25.7806 5.52087C25.9501 5.93018 25.9943 6.38054 25.9075 6.81495C25.8208 7.24935 25.6071 7.64829 25.2934 7.96129C24.9797 8.27428 24.5802 8.48725 24.1453 8.57326C23.7105 8.65928 23.2599 8.61446 22.8505 8.44449C22.4412 8.27452 22.0915 7.98702 21.8457 7.61838C21.5999 7.24975 21.4691 6.81654 21.4697 6.37358C21.4697 6.07971 21.5277 5.78872 21.6404 5.51727C21.753 5.24581 21.9181 4.99921 22.1262 4.79157C22.3343 4.58393 22.5813 4.41932 22.8531 4.30716C23.1249 4.19501 23.4162 4.1375 23.7103 4.13794Z" fill="#E1744D"/>
<path d="M33.0932 21.0887H32.2017V20.1978H33.0932V21.0887ZM33.0932 19.3069H32.2017V18.416H33.0932V19.3069ZM33.0932 17.525H32.2017V16.6341H33.0932V17.525ZM33.0932 15.7432H32.2017V14.849H33.0932V15.7432ZM33.0932 13.958H32.2017V13.0671H33.0932V13.958ZM33.0932 12.1762H32.2017V11.2853H33.0932V12.1762ZM33.0932 10.3944H32.2017V9.50348H33.0932V10.3944Z" fill="#8F7560"/>
<path d="M32.6458 4.13794C33.0891 4.13794 33.5224 4.26934 33.891 4.51551C34.2595 4.76168 34.5467 5.11156 34.7162 5.52087C34.8856 5.93018 34.9298 6.38054 34.8431 6.81495C34.7564 7.24935 34.5426 7.64829 34.229 7.96129C33.9153 8.27428 33.5157 8.48725 33.0809 8.57326C32.6461 8.65928 32.1954 8.61446 31.7861 8.44449C31.3767 8.27452 31.027 7.98702 30.7813 7.61838C30.5355 7.24975 30.4046 6.81654 30.4053 6.37358C30.4053 6.07971 30.4633 5.78872 30.5759 5.51727C30.6885 5.24581 30.8536 4.99921 31.0617 4.79157C31.2698 4.58393 31.5168 4.41932 31.7887 4.30716C32.0605 4.19501 32.3518 4.1375 32.6458 4.13794Z" fill="#E1744D"/>
<path d="M41.0505 27.1248H40.1589V26.2306H41.0505V27.1248ZM41.0505 25.3397H40.1589V24.4488H41.0505V25.3397ZM41.0505 23.5578H40.1589V22.6669H41.0505V23.5578ZM41.0505 21.776H40.1589V20.8851H41.0505V21.776ZM41.0505 19.9942H40.1589V19.1033H41.0505V19.9942ZM41.0505 18.2123H40.1589V17.3181H41.0505V18.2123ZM41.0505 16.4272H40.1589V15.5363H41.0505V16.4272Z" fill="#8F7560"/>
<path d="M40.6161 10.1708C41.0594 10.1702 41.4929 10.3009 41.8618 10.5466C42.2307 10.7922 42.5184 11.1416 42.6885 11.5507C42.8586 11.9597 42.9034 12.41 42.8174 12.8445C42.7313 13.2791 42.5182 13.6783 42.205 13.9918C41.8917 14.3053 41.4925 14.5188 41.0578 14.6055C40.6231 14.6922 40.1724 14.648 39.7628 14.4787C39.3532 14.3093 39.0031 14.0223 38.7567 13.6541C38.5104 13.2858 38.3789 12.8528 38.3789 12.4098C38.3785 12.1159 38.436 11.8249 38.5482 11.5532C38.6605 11.2816 38.8252 11.0348 39.033 10.8268C39.2408 10.6189 39.4876 10.4539 39.7592 10.3413C40.0309 10.2288 40.3221 10.1708 40.6161 10.1708Z" fill="#E1744D"/>
<path d="M7.40179 24.5489H6.51025V23.658H7.40179V24.5489ZM7.40179 22.7671H6.51025V21.8762H7.40179V22.7671ZM7.40179 20.9852H6.51025V20.0943H7.40179V20.9852ZM7.40179 19.2034H6.51025V18.3125H7.40179V19.2034ZM7.40179 17.4216H6.51025V16.5307H7.40179V17.4216ZM7.40179 15.6398H6.51025V14.7455H7.40179V15.6398ZM7.40179 13.8546H6.51025V12.9637H7.40179V13.8546Z" fill="#8F7560"/>
<path d="M6.95785 7.59814C7.40099 7.59814 7.83416 7.72946 8.20262 7.97549C8.57108 8.22151 8.85826 8.57118 9.02784 8.9803C9.19742 9.38942 9.24179 9.83959 9.15534 10.2739C9.06889 10.7082 8.8555 11.1072 8.54216 11.4203C8.22881 11.7334 7.82957 11.9467 7.39494 12.0331C6.96032 12.1195 6.50983 12.0751 6.10042 11.9056C5.69101 11.7362 5.34109 11.4492 5.09489 11.081C4.8487 10.7128 4.71729 10.2799 4.71729 9.83712C4.71729 9.24331 4.95335 8.67382 5.37353 8.25393C5.79372 7.83404 6.36361 7.59814 6.95785 7.59814Z" fill="#E1744D"/>
<path d="M6.95772 8.54248C7.22189 8.54248 7.4801 8.62076 7.69975 8.76742C7.9194 8.91408 8.0906 9.12252 8.19169 9.36641C8.29278 9.61029 8.31923 9.87866 8.26769 10.1376C8.21615 10.3965 8.08896 10.6343 7.90217 10.821C7.71537 11.0076 7.47737 11.1347 7.21828 11.1862C6.95919 11.2377 6.69064 11.2113 6.44658 11.1103C6.20252 11.0093 5.99391 10.8382 5.84715 10.6187C5.70039 10.3992 5.62207 10.1412 5.62207 9.87718C5.62207 9.5232 5.76279 9.18371 6.01327 8.93341C6.26376 8.6831 6.60348 8.54248 6.95772 8.54248Z" fill="#FCCD59"/>
<path d="M14.7546 5.03552C15.0188 5.03552 15.277 5.11381 15.4966 5.26046C15.7163 5.40712 15.8875 5.61556 15.9886 5.85945C16.0897 6.10333 16.1161 6.3717 16.0646 6.63061C16.0131 6.88951 15.8858 7.12734 15.699 7.31401C15.5122 7.50067 15.2742 7.62779 15.0152 7.67929C14.7561 7.73079 14.4875 7.70435 14.2435 7.60333C13.9994 7.5023 13.7908 7.33124 13.644 7.11175C13.4973 6.89226 13.4189 6.63421 13.4189 6.37023C13.4189 6.01624 13.5597 5.67675 13.8101 5.42645C14.0606 5.17614 14.4004 5.03552 14.7546 5.03552Z" fill="#FCCD59"/>
<path d="M23.7102 5.03552C23.9743 5.03552 24.2326 5.11381 24.4522 5.26046C24.6719 5.40712 24.843 5.61556 24.9441 5.85945C25.0452 6.10333 25.0717 6.3717 25.0202 6.63061C24.9686 6.88951 24.8414 7.12734 24.6546 7.31401C24.4678 7.50067 24.2298 7.62779 23.9707 7.67929C23.7116 7.73079 23.4431 7.70435 23.199 7.60333C22.955 7.5023 22.7464 7.33124 22.5996 7.11175C22.4529 6.89226 22.3745 6.63421 22.3745 6.37023C22.3745 6.01624 22.5152 5.67675 22.7657 5.42645C23.0162 5.17614 23.3559 5.03552 23.7102 5.03552Z" fill="#FCCD59"/>
<path d="M32.6457 5.03552C32.9099 5.03552 33.1681 5.11381 33.3878 5.26046C33.6074 5.40712 33.7786 5.61556 33.8797 5.85945C33.9808 6.10333 34.0072 6.3717 33.9557 6.63061C33.9041 6.88951 33.777 7.12734 33.5902 7.31401C33.4034 7.50067 33.1654 7.62779 32.9063 7.67929C32.6472 7.73079 32.3786 7.70435 32.1346 7.60333C31.8905 7.5023 31.6819 7.33124 31.5352 7.11175C31.3884 6.89226 31.3101 6.63421 31.3101 6.37023C31.3101 6.01624 31.4508 5.67675 31.7013 5.42645C31.9517 5.17614 32.2915 5.03552 32.6457 5.03552Z" fill="#FCCD59"/>
<path d="M40.6162 11.0617C40.8803 11.0617 41.1386 11.14 41.3582 11.2866C41.5779 11.4333 41.749 11.6417 41.8501 11.8856C41.9512 12.1295 41.9777 12.3979 41.9262 12.6568C41.8746 12.9157 41.7474 13.1535 41.5606 13.3402C41.3738 13.5269 41.1358 13.654 40.8767 13.7055C40.6176 13.757 40.3491 13.7305 40.105 13.6295C39.861 13.5285 39.6524 13.3574 39.5056 13.1379C39.3589 12.9184 39.2805 12.6604 39.2805 12.3964C39.2805 12.0424 39.4212 11.7029 39.6717 11.4526C39.9222 11.2023 40.2619 11.0617 40.6162 11.0617Z" fill="#FCCD59"/>
</svg>
