<svg width="49" height="50" viewBox="0 0 49 50" fill="none" xmlns="http://www.w3.org/2000/svg">
<path d="M17.2246 34.6259H5.59692V42.3225H17.2246V34.6259Z" fill="#243239"/>
<path d="M18.1675 42.3225H4.65428C3.83274 42.3225 3.16675 42.9975 3.16675 43.8301V45.8138C3.16675 46.6465 3.83274 47.3214 4.65428 47.3214H18.1675C18.989 47.3214 19.655 46.6465 19.655 45.8138V43.8301C19.655 42.9975 18.989 42.3225 18.1675 42.3225Z" fill="#058789"/>
<path d="M16.9596 44.061H9.19531V45.583H16.9596V44.061Z" fill="#EDF3F3"/>
<path d="M6.65071 45.6551C7.10475 45.6551 7.47282 45.282 7.47282 44.8219C7.47282 44.3617 7.10475 43.9887 6.65071 43.9887C6.19668 43.9887 5.82861 44.3617 5.82861 44.8219C5.82861 45.282 6.19668 45.6551 6.65071 45.6551Z" fill="#EDF3F3"/>
<path d="M18.1675 35.9749H4.65428C3.83274 35.9749 3.16675 36.6498 3.16675 37.4824V39.4662C3.16675 40.2988 3.83274 40.9738 4.65428 40.9738H18.1675C18.989 40.9738 19.655 40.2988 19.655 39.4662V37.4824C19.655 36.6498 18.989 35.9749 18.1675 35.9749Z" fill="#058789"/>
<path d="M16.9596 37.7133H9.19531V39.2353H16.9596V37.7133Z" fill="#EDF3F3"/>
<path d="M6.65071 39.3074C7.10475 39.3074 7.47282 38.9343 7.47282 38.4742C7.47282 38.014 7.10475 37.641 6.65071 37.641C6.19668 37.641 5.82861 38.014 5.82861 38.4742C5.82861 38.9343 6.19668 39.3074 6.65071 39.3074Z" fill="#EDF3F3"/>
<path d="M18.1675 29.627H4.65428C3.83274 29.627 3.16675 30.3019 3.16675 31.1345V33.1183C3.16675 33.9509 3.83274 34.6259 4.65428 34.6259H18.1675C18.989 34.6259 19.655 33.9509 19.655 33.1183V31.1345C19.655 30.3019 18.989 29.627 18.1675 29.627Z" fill="#058789"/>
<path d="M16.9596 31.3655H9.19531V32.8874H16.9596V31.3655Z" fill="#EDF3F3"/>
<path d="M6.65071 32.9597C7.10475 32.9597 7.47282 32.5867 7.47282 32.1265C7.47282 31.6664 7.10475 31.2933 6.65071 31.2933C6.19668 31.2933 5.82861 31.6664 5.82861 32.1265C5.82861 32.5867 6.19668 32.9597 6.65071 32.9597Z" fill="#EDF3F3"/>
<path d="M11.699 29.627H11.1228V26.6737H22.1272V24.1595H22.7034V27.2577H11.699V29.627Z" fill="#243239"/>
<path d="M11.411 27.9229C11.9326 27.9229 12.3555 27.4943 12.3555 26.9657C12.3555 26.437 11.9326 26.0085 11.411 26.0085C10.8894 26.0085 10.4666 26.437 10.4666 26.9657C10.4666 27.4943 10.8894 27.9229 11.411 27.9229Z" fill="#243239"/>
<path d="M23.4167 27.0577C23.5001 26.5343 23.1492 26.0415 22.6328 25.9569C22.1164 25.8723 21.6301 26.228 21.5466 26.7513C21.4632 27.2747 21.8141 27.7675 22.3305 27.8521C22.8469 27.9367 23.3332 27.581 23.4167 27.0577Z" fill="#243239"/>
<path d="M43.4031 34.6259H31.7754V42.3225H43.4031V34.6259Z" fill="#243239"/>
<path d="M44.346 42.3225H30.8327C30.0112 42.3225 29.3452 42.9975 29.3452 43.8301V45.8138C29.3452 46.6465 30.0112 47.3214 30.8327 47.3214H44.346C45.1675 47.3214 45.8335 46.6465 45.8335 45.8138V43.8301C45.8335 42.9975 45.1675 42.3225 44.346 42.3225Z" fill="#058789"/>
<path d="M43.1378 44.061H35.3735V45.583H43.1378V44.061Z" fill="#EDF3F3"/>
<path d="M33.6504 44.8826C33.6824 44.4236 33.3412 44.0252 32.8883 43.9928C32.4354 43.9604 32.0423 44.3062 32.0103 44.7652C31.9783 45.2242 32.3195 45.6226 32.7724 45.655C33.2254 45.6874 33.6184 45.3416 33.6504 44.8826Z" fill="#EDF3F3"/>
<path d="M44.346 35.9749H30.8327C30.0112 35.9749 29.3452 36.6498 29.3452 37.4824V39.4662C29.3452 40.2988 30.0112 40.9738 30.8327 40.9738H44.346C45.1675 40.9738 45.8335 40.2988 45.8335 39.4662V37.4824C45.8335 36.6498 45.1675 35.9749 44.346 35.9749Z" fill="#058789"/>
<path d="M43.1378 37.7133H35.3735V39.2353H43.1378V37.7133Z" fill="#EDF3F3"/>
<path d="M33.6483 38.5476C33.688 38.0892 33.3536 37.685 32.9013 37.6447C32.449 37.6044 32.0501 37.9434 32.0104 38.4018C31.9707 38.8602 32.3051 39.2644 32.7574 39.3047C33.2097 39.3449 33.6086 39.006 33.6483 38.5476Z" fill="#EDF3F3"/>
<path d="M44.346 29.627H30.8327C30.0112 29.627 29.3452 30.3019 29.3452 31.1345V33.1183C29.3452 33.9509 30.0112 34.6259 30.8327 34.6259H44.346C45.1675 34.6259 45.8335 33.9509 45.8335 33.1183V31.1345C45.8335 30.3019 45.1675 29.627 44.346 29.627Z" fill="#058789"/>
<path d="M43.1378 31.3655H35.3735V32.8874H43.1378V31.3655Z" fill="#EDF3F3"/>
<path d="M33.2267 32.8555C33.6241 32.633 33.7684 32.1261 33.5489 31.7233C33.3294 31.3205 32.8293 31.1743 32.4318 31.3968C32.0344 31.6192 31.8901 32.1261 32.1096 32.5289C32.3291 32.9317 32.8292 33.0779 33.2267 32.8555Z" fill="#EDF3F3"/>
<path d="M38.1158 29.627H37.5398V27.2577H26.5354V24.1595H27.1114V26.6737H38.1158V29.627Z" fill="#243239"/>
<path d="M38.7615 27.1204C38.845 26.5986 38.4954 26.107 37.9805 26.0223C37.4657 25.9375 36.9805 26.2919 36.8969 26.8137C36.8134 27.3355 37.163 27.8272 37.6779 27.9119C38.1927 27.9966 38.6779 27.6423 38.7615 27.1204Z" fill="#243239"/>
<path d="M26.8234 27.9229C27.345 27.9229 27.7678 27.4943 27.7678 26.9657C27.7678 26.437 27.345 26.0085 26.8234 26.0085C26.3018 26.0085 25.8789 26.437 25.8789 26.9657C25.8789 27.4943 26.3018 27.9229 26.8234 27.9229Z" fill="#243239"/>
<path d="M35.7271 24.1294C35.5365 24.1467 35.3459 24.1595 35.1612 24.1595H13.8318C10.9073 24.1656 8.40563 21.9139 8.11447 18.9013C7.81069 15.7014 10.1217 12.8587 13.2785 12.5508C14.5017 12.4285 15.7314 12.708 16.7859 13.348C16.6274 12.7928 16.547 12.2177 16.5469 11.6397C16.5469 8.16302 19.3227 5.34955 22.7534 5.34955C25.7076 5.34955 28.1856 7.44417 28.8049 10.2573C29.3008 9.84618 29.9063 9.59401 30.5442 9.53292C32.3311 9.35788 33.9215 10.6799 34.094 12.4906C34.099 12.5347 34.101 12.5791 34.1 12.6235C34.2727 12.5934 34.4454 12.5692 34.6182 12.551C37.7755 12.2371 40.5804 14.5792 40.8842 17.7788C41.1939 20.9786 38.8829 23.8213 35.7261 24.1292L35.7271 24.1294Z" fill="#E6E7E8"/>
<path d="M29.5959 10.6729H27.9205V7.84303C27.9205 5.93174 26.3859 4.37643 24.5 4.37643C22.6141 4.37643 21.0795 5.93174 21.0795 7.84303V10.6729H19.4041V7.84303C19.4041 4.99634 21.6903 2.67859 24.5 2.67859C27.3097 2.67859 29.5959 4.99634 29.5959 7.8432V10.6731V10.6729Z" fill="#058789"/>
<path d="M31.1651 12.0706V20.2433C31.1652 20.4263 31.1298 20.6074 31.0607 20.7765C30.9917 20.9455 30.8905 21.0991 30.7628 21.2284C30.6352 21.3578 30.4836 21.4603 30.3168 21.5302C30.15 21.6001 29.9712 21.6359 29.7907 21.6357H19.2143C18.4548 21.6357 17.835 21.013 17.835 20.2433V12.0706C17.8358 11.7001 17.9814 11.3451 18.2399 11.0831C18.4984 10.8211 18.8487 10.6736 19.2143 10.6727H29.7907C30.5503 10.6727 31.1645 11.3009 31.1645 12.0706H31.1651Z" fill="#E3A72F"/>
<path d="M31.1652 12.4403H17.835V13.4779H31.1652V12.4403Z" fill="#EDF3F3"/>
<path d="M31.1652 18.8311H17.835V19.8687H31.1652V18.8311Z" fill="#EDF3F3"/>
<path d="M25.5619 14.8848C25.5617 15.0738 25.5128 15.2593 25.42 15.4232C25.3272 15.587 25.1937 15.7234 25.0329 15.8189V17.7419C25.0304 17.8834 24.9732 18.0182 24.8736 18.1174C24.774 18.2165 24.6399 18.2721 24.5003 18.2721C24.3607 18.2721 24.2266 18.2165 24.127 18.1174C24.0274 18.0182 23.9702 17.8834 23.9677 17.7419V15.8189C23.8062 15.7243 23.672 15.5884 23.5788 15.4247C23.4855 15.261 23.4363 15.0753 23.4363 14.8862C23.4362 14.6972 23.4853 14.5114 23.5785 14.3477C23.6717 14.1839 23.8058 14.0479 23.9673 13.9533C24.1288 13.8587 24.312 13.8088 24.4985 13.8087C24.685 13.8086 24.8683 13.8582 25.0299 13.9526C25.1916 14.047 25.3258 14.1829 25.4192 14.3465C25.5126 14.5101 25.5619 14.6958 25.5621 14.8848H25.5619Z" fill="#243239"/>
</svg>
