<svg width="75" height="48" viewBox="0 0 75 48" fill="none" xmlns="http://www.w3.org/2000/svg">
<path d="M58.4013 6.5957H14.3574V35.3431H58.4013V6.5957Z" fill="#F4F4F6"/>
<path fill-rule="evenodd" clip-rule="evenodd" d="M9.05127 36.2858L13.9537 35.3431L58.7345 35.2886L63.3033 36.2858H9.05127Z" fill="#8B8186"/>
<path d="M63.3035 36.2858H9.05141C8.79865 36.2858 8.59375 36.4916 8.59375 36.7455V39.0359C8.59375 39.2898 8.79865 39.4956 9.05141 39.4956H63.3035C63.5562 39.4956 63.7611 39.2898 63.7611 39.0359V36.7455C63.7611 36.4916 63.5562 36.2858 63.3035 36.2858Z" fill="#5A3445"/>
<path fill-rule="evenodd" clip-rule="evenodd" d="M13.9541 5.41937H58.4013C58.677 5.41937 58.9414 5.52937 59.1363 5.72514C59.3312 5.92092 59.4408 6.18644 59.4408 6.46331V34.307C59.4387 34.5825 59.3283 34.8461 59.1336 35.0402C58.9389 35.2343 58.6757 35.3432 58.4013 35.3432H13.9541C13.6811 35.3411 13.4198 35.2313 13.2268 35.0374C13.0338 34.8435 12.9244 34.5812 12.9224 34.307V6.46331C12.9224 6.18779 13.0308 5.92343 13.2241 5.72788C13.4173 5.53232 13.6797 5.42143 13.9541 5.41937ZM15.2262 7.75656V33.0449H57.1137V7.74099L15.2262 7.75656Z" fill="#5A3445"/>
<path d="M27.7304 11.0364H17.7705V11.9791H27.7304V11.0364Z" fill="#A4DAE4"/>
<path d="M21.075 12.7114H17.7705V13.654H21.075V12.7114Z" fill="#A4DAE4"/>
<path d="M27.7304 14.3708H17.7705V15.3135H27.7304V14.3708Z" fill="#A4DAE4"/>
<path d="M27.7304 16.0458H17.7705V16.9884H27.7304V16.0458Z" fill="#A4DAE4"/>
<path d="M40.9557 11.0364H28.7695V11.9791H40.9557V11.0364Z" fill="#A4DAE4"/>
<path d="M40.9557 12.7114H28.7695V13.654H40.9557V12.7114Z" fill="#A4DAE4"/>
<path d="M40.9557 16.0458H28.7695V16.9884H40.9557V16.0458Z" fill="#A4DAE4"/>
<path d="M54.4684 11.0364H42.2822V11.9791H54.4684V11.0364Z" fill="#A4DAE4"/>
<path d="M54.4684 12.7114H42.2822V13.654H54.4684V12.7114Z" fill="#A4DAE4"/>
<path d="M54.4684 14.3708H42.2822V15.3135H54.4684V14.3708Z" fill="#A4DAE4"/>
<path d="M54.4684 16.0458H42.2822V16.9884H54.4684V16.0458Z" fill="#A4DAE4"/>
<path d="M27.73 12.7114H24.3867V13.654H27.73V12.7114Z" fill="#A4DAE4"/>
<path d="M24.0222 12.7114H21.3926V13.654H24.0222V12.7114Z" fill="#C2C2C8"/>
<path d="M32.074 14.3708H28.7695V15.3135H32.074V14.3708Z" fill="#A4DAE4"/>
<path d="M40.9557 14.3708H35.3862V15.3135H40.9557V14.3708Z" fill="#A4DAE4"/>
<path d="M35.029 14.3708H32.3994V15.3135H35.029V14.3708Z" fill="#C2C2C8"/>
<path d="M19.9269 23.9844H17.7705V30.6922H19.9269V23.9844Z" fill="#C2C2C8"/>
<path d="M23.1613 22.2159H21.0049V30.6921H23.1613V22.2159Z" fill="#C2C2C8"/>
<path d="M26.3962 20.3929H24.2397V30.6999H26.3962V20.3929Z" fill="#C2C2C8"/>
<path d="M39.342 23.9844H37.1855V30.6922H39.342V23.9844Z" fill="#C2C2C8"/>
<path d="M36.0998 22.2159H33.9434V30.6921H36.0998V22.2159Z" fill="#C2C2C8"/>
<path d="M32.8654 20.3929H30.709V30.6999H32.8654V20.3929Z" fill="#C2C2C8"/>
<path d="M29.6306 22.3484H27.4741V30.6999H29.6306V22.3484Z" fill="#C2C2C8"/>
<path fill-rule="evenodd" clip-rule="evenodd" d="M53.2037 10.6468C57.7129 10.5764 62.1924 11.3915 66.3905 13.0463C66.3905 26.8358 65.2657 33.0994 53.2502 42.5417L53.1882 42.5806L53.1338 42.5417C41.1106 33.0994 39.9858 26.8358 39.9858 13.0463C44.1937 11.3881 48.684 10.5729 53.2037 10.6468Z" fill="#E64037"/>
<path fill-rule="evenodd" clip-rule="evenodd" d="M41.7778 14.2695C41.8554 26.7345 43.2749 32.1879 53.2038 40.3135C63.1327 32.2191 64.56 26.7578 64.6375 14.2695C57.2147 11.8081 49.2007 11.8081 41.7778 14.2695Z" fill="#E0AD15"/>
<path fill-rule="evenodd" clip-rule="evenodd" d="M53.2039 37.8985C61.2712 31.0116 62.6131 26.0957 62.776 15.6017C56.5184 13.8358 49.8973 13.8358 43.6396 15.6017C43.7948 26.1113 45.1367 31.0116 53.2039 37.8985Z" fill="#E64037"/>
<path fill-rule="evenodd" clip-rule="evenodd" d="M63.6835 17.7675L47.7585 33.7617L47.1147 32.8891C46.7424 32.3827 46.3933 31.8608 46.0598 31.331L45.6797 30.7077L61.9227 14.3942L62.4502 14.5422L63.0785 14.7292L63.7456 14.9317V15.6329C63.7456 16.225 63.7301 16.817 63.6991 17.4091L63.6835 17.7675Z" fill="#E0AD15"/>
<path fill-rule="evenodd" clip-rule="evenodd" d="M62.7371 17.3702C62.7371 16.7937 62.7371 16.2094 62.7759 15.6017L62.1631 15.4225L46.8276 30.8324C47.1377 31.3507 47.4743 31.8526 47.8361 32.336L62.7371 17.3702Z" fill="#E0AD15"/>
</svg>
