<svg width="48" height="48" viewBox="0 0 48 48" fill="none" xmlns="http://www.w3.org/2000/svg">
<path d="M35.1792 41.2728H7.22163C4.59843 41.2728 2.47443 39.1464 2.47443 36.5256V10.92C2.47443 8.29679 4.60083 6.17279 7.22163 6.17279H10.6872C11.6568 6.17279 12.6048 6.47039 13.4016 7.02479L17.0352 9.55679C17.832 10.1112 18.7776 10.4088 19.7496 10.4088H35.1792C37.8024 10.4088 39.9264 12.5352 39.9264 15.156V36.5256C39.9264 39.1488 37.8024 41.2728 35.1792 41.2728Z" fill="#0052D9" fill-opacity="0.5"/>
<path d="M13.8312 16.0632H43.4304C45.0264 16.0632 46.1616 17.6376 45.6816 19.1808L39.2616 39.8352C38.952 40.8336 38.04 41.5104 37.0104 41.5104H6.48237C4.88877 41.5104 3.75117 39.9384 4.22877 38.3952L10.6176 18.7008C11.2512 16.8504 12.7992 16.0632 13.8312 16.0632Z" fill="#0052D9"/>
<path d="M39.9264 36.5256V16.0632H13.8312C12.7992 16.0632 11.2512 16.8504 10.6176 18.7032L4.22878 38.3976C4.00558 39.12 4.13758 39.8448 4.50238 40.416C5.27278 40.956 6.20878 41.2752 7.22158 41.2752H35.1792C37.8024 41.2728 39.9264 39.1488 39.9264 36.5256Z" fill="#0052D9"/>
<path d="M29.5824 26.9832H26.3352V23.7336C26.3352 22.6728 25.476 21.8136 24.4152 21.8136C23.3544 21.8136 22.4952 22.6728 22.4952 23.7336V26.9808H19.2456C18.1848 26.9808 17.3256 27.84 17.3256 28.9008C17.3256 29.9616 18.1848 30.8208 19.2456 30.8208H22.4928V34.068C22.4928 35.1288 23.352 35.988 24.4128 35.988C25.4736 35.988 26.3328 35.1288 26.3328 34.068V30.8208H29.58C30.6408 30.8208 31.5 29.9616 31.5 28.9008C31.5 27.84 30.6432 26.9832 29.5824 26.9832Z" fill="white"/>
</svg>
