<svg width="50" height="48" viewBox="0 0 50 48" fill="none" xmlns="http://www.w3.org/2000/svg">
<g clip-path="url(#clip0_689_3043)">
<g opacity="0.66">
<path d="M41.7705 19.8429H40.717C40.5047 19.8411 40.3015 19.7565 40.1512 19.6071C40.0009 19.4578 39.9155 19.2557 39.9134 19.0444V17.8641C39.9123 17.7558 39.8782 17.6503 39.8158 17.5616C39.7534 17.4728 39.6655 17.4049 39.5636 17.3667C39.4394 17.3223 39.3151 17.2713 39.1949 17.2148C39.0953 17.1686 38.9838 17.1537 38.8754 17.1722C38.7671 17.1907 38.667 17.2417 38.5885 17.3183L37.7498 18.1531C37.6754 18.2275 37.587 18.2865 37.4897 18.3266C37.3923 18.3668 37.2879 18.3873 37.1825 18.387C37.0771 18.3873 36.9727 18.3668 36.8753 18.3266C36.778 18.2865 36.6896 18.2275 36.6153 18.1531L35.8697 17.4111C35.7193 17.2613 35.6348 17.0582 35.6348 16.8465C35.6348 16.6347 35.7193 16.4316 35.8697 16.2819L36.7084 15.4471C36.7854 15.369 36.8366 15.2693 36.8552 15.1615C36.8738 15.0536 36.8589 14.9427 36.8124 14.8435C36.7557 14.7225 36.7044 14.5988 36.6598 14.4765C36.6214 14.3749 36.5529 14.2873 36.4635 14.2251C36.3741 14.163 36.2678 14.1293 36.1587 14.1283H34.9729C34.7615 14.1263 34.5593 14.042 34.4094 13.8936C34.2595 13.7452 34.1738 13.5443 34.1707 13.3339V12.284C34.1728 12.0729 34.258 11.871 34.408 11.7217C34.558 11.5724 34.7608 11.4876 34.9729 11.4855H36.1587C36.2678 11.4846 36.3741 11.4509 36.4635 11.3887C36.5529 11.3266 36.6214 11.2389 36.6598 11.1373C36.7044 11.0137 36.7557 10.89 36.8124 10.7704C36.8589 10.6712 36.8738 10.5602 36.8552 10.4524C36.8366 10.3445 36.7854 10.2449 36.7084 10.1668L35.8697 9.33198C35.7208 9.18115 35.6374 8.97816 35.6374 8.76671C35.6374 8.55527 35.7208 8.35227 35.8697 8.20144L36.6153 7.45941C36.7667 7.31162 36.9704 7.22884 37.1825 7.22884C37.3946 7.22884 37.5983 7.31162 37.7498 7.45941L38.5885 8.2942C38.667 8.37082 38.7671 8.42178 38.8754 8.44027C38.9838 8.45877 39.0953 8.44392 39.1949 8.39771C39.3165 8.34259 39.4407 8.29151 39.5636 8.24581C39.6655 8.20762 39.7534 8.13971 39.8158 8.05096C39.8782 7.9622 39.9123 7.85675 39.9134 7.74842V6.56815C39.9155 6.3568 40.0009 6.15472 40.1512 6.00538C40.3015 5.85605 40.5047 5.7714 40.717 5.76965H41.7705C41.9833 5.76965 42.1873 5.85378 42.3378 6.00353C42.4883 6.15328 42.5728 6.35638 42.5728 6.56815V7.74842C42.574 7.85675 42.608 7.9622 42.6704 8.05096C42.7328 8.13971 42.8207 8.20762 42.9226 8.24581C43.0468 8.29151 43.1711 8.34259 43.2913 8.39771C43.391 8.44392 43.5024 8.45877 43.6108 8.44027C43.7191 8.42178 43.8192 8.37082 43.8977 8.2942L44.7364 7.45941C44.888 7.31122 45.0919 7.22818 45.3044 7.22818C45.5168 7.22818 45.7208 7.31122 45.8723 7.45941L46.6178 8.20144C46.7667 8.35227 46.8502 8.55527 46.8502 8.76671C46.8502 8.97816 46.7667 9.18115 46.6178 9.33198L45.7791 10.1668C45.7021 10.2449 45.6509 10.3445 45.6324 10.4524C45.6138 10.5602 45.6287 10.6712 45.6751 10.7704C45.7305 10.89 45.7818 11.0137 45.8277 11.1373C45.8661 11.2387 45.9343 11.3262 46.0235 11.3883C46.1127 11.4505 46.2186 11.4843 46.3275 11.4855H47.5133C47.7268 11.4855 47.9317 11.5694 48.0835 11.7189C48.2352 11.8684 48.3215 12.0715 48.3237 12.284V13.3339C48.3215 13.5464 48.2352 13.7495 48.0835 13.899C47.9317 14.0485 47.7268 14.1324 47.5133 14.1324H46.3275C46.2186 14.1336 46.1127 14.1674 46.0235 14.2296C45.9343 14.2917 45.8661 14.3792 45.8277 14.4805C45.7818 14.6029 45.7305 14.7266 45.6751 14.8475C45.6287 14.9467 45.6138 15.0577 45.6324 15.1655C45.6509 15.2734 45.7021 15.373 45.7791 15.4511L46.6178 16.2859C46.7663 16.4367 46.8495 16.6394 46.8495 16.8505C46.8495 17.0616 46.7663 17.2643 46.6178 17.4151L45.8723 18.1571C45.7977 18.2314 45.709 18.2904 45.6114 18.3305C45.5139 18.3706 45.4093 18.3912 45.3037 18.391C45.1983 18.3912 45.094 18.3706 44.9966 18.3304C44.8993 18.2903 44.8108 18.2314 44.7364 18.1571L43.8977 17.3223C43.8192 17.2457 43.7191 17.1948 43.6108 17.1763C43.5024 17.1578 43.391 17.1726 43.2913 17.2188C43.1711 17.2753 43.0482 17.3264 42.9226 17.3707C42.8205 17.409 42.7325 17.4771 42.67 17.5661C42.6076 17.6552 42.5737 17.7609 42.5728 17.8695V19.0497C42.5693 19.2599 42.4834 19.4604 42.3336 19.6086C42.1837 19.7567 41.9817 19.8408 41.7705 19.8429ZM38.9667 16.8949C39.0847 16.8946 39.2014 16.9203 39.3084 16.9701C39.4218 17.0226 39.5393 17.071 39.6568 17.114C39.8106 17.1712 39.9434 17.2735 40.0374 17.4075C40.1315 17.5414 40.1824 17.7007 40.1836 17.8641V19.0444C40.1857 19.1844 40.2426 19.3181 40.3422 19.417C40.4418 19.516 40.5763 19.5723 40.717 19.574H41.7705C41.9116 19.574 42.047 19.5182 42.1468 19.4189C42.2466 19.3195 42.3027 19.1848 42.3027 19.0444V17.8641C42.3039 17.7005 42.355 17.5412 42.4493 17.4072C42.5437 17.2732 42.6767 17.171 42.8307 17.114C42.9482 17.071 43.0644 17.0226 43.1778 16.9701C43.3278 16.9006 43.4955 16.8784 43.6584 16.9066C43.8214 16.9347 43.9718 17.0117 44.0895 17.1274L44.9282 17.9622C45.028 18.0615 45.1633 18.1172 45.3044 18.1172C45.4454 18.1172 45.5807 18.0615 45.6805 17.9622L46.4261 17.2202C46.5242 17.1198 46.5792 16.9852 46.5792 16.8451C46.5792 16.705 46.5242 16.5705 46.4261 16.4701L45.5873 15.6353C45.4716 15.5181 45.3946 15.3686 45.3666 15.2067C45.3386 15.0447 45.3609 14.8782 45.4307 14.7292C45.4847 14.615 45.532 14.498 45.5752 14.3824C45.6326 14.2293 45.7355 14.0972 45.8701 14.0036C46.0046 13.91 46.1646 13.8593 46.3288 13.8582H47.5146C47.6565 13.8582 47.7927 13.8026 47.8938 13.7035C47.9949 13.6044 48.0528 13.4697 48.0549 13.3285V12.2786C48.0528 12.1374 47.9949 12.0027 47.8938 11.9036C47.7927 11.8045 47.6565 11.749 47.5146 11.749H46.3288C46.1646 11.7479 46.0046 11.6972 45.8701 11.6035C45.7355 11.5099 45.6326 11.3778 45.5752 11.2247C45.532 11.1078 45.4833 10.9908 45.4307 10.8779C45.3613 10.7291 45.3391 10.5628 45.3671 10.4012C45.3951 10.2396 45.4719 10.0903 45.5873 9.9732L46.4261 9.1384C46.5258 9.03909 46.5818 8.90443 46.5818 8.76402C46.5818 8.62362 46.5258 8.48896 46.4261 8.38964L45.6805 7.6476C45.5807 7.54836 45.4454 7.49261 45.3044 7.49261C45.1633 7.49261 45.028 7.54836 44.9282 7.6476L44.0895 8.4824C43.9718 8.59808 43.8214 8.67515 43.6584 8.70327C43.4955 8.73138 43.3278 8.70919 43.1778 8.63968C43.0644 8.58725 42.9469 8.53886 42.8307 8.49584C42.6767 8.43886 42.5437 8.3366 42.4493 8.20263C42.355 8.06866 42.3039 7.90932 42.3027 7.74574V6.56546C42.3028 6.49586 42.2892 6.42691 42.2625 6.36257C42.2358 6.29823 42.1966 6.23977 42.1472 6.19055C42.0977 6.14134 42.039 6.10233 41.9744 6.07577C41.9097 6.04922 41.8404 6.03564 41.7705 6.03582H40.717C40.647 6.03564 40.5777 6.04921 40.513 6.07575C40.4483 6.10229 40.3894 6.14127 40.3399 6.19047C40.2903 6.23967 40.251 6.29812 40.2242 6.36247C40.1974 6.42681 40.1836 6.4958 40.1836 6.56546V7.74574C40.1824 7.90916 40.1315 8.06839 40.0374 8.20234C39.9434 8.33629 39.8106 8.43865 39.6568 8.49584C39.5407 8.53886 39.4232 8.58725 39.3084 8.63968C39.1586 8.70889 38.9912 8.73092 38.8285 8.70281C38.6658 8.6747 38.5156 8.5978 38.3981 8.4824L37.5593 7.6476C37.4585 7.54989 37.3233 7.49521 37.1825 7.49521C37.0417 7.49521 36.9066 7.54989 36.8057 7.6476L36.0602 8.38964C35.9624 8.48997 35.9077 8.62425 35.9077 8.76402C35.9077 8.9038 35.9624 9.03808 36.0602 9.1384L36.8989 9.9732C37.0145 10.0901 37.0916 10.2393 37.1199 10.401C37.1481 10.5626 37.1261 10.729 37.0569 10.8779C37.0042 10.9908 36.9556 11.1078 36.9124 11.2247C36.8549 11.3778 36.7521 11.5099 36.6175 11.6035C36.4829 11.6972 36.3229 11.7479 36.1587 11.749H34.9729C34.8324 11.7511 34.6983 11.8075 34.5989 11.9064C34.4996 12.0053 34.4429 12.1388 34.4408 12.2786V13.3339C34.4429 13.4737 34.4996 13.6072 34.5989 13.7061C34.6983 13.805 34.8324 13.8614 34.9729 13.8635H36.1587C36.3229 13.8646 36.4829 13.9154 36.6175 14.009C36.7521 14.1026 36.8549 14.2347 36.9124 14.3878C36.9556 14.5034 37.0042 14.6204 37.0569 14.7346C37.1264 14.8837 37.1486 15.0503 37.1203 15.2122C37.0921 15.3742 37.0148 15.5236 36.8989 15.6407L36.0602 16.4755C35.962 16.5758 35.907 16.7104 35.907 16.8505C35.907 16.9906 35.962 17.1252 36.0602 17.2256L36.8057 17.9676C36.9066 18.0653 37.0417 18.12 37.1825 18.12C37.3233 18.12 37.4585 18.0653 37.5593 17.9676L38.3981 17.1328C38.5487 16.982 38.753 16.8965 38.9667 16.8949ZM41.2438 16.4916C40.2608 16.4905 39.3185 16.1014 38.6234 15.4096C37.9284 14.7178 37.5374 13.7799 37.5364 12.8016C37.5378 11.8235 37.9289 10.8858 38.6239 10.1944C39.3189 9.50286 40.2611 9.11393 41.2438 9.11286C42.2266 9.11428 43.1688 9.50351 43.8637 10.1952C44.5587 10.8869 44.9498 11.8247 44.9512 12.8029C44.9501 13.7812 44.5592 14.7192 43.8641 15.411C43.1691 16.1027 42.2267 16.4919 41.2438 16.4929V16.4916ZM41.2438 9.38037C40.3325 9.38144 39.4588 9.74223 38.8144 10.3836C38.17 11.025 37.8076 11.8945 37.8065 12.8016C37.8072 13.7088 38.1695 14.5787 38.814 15.2204C39.4584 15.862 40.3322 16.223 41.2438 16.2241C42.1551 16.223 43.0287 15.8622 43.6731 15.2209C44.3175 14.5795 44.68 13.7099 44.6811 12.8029C44.68 11.8959 44.3175 11.0263 43.6731 10.3849C43.0287 9.74357 42.1551 9.38278 41.2438 9.38172V9.38037Z" fill="white"/>
<g opacity="0.84">
<path d="M39.808 39.0243H38.4925C38.3408 39.024 38.1928 38.9774 38.0684 38.8909C37.9441 38.8044 37.8493 38.6821 37.7969 38.5403C37.7483 38.4059 37.6929 38.2715 37.6321 38.1451C37.5673 38.0075 37.5466 37.8533 37.5727 37.7035C37.5988 37.5538 37.6704 37.4156 37.778 37.3076L38.7086 36.3814C38.7773 36.313 38.8318 36.2318 38.869 36.1424C38.9062 36.0531 38.9254 35.9573 38.9254 35.8605C38.9254 35.7638 38.9062 35.668 38.869 35.5786C38.8318 35.4892 38.7773 35.408 38.7086 35.3396L37.8807 34.5169C37.8119 34.4485 37.7303 34.3943 37.6405 34.3572C37.5507 34.3202 37.4545 34.3012 37.3573 34.3012C37.2601 34.3012 37.1638 34.3202 37.0741 34.3572C36.9843 34.3943 36.9027 34.4485 36.8339 34.5169L35.9047 35.4418C35.7962 35.5487 35.6574 35.6199 35.5069 35.6459C35.3565 35.6718 35.2016 35.6513 35.0633 35.587C34.9282 35.5265 34.7932 35.4727 34.6581 35.423C34.5156 35.371 34.3926 35.2767 34.3056 35.1529C34.2187 35.0291 34.172 34.8817 34.1719 34.7307V33.4213C34.1701 33.2283 34.0923 33.0437 33.9551 32.9071C33.818 32.7706 33.6325 32.6932 33.4385 32.6914H32.2689C32.0727 32.6918 31.8847 32.7695 31.7459 32.9076C31.6072 33.0456 31.5291 33.2328 31.5288 33.4281V34.7374C31.5286 34.8884 31.4819 35.0358 31.395 35.1596C31.308 35.2834 31.185 35.3777 31.0425 35.4297C30.9075 35.4794 30.7724 35.5332 30.6455 35.5937C30.5071 35.658 30.3523 35.6786 30.2018 35.6526C30.0514 35.6266 29.9126 35.5554 29.804 35.4485L28.8735 34.5237C28.8047 34.4552 28.7231 34.401 28.6333 34.364C28.5435 34.3269 28.4473 34.3079 28.3501 34.3079C28.2529 34.3079 28.1567 34.3269 28.0669 34.364C27.9771 34.401 27.8955 34.4552 27.8267 34.5237L27.0002 35.3463C26.9314 35.4148 26.8769 35.496 26.8397 35.5853C26.8025 35.6747 26.7834 35.7705 26.7834 35.8673C26.7834 35.964 26.8025 36.0598 26.8397 36.1492C26.8769 36.2385 26.9314 36.3198 27.0002 36.3882L27.9307 37.3144C28.0384 37.4222 28.1101 37.5605 28.1359 37.7104C28.1618 37.8602 28.1406 38.0144 28.0753 38.1518C28.0158 38.2863 27.9604 38.4126 27.9105 38.5471C27.8586 38.6889 27.7642 38.8114 27.64 38.898C27.5158 38.9845 27.3679 39.031 27.2163 39.031H25.9008C25.7045 39.031 25.5162 39.1086 25.3774 39.2468C25.2386 39.3849 25.1606 39.5723 25.1606 39.7677V40.9318C25.1606 41.1272 25.2386 41.3146 25.3774 41.4527C25.5162 41.5909 25.7045 41.6685 25.9008 41.6685H27.2163C27.3679 41.6685 27.5158 41.7149 27.64 41.8015C27.7642 41.8881 27.8586 42.0106 27.9105 42.1524C27.9604 42.2868 28.0158 42.4213 28.0753 42.5476C28.1406 42.6851 28.1618 42.8392 28.1359 42.9891C28.1101 43.139 28.0384 43.2772 27.9307 43.3851L27.0002 44.3113C26.9314 44.3797 26.8769 44.4609 26.8397 44.5503C26.8025 44.6397 26.7834 44.7355 26.7834 44.8322C26.7834 44.929 26.8025 45.0248 26.8397 45.1141C26.8769 45.2035 26.9314 45.2847 27.0002 45.3531L27.8267 46.1758C27.8955 46.2442 27.9771 46.2985 28.0669 46.3355C28.1567 46.3725 28.2529 46.3916 28.3501 46.3916C28.4473 46.3916 28.5435 46.3725 28.6333 46.3355C28.7231 46.2985 28.8047 46.2442 28.8735 46.1758L29.804 45.251C29.9126 45.1441 30.0514 45.0728 30.2018 45.0469C30.3523 45.0209 30.5071 45.0415 30.6455 45.1058C30.7805 45.1663 30.9075 45.22 31.0425 45.2698C31.1851 45.3216 31.3083 45.4158 31.3952 45.5397C31.4822 45.6635 31.5288 45.811 31.5288 45.9621V47.2701C31.5288 47.4656 31.6067 47.6531 31.7455 47.7914C31.8842 47.9298 32.0725 48.0077 32.2689 48.0081H33.4385C33.5358 48.0081 33.6322 47.989 33.7221 47.9519C33.8119 47.9148 33.8936 47.8604 33.9623 47.7918C34.0311 47.7233 34.0856 47.6419 34.1227 47.5524C34.1598 47.4629 34.1788 47.3669 34.1786 47.2701V45.9621C34.1786 45.811 34.2252 45.6635 34.3122 45.5397C34.3991 45.4158 34.5223 45.3216 34.6649 45.2698C34.7999 45.22 34.935 45.1663 35.07 45.1058C35.2081 45.0414 35.3628 45.0208 35.513 45.0468C35.6633 45.0727 35.8019 45.144 35.9101 45.251L36.8407 46.1758C36.9094 46.2442 36.991 46.2985 37.0808 46.3355C37.1706 46.3725 37.2668 46.3916 37.364 46.3916C37.4612 46.3916 37.5575 46.3725 37.6473 46.3355C37.7371 46.2985 37.8187 46.2442 37.8874 46.1758L38.7153 45.3531C38.7841 45.2847 38.8386 45.2035 38.8758 45.1141C38.913 45.0248 38.9321 44.929 38.9321 44.8322C38.9321 44.7355 38.913 44.6397 38.8758 44.5503C38.8386 44.4609 38.7841 44.3797 38.7153 44.3113L37.7848 43.3851C37.6772 43.2772 37.6055 43.139 37.5794 42.9892C37.5533 42.8394 37.5741 42.6853 37.6389 42.5476C37.6997 42.4132 37.755 42.2868 37.8037 42.1524C37.8561 42.0107 37.9508 41.8884 38.0752 41.8018C38.1995 41.7153 38.3475 41.6688 38.4992 41.6685H39.8147C40.011 41.6685 40.1993 41.5909 40.3381 41.4527C40.4769 41.3146 40.5549 41.1272 40.5549 40.9318V39.7677C40.5558 39.6698 40.5371 39.5727 40.4998 39.4821C40.4626 39.3915 40.4076 39.3092 40.3381 39.24C40.2686 39.1708 40.1859 39.1161 40.0949 39.079C40.0038 39.042 39.9063 39.0234 39.808 39.0243ZM32.8537 44.2858C31.8031 44.2858 30.7955 43.8704 30.0526 43.131C29.3097 42.3916 28.8924 41.3887 28.8924 40.343C28.8924 39.2973 29.3097 38.2945 30.0526 37.5551C30.7955 36.8157 31.8031 36.4003 32.8537 36.4003C33.9044 36.4003 34.9121 36.8156 35.6553 37.555C36.3984 38.2944 36.816 39.2972 36.8164 40.343C36.816 41.3888 36.3984 42.3917 35.6553 43.131C34.9121 43.8704 33.9044 44.2858 32.8537 44.2858Z" fill="white"/>
</g>
<path d="M19.2382 46.8641H18.3522C18.1679 46.8637 17.9912 46.7907 17.8608 46.6609C17.7304 46.5312 17.657 46.3553 17.6567 46.1718V45.1797C17.657 45.0921 17.6304 45.0065 17.5805 44.9344C17.5305 44.8623 17.4595 44.8072 17.3771 44.7764C17.2718 44.7388 17.1678 44.6958 17.0651 44.6487C16.9855 44.6117 16.8964 44.5997 16.8098 44.6144C16.7232 44.629 16.6431 44.6696 16.5802 44.7307L15.8752 45.4324C15.8109 45.497 15.7343 45.5482 15.6499 45.583C15.5655 45.6178 15.475 45.6357 15.3836 45.6354C15.2922 45.6357 15.2017 45.6178 15.1173 45.583C15.0329 45.5482 14.9563 45.497 14.892 45.4324L14.2653 44.8087C14.2006 44.7445 14.1492 44.6683 14.1142 44.5843C14.0792 44.5003 14.0613 44.4103 14.0614 44.3194C14.0611 44.2284 14.079 44.1384 14.114 44.0544C14.149 43.9704 14.2005 43.8941 14.2653 43.8301L14.9703 43.1284C15.0317 43.0658 15.0725 42.9861 15.0872 42.8999C15.1019 42.8136 15.0899 42.725 15.0527 42.6458C15.0054 42.5449 14.9622 42.4401 14.9244 42.3352C14.8938 42.253 14.8385 42.1821 14.766 42.1323C14.6935 42.0825 14.6073 42.0562 14.5192 42.057H13.5225C13.3381 42.0566 13.1614 41.9836 13.031 41.8538C12.9007 41.724 12.8273 41.5482 12.8269 41.3647V40.4882C12.8273 40.3047 12.9007 40.1288 13.031 39.9991C13.1614 39.8693 13.3381 39.7963 13.5225 39.7959H14.5192C14.6073 39.7966 14.6935 39.7703 14.766 39.7205C14.8385 39.6707 14.8938 39.5999 14.9244 39.5176C14.9622 39.4128 15.0054 39.3079 15.0527 39.2071C15.0899 39.1279 15.1019 39.0392 15.0872 38.953C15.0725 38.8668 15.0317 38.7871 14.9703 38.7245L14.2653 38.0241C14.2005 37.9597 14.1492 37.8832 14.1142 37.799C14.0792 37.7148 14.0612 37.6246 14.0614 37.5335C14.0613 37.4426 14.0792 37.3525 14.1142 37.2686C14.1492 37.1846 14.2006 37.1083 14.2653 37.0442L14.892 36.4204C15.0228 36.2914 15.1994 36.219 15.3836 36.219C15.5678 36.219 15.7445 36.2914 15.8752 36.4204L16.5802 37.1221C16.6429 37.1836 16.723 37.2244 16.8097 37.239C16.8964 37.2537 16.9856 37.2415 17.0651 37.2041C17.1664 37.1584 17.2704 37.1154 17.3771 37.0764C17.4596 37.0458 17.5307 36.9907 17.5807 36.9186C17.6307 36.8465 17.6572 36.7608 17.6567 36.6731V35.6811C17.657 35.4976 17.7304 35.3217 17.8608 35.1919C17.9912 35.0622 18.1679 34.9891 18.3522 34.9888H19.2382C19.4226 34.9891 19.5993 35.0622 19.7297 35.1919C19.86 35.3217 19.9334 35.4976 19.9338 35.6811V36.6731C19.9328 36.7609 19.9592 36.8467 20.0093 36.9189C20.0593 36.9912 20.1306 37.0462 20.2134 37.0764C20.3187 37.1154 20.4241 37.1584 20.524 37.2041C20.6038 37.2414 20.6931 37.2536 20.78 37.2389C20.8669 37.2243 20.9473 37.1835 21.0102 37.1221L21.7139 36.4204C21.8449 36.2913 22.0218 36.2189 22.2062 36.2189C22.3906 36.2189 22.5675 36.2913 22.6985 36.4204L23.3238 37.0442C23.3888 37.1081 23.4403 37.1844 23.4753 37.2684C23.5103 37.3524 23.5281 37.4425 23.5278 37.5335C23.5282 37.6246 23.5104 37.715 23.4753 37.7992C23.4403 37.8835 23.3888 37.9599 23.3238 38.0241L22.6201 38.7245C22.5586 38.7872 22.5176 38.8671 22.5027 38.9535C22.4877 39.0399 22.4995 39.1288 22.5364 39.2084C22.5837 39.3079 22.6269 39.4128 22.6715 39.5176C22.7017 39.6001 22.7569 39.6712 22.8295 39.721C22.9021 39.7709 22.9885 39.797 23.0767 39.7959H24.0734C24.2578 39.7963 24.4345 39.8693 24.5648 39.9991C24.6952 40.1288 24.7686 40.3047 24.769 40.4882V41.37C24.7686 41.5535 24.6952 41.7294 24.5648 41.8592C24.4345 41.9889 24.2578 42.062 24.0734 42.0623H23.0767C22.9885 42.0612 22.9021 42.0874 22.8295 42.1372C22.7569 42.1871 22.7017 42.2581 22.6715 42.3406C22.6323 42.4455 22.5891 42.5503 22.5364 42.6511C22.4994 42.7305 22.4876 42.8192 22.5025 42.9054C22.5175 42.9917 22.5585 43.0713 22.6201 43.1337L23.3238 43.8354C23.3889 43.8993 23.4405 43.9755 23.4755 44.0596C23.5105 44.1436 23.5283 44.2338 23.5278 44.3248C23.5281 44.4157 23.5103 44.5058 23.4753 44.5899C23.4403 44.6739 23.3888 44.7501 23.3238 44.8141L22.6985 45.4378C22.6338 45.5023 22.5569 45.5534 22.4723 45.5882C22.3877 45.623 22.2971 45.6409 22.2055 45.6408C22.1142 45.6409 22.0237 45.623 21.9393 45.5882C21.855 45.5533 21.7783 45.5022 21.7139 45.4378L21.0102 44.7361C20.9471 44.675 20.8667 44.6345 20.7799 44.6199C20.6931 44.6052 20.6039 44.6172 20.524 44.6541C20.4227 44.7012 20.3174 44.7442 20.2134 44.7818C20.1307 44.8122 20.0596 44.8673 20.0095 44.9395C19.9595 45.0116 19.933 45.0974 19.9338 45.1851V46.1772C19.932 46.3597 19.858 46.5342 19.7278 46.6628C19.5976 46.7914 19.4217 46.8637 19.2382 46.8641ZM16.8828 44.3449C16.9849 44.3451 17.0857 44.3671 17.1786 44.4094C17.2745 44.4538 17.3717 44.4941 17.4689 44.5291C17.6028 44.5781 17.7184 44.6668 17.8002 44.783C17.8821 44.8993 17.9262 45.0377 17.9268 45.1797V46.1718C17.9268 46.2841 17.9716 46.3918 18.0514 46.4712C18.1312 46.5506 18.2394 46.5952 18.3522 46.5952H19.2382C19.351 46.5949 19.459 46.5502 19.5387 46.4708C19.6184 46.3915 19.6633 46.284 19.6637 46.1718V45.1797C19.664 45.038 19.708 44.8999 19.7896 44.7838C19.8712 44.6677 19.9866 44.5793 20.1202 44.5304C20.2174 44.4941 20.316 44.4538 20.4106 44.4094C20.5404 44.3493 20.6855 44.33 20.8267 44.354C20.9678 44.378 21.0983 44.4443 21.2007 44.5439L21.9057 45.2442C21.9863 45.3219 22.094 45.3652 22.2062 45.3652C22.3183 45.3652 22.4261 45.3219 22.5067 45.2442L23.1334 44.6218C23.173 44.5826 23.2045 44.5359 23.2258 44.4844C23.2471 44.4329 23.258 44.3777 23.2576 44.3221C23.258 44.2664 23.2471 44.2112 23.2258 44.1597C23.2045 44.1083 23.173 44.0615 23.1334 44.0223L22.4284 43.3206C22.3279 43.2192 22.2611 43.0895 22.2369 42.9492C22.2128 42.8088 22.2325 42.6644 22.2933 42.5355C22.3365 42.4414 22.3784 42.3433 22.4135 42.2465C22.4626 42.1132 22.5516 41.998 22.6685 41.9165C22.7854 41.8351 22.9245 41.7912 23.0672 41.7908H24.0639C24.1767 41.7904 24.2847 41.7457 24.3644 41.6664C24.4441 41.587 24.489 41.4795 24.4894 41.3674V40.4882C24.489 40.376 24.4441 40.2685 24.3644 40.1892C24.2847 40.1098 24.1767 40.0651 24.0639 40.0648H23.0672C22.9247 40.0643 22.7858 40.0205 22.669 39.9393C22.5521 39.8581 22.463 39.7434 22.4135 39.6104C22.377 39.5123 22.3365 39.4141 22.2933 39.3214C22.2327 39.1922 22.2132 39.0477 22.2373 38.9072C22.2615 38.7666 22.3281 38.6368 22.4284 38.535L23.1334 37.8333C23.1732 37.7941 23.2048 37.7474 23.2261 37.6959C23.2475 37.6444 23.2582 37.5892 23.2576 37.5335C23.258 37.4778 23.2471 37.4226 23.2258 37.3712C23.2045 37.3197 23.173 37.273 23.1334 37.2337L22.5067 36.6113C22.4673 36.5719 22.4205 36.5407 22.3689 36.5193C22.3173 36.498 22.262 36.487 22.2062 36.487C22.1503 36.487 22.0951 36.498 22.0435 36.5193C21.9919 36.5407 21.9451 36.5719 21.9057 36.6113L21.2007 37.3117C21.0985 37.4116 20.968 37.4781 20.8268 37.5021C20.6855 37.5261 20.5403 37.5066 20.4106 37.4461C20.3174 37.4031 20.2188 37.3628 20.1202 37.3265C19.9867 37.277 19.8715 37.1883 19.7899 37.072C19.7084 36.9558 19.6643 36.8176 19.6637 36.6758V35.6838C19.6633 35.5716 19.6184 35.4641 19.5387 35.3847C19.459 35.3054 19.351 35.2607 19.2382 35.2603H18.3522C18.2394 35.2603 18.1312 35.3049 18.0514 35.3843C17.9716 35.4637 17.9268 35.5715 17.9268 35.6838V36.6758C17.9271 36.8178 17.8838 36.9564 17.8027 37.0732C17.7215 37.19 17.6065 37.2793 17.473 37.3292C17.3744 37.3654 17.2772 37.4058 17.1826 37.4488C17.0531 37.5092 16.9081 37.5286 16.7671 37.5046C16.6261 37.4806 16.4958 37.4142 16.3939 37.3144L15.6888 36.614C15.6089 36.5347 15.5006 36.4902 15.3877 36.4902C15.2748 36.4902 15.1665 36.5347 15.0865 36.614L14.4598 37.2364C14.3802 37.316 14.3355 37.4238 14.3355 37.5362C14.3353 37.5918 14.3461 37.647 14.3675 37.6984C14.3888 37.7499 14.4202 37.7966 14.4598 37.8359L15.1648 38.5377C15.2652 38.6394 15.332 38.7692 15.3561 38.9098C15.3803 39.0504 15.3606 39.1949 15.2999 39.3241C15.2566 39.4168 15.2161 39.5149 15.1797 39.6131C15.1306 39.7461 15.0417 39.8609 14.9251 39.9421C14.8085 40.0233 14.6697 40.0671 14.5273 40.0674H13.5306C13.4177 40.0674 13.3095 40.1121 13.2297 40.1915C13.15 40.2709 13.1051 40.3786 13.1051 40.4909V41.3727C13.1051 41.485 13.15 41.5927 13.2297 41.6722C13.3095 41.7516 13.4177 41.7962 13.5306 41.7962H14.5273C14.6697 41.7965 14.8085 41.8403 14.9251 41.9215C15.0417 42.0027 15.1306 42.1176 15.1797 42.2505C15.2161 42.3487 15.2566 42.4468 15.2999 42.5409C15.3607 42.6698 15.3804 42.8142 15.3562 42.9545C15.3321 43.0949 15.2653 43.2246 15.1648 43.326L14.4598 44.0277C14.3802 44.1073 14.3355 44.2151 14.3355 44.3274C14.3355 44.4398 14.3802 44.5476 14.4598 44.6272L15.0865 45.2496C15.1675 45.327 15.2754 45.3702 15.3877 45.3702C15.4999 45.3702 15.6078 45.327 15.6888 45.2496L16.3939 44.5492C16.5233 44.4196 16.6991 44.3461 16.8828 44.3449ZM18.7952 44.0505C17.9637 44.0498 17.1664 43.7207 16.5785 43.1355C15.9905 42.5503 15.6598 41.7567 15.6591 40.9291C15.6598 40.1015 15.9905 39.308 16.5785 38.7227C17.1664 38.1375 17.9637 37.8084 18.7952 37.8077C19.6264 37.8091 20.4231 38.1385 21.0107 38.7236C21.5983 39.3087 21.9289 40.1018 21.93 40.9291C21.9289 41.7564 21.5983 42.5495 21.0107 43.1346C20.4231 43.7197 19.6264 44.0491 18.7952 44.0505ZM18.7952 38.0766C18.0353 38.0773 17.3068 38.378 16.7695 38.9128C16.2321 39.4476 15.93 40.1728 15.9292 40.9291C15.93 41.6854 16.2321 42.4106 16.7695 42.9454C17.3068 43.4802 18.0353 43.781 18.7952 43.7817C19.5549 43.7806 20.2831 43.4797 20.8201 42.9449C21.3572 42.4102 21.6592 41.6852 21.6599 40.9291C21.6592 40.173 21.3572 39.4481 20.8201 38.9133C20.2831 38.3786 19.5549 38.0776 18.7952 38.0766Z" fill="white"/>
</g>
<g opacity="0.81">
<path d="M47.8901 32.2881H46.1343C46.0985 32.2881 46.0642 32.274 46.0388 32.2488C46.0135 32.2236 45.9993 32.1894 45.9993 32.1537C45.9993 32.1181 46.0135 32.0839 46.0388 32.0587C46.0642 32.0334 46.0985 32.0193 46.1343 32.0193H47.8901C47.9259 32.0193 47.9603 32.0334 47.9856 32.0587C48.0109 32.0839 48.0252 32.1181 48.0252 32.1537C48.0252 32.1894 48.0109 32.2236 47.9856 32.2488C47.9603 32.274 47.9259 32.2881 47.8901 32.2881Z" fill="white"/>
<path d="M47.8901 35.1702H46.1343C46.0985 35.1702 46.0642 35.1561 46.0388 35.1308C46.0135 35.1056 45.9993 35.0714 45.9993 35.0358C45.9993 35.0001 46.0135 34.9659 46.0388 34.9407C46.0642 34.9155 46.0985 34.9014 46.1343 34.9014H47.8901C47.9259 34.9014 47.9603 34.9155 47.9856 34.9407C48.0109 34.9659 48.0252 35.0001 48.0252 35.0358C48.0252 35.0714 48.0109 35.1056 47.9856 35.1308C47.9603 35.1561 47.9259 35.1702 47.8901 35.1702Z" fill="white"/>
<path d="M49.1353 38.0873H38.429C38.3318 38.0869 38.2387 38.0483 38.1701 37.9797C38.1015 37.9112 38.063 37.8184 38.063 37.7217V28.8145C38.063 28.7178 38.1015 28.625 38.1701 28.5564C38.2387 28.4879 38.3318 28.4492 38.429 28.4489H49.1353C49.2325 28.4492 49.3256 28.4879 49.3942 28.5564C49.4628 28.625 49.5013 28.7178 49.5013 28.8145V37.7217C49.5013 37.8184 49.4628 37.9112 49.3942 37.9797C49.3256 38.0483 49.2325 38.0869 49.1353 38.0873ZM38.429 28.7177C38.4163 28.7177 38.4037 28.7202 38.392 28.7251C38.3803 28.73 38.3696 28.7371 38.3607 28.7461C38.3518 28.7551 38.3448 28.7658 38.34 28.7776C38.3353 28.7893 38.3329 28.8018 38.3331 28.8145V37.7217C38.3329 37.7343 38.3353 37.7469 38.34 37.7586C38.3448 37.7703 38.3518 37.781 38.3607 37.79C38.3696 37.799 38.3803 37.8062 38.392 37.8111C38.4037 37.8159 38.4163 37.8184 38.429 37.8184H49.1353C49.148 37.8184 49.1605 37.8159 49.1723 37.8111C49.184 37.8062 49.1946 37.799 49.2035 37.79C49.2125 37.781 49.2195 37.7703 49.2242 37.7586C49.229 37.7469 49.2313 37.7343 49.2312 37.7217V28.8145C49.2313 28.8018 49.229 28.7893 49.2242 28.7776C49.2195 28.7658 49.2125 28.7551 49.2035 28.7461C49.1946 28.7371 49.184 28.73 49.1723 28.7251C49.1605 28.7202 49.148 28.7177 49.1353 28.7177H38.429Z" fill="white"/>
<path opacity="0.66" d="M49.1353 38.0873H38.429C38.3318 38.0869 38.2387 38.0483 38.1701 37.9797C38.1015 37.9112 38.063 37.8184 38.063 37.7217V28.8145C38.063 28.7178 38.1015 28.625 38.1701 28.5564C38.2387 28.4879 38.3318 28.4492 38.429 28.4489H49.1353C49.2325 28.4492 49.3256 28.4879 49.3942 28.5564C49.4628 28.625 49.5013 28.7178 49.5013 28.8145V37.7217C49.5013 37.8184 49.4628 37.9112 49.3942 37.9797C49.3256 38.0483 49.2325 38.0869 49.1353 38.0873ZM38.429 28.7177C38.4163 28.7177 38.4037 28.7202 38.392 28.7251C38.3803 28.73 38.3696 28.7371 38.3607 28.7461C38.3518 28.7551 38.3448 28.7658 38.34 28.7776C38.3353 28.7893 38.3329 28.8018 38.3331 28.8145V37.7217C38.3329 37.7343 38.3353 37.7469 38.34 37.7586C38.3448 37.7703 38.3518 37.781 38.3607 37.79C38.3696 37.799 38.3803 37.8062 38.392 37.8111C38.4037 37.8159 38.4163 37.8184 38.429 37.8184H49.1353C49.148 37.8184 49.1605 37.8159 49.1723 37.8111C49.184 37.8062 49.1946 37.799 49.2035 37.79C49.2125 37.781 49.2195 37.7703 49.2242 37.7586C49.229 37.7469 49.2313 37.7343 49.2312 37.7217V28.8145C49.2313 28.8018 49.229 28.7893 49.2242 28.7776C49.2195 28.7658 49.2125 28.7551 49.2035 28.7461C49.1946 28.7371 49.184 28.73 49.1723 28.7251C49.1605 28.7202 49.148 28.7177 49.1353 28.7177H38.429Z" fill="white"/>
<path d="M47.89 30.8807H39.5001C39.4642 30.8807 39.4299 30.8665 39.4045 30.8413C39.3792 30.8161 39.365 30.7819 39.365 30.7462C39.365 30.7106 39.3792 30.6764 39.4045 30.6512C39.4299 30.626 39.4642 30.6118 39.5001 30.6118H47.89C47.9258 30.6118 47.9602 30.626 47.9855 30.6512C48.0108 30.6764 48.0251 30.7106 48.0251 30.7462C48.0251 30.7639 48.0216 30.7814 48.0148 30.7977C48.008 30.814 47.9981 30.8288 47.9855 30.8413C47.973 30.8538 47.9581 30.8637 47.9417 30.8704C47.9253 30.8772 47.9078 30.8807 47.89 30.8807Z" fill="white"/>
<path d="M47.89 33.6834H39.5001C39.4642 33.6834 39.4299 33.6692 39.4045 33.644C39.3792 33.6188 39.365 33.5846 39.365 33.549C39.365 33.5133 39.3792 33.4791 39.4045 33.4539C39.4299 33.4287 39.4642 33.4146 39.5001 33.4146H47.89C47.9258 33.4146 47.9602 33.4287 47.9855 33.4539C48.0108 33.4791 48.0251 33.5133 48.0251 33.549C48.0251 33.5666 48.0216 33.5841 48.0148 33.6004C48.008 33.6167 47.9981 33.6316 47.9855 33.644C47.973 33.6565 47.9581 33.6664 47.9417 33.6732C47.9253 33.6799 47.9078 33.6834 47.89 33.6834Z" fill="white"/>
<path d="M44.0232 32.2881H39.5001C39.4642 32.2881 39.4299 32.274 39.4045 32.2488C39.3792 32.2236 39.365 32.1894 39.365 32.1537C39.365 32.1181 39.3792 32.0839 39.4045 32.0587C39.4299 32.0334 39.4642 32.0193 39.5001 32.0193H44.0232C44.0591 32.0193 44.0934 32.0334 44.1187 32.0587C44.1441 32.0839 44.1583 32.1181 44.1583 32.1537C44.1583 32.1894 44.1441 32.2236 44.1187 32.2488C44.0934 32.274 44.0591 32.2881 44.0232 32.2881Z" fill="white"/>
<path d="M44.0232 35.1702H39.5001C39.4642 35.1702 39.4299 35.1561 39.4045 35.1308C39.3792 35.1056 39.365 35.0714 39.365 35.0358C39.365 35.0001 39.3792 34.9659 39.4045 34.9407C39.4299 34.9155 39.4642 34.9014 39.5001 34.9014H44.0232C44.0591 34.9014 44.0934 34.9155 44.1187 34.9407C44.1441 34.9659 44.1583 35.0001 44.1583 35.0358C44.1583 35.0714 44.1441 35.1056 44.1187 35.1308C44.0934 35.1561 44.0591 35.1702 44.0232 35.1702Z" fill="white"/>
<path d="M42.5497 36.5077H39.5001C39.4642 36.5077 39.4299 36.4936 39.4045 36.4684C39.3792 36.4432 39.365 36.409 39.365 36.3733C39.365 36.3377 39.3792 36.3035 39.4045 36.2783C39.4299 36.2531 39.4642 36.2389 39.5001 36.2389H42.5497C42.5855 36.2389 42.6199 36.2531 42.6452 36.2783C42.6706 36.3035 42.6848 36.3377 42.6848 36.3733C42.6848 36.409 42.6706 36.4432 42.6452 36.4684C42.6199 36.4936 42.5855 36.5077 42.5497 36.5077Z" fill="white"/>
</g>
<g opacity="0.81">
<path d="M13.6346 17.5817H11.637C11.6012 17.5817 11.5668 17.5676 11.5415 17.5423C11.5162 17.5171 11.502 17.4829 11.502 17.4473C11.502 17.4116 11.5162 17.3774 11.5415 17.3522C11.5668 17.327 11.6012 17.3129 11.637 17.3129H13.6346C13.6704 17.3129 13.7047 17.327 13.7301 17.3522C13.7554 17.3774 13.7696 17.4116 13.7696 17.4473C13.7696 17.4829 13.7554 17.5171 13.7301 17.5423C13.7047 17.5676 13.6704 17.5817 13.6346 17.5817Z" fill="white"/>
<path d="M13.6346 20.8618H11.637C11.6012 20.8618 11.5668 20.8476 11.5415 20.8224C11.5162 20.7972 11.502 20.763 11.502 20.7273C11.502 20.6917 11.5162 20.6575 11.5415 20.6323C11.5668 20.6071 11.6012 20.5929 11.637 20.5929H13.6346C13.6704 20.5929 13.7047 20.6071 13.7301 20.6323C13.7554 20.6575 13.7696 20.6917 13.7696 20.7273C13.7696 20.763 13.7554 20.7972 13.7301 20.8224C13.7047 20.8476 13.6704 20.8618 13.6346 20.8618Z" fill="white"/>
<path d="M15.0771 24.166H2.86894C2.77187 24.166 2.67877 24.1276 2.61013 24.0593C2.54149 23.991 2.50293 23.8983 2.50293 23.8017V13.6336C2.50293 13.5369 2.54145 13.4441 2.61005 13.3755C2.67865 13.307 2.77175 13.2683 2.86894 13.268H15.0771C15.1256 13.2674 15.1737 13.2765 15.2187 13.2947C15.2637 13.3128 15.3046 13.3397 15.339 13.3737C15.3734 13.4077 15.4007 13.4482 15.4193 13.4928C15.4379 13.5375 15.4473 13.5853 15.4471 13.6336V23.8017C15.4471 23.8499 15.4375 23.8976 15.4189 23.942C15.4003 23.9865 15.3729 24.0269 15.3385 24.0607C15.3041 24.0946 15.2633 24.1214 15.2184 24.1394C15.1735 24.1575 15.1255 24.1665 15.0771 24.166ZM2.86894 13.5368C2.85624 13.5368 2.84366 13.5393 2.83193 13.5442C2.82021 13.5491 2.80958 13.5562 2.80065 13.5653C2.79173 13.5743 2.7847 13.5849 2.77996 13.5967C2.77522 13.6084 2.77287 13.621 2.77305 13.6336V23.8017C2.77305 23.827 2.78315 23.8513 2.80114 23.8692C2.81912 23.8871 2.84351 23.8971 2.86894 23.8971H15.0771C15.1025 23.8971 15.1269 23.8871 15.1449 23.8692C15.1629 23.8513 15.173 23.827 15.173 23.8017V13.6336C15.1731 13.621 15.1708 13.6084 15.1661 13.5967C15.1613 13.5849 15.1543 13.5743 15.1454 13.5653C15.1364 13.5562 15.1258 13.5491 15.1141 13.5442C15.1024 13.5393 15.0898 13.5368 15.0771 13.5368H2.86894Z" fill="white"/>
<path opacity="0.66" d="M15.0771 24.166H2.86894C2.77187 24.166 2.67877 24.1276 2.61013 24.0593C2.54149 23.991 2.50293 23.8983 2.50293 23.8017V13.6336C2.50293 13.5369 2.54145 13.4441 2.61005 13.3755C2.67865 13.307 2.77175 13.2683 2.86894 13.268H15.0771C15.1256 13.2674 15.1737 13.2765 15.2187 13.2947C15.2637 13.3128 15.3046 13.3397 15.339 13.3737C15.3734 13.4077 15.4007 13.4482 15.4193 13.4928C15.4379 13.5375 15.4473 13.5853 15.4471 13.6336V23.8017C15.4471 23.8499 15.4375 23.8976 15.4189 23.942C15.4003 23.9865 15.3729 24.0269 15.3385 24.0607C15.3041 24.0946 15.2633 24.1214 15.2184 24.1394C15.1735 24.1575 15.1255 24.1665 15.0771 24.166ZM2.86894 13.5368C2.85624 13.5368 2.84366 13.5393 2.83193 13.5442C2.82021 13.5491 2.80958 13.5562 2.80065 13.5653C2.79173 13.5743 2.7847 13.5849 2.77996 13.5967C2.77522 13.6084 2.77287 13.621 2.77305 13.6336V23.8017C2.77305 23.827 2.78315 23.8513 2.80114 23.8692C2.81912 23.8871 2.84351 23.8971 2.86894 23.8971H15.0771C15.1025 23.8971 15.1269 23.8871 15.1449 23.8692C15.1629 23.8513 15.173 23.827 15.173 23.8017V13.6336C15.1731 13.621 15.1708 13.6084 15.1661 13.5967C15.1613 13.5849 15.1543 13.5743 15.1454 13.5653C15.1364 13.5562 15.1258 13.5491 15.1141 13.5442C15.1024 13.5393 15.0898 13.5368 15.0771 13.5368H2.86894Z" fill="white"/>
<path d="M13.6347 15.9915H4.11431C4.07849 15.9915 4.04414 15.9773 4.01881 15.9521C3.99348 15.9269 3.97925 15.8927 3.97925 15.857C3.97925 15.8214 3.99348 15.7872 4.01881 15.762C4.04414 15.7368 4.07849 15.7226 4.11431 15.7226H13.6347C13.6706 15.7226 13.7049 15.7368 13.7302 15.762C13.7556 15.7872 13.7698 15.8214 13.7698 15.857C13.7698 15.8927 13.7556 15.9269 13.7302 15.9521C13.7049 15.9773 13.6706 15.9915 13.6347 15.9915Z" fill="white"/>
<path d="M13.6347 19.1706H4.11431C4.07849 19.1706 4.04414 19.1565 4.01881 19.1313C3.99348 19.1061 3.97925 19.0719 3.97925 19.0362C3.97925 19.0006 3.99348 18.9664 4.01881 18.9412C4.04414 18.916 4.07849 18.9018 4.11431 18.9018H13.6347C13.6706 18.9018 13.7049 18.916 13.7302 18.9412C13.7556 18.9664 13.7698 19.0006 13.7698 19.0362C13.7698 19.0719 13.7556 19.1061 13.7302 19.1313C13.7049 19.1565 13.6706 19.1706 13.6347 19.1706Z" fill="white"/>
<path d="M9.24661 17.5817H4.11431C4.07849 17.5817 4.04414 17.5676 4.01881 17.5423C3.99348 17.5171 3.97925 17.4829 3.97925 17.4473C3.97925 17.4116 3.99348 17.3774 4.01881 17.3522C4.04414 17.327 4.07849 17.3129 4.11431 17.3129H9.24661C9.28243 17.3129 9.31679 17.327 9.34212 17.3522C9.36745 17.3774 9.38167 17.4116 9.38167 17.4473C9.38167 17.4829 9.36745 17.5171 9.34212 17.5423C9.31679 17.5676 9.28243 17.5817 9.24661 17.5817Z" fill="white"/>
<path d="M9.24661 20.8618H4.11431C4.07849 20.8618 4.04414 20.8476 4.01881 20.8224C3.99348 20.7972 3.97925 20.763 3.97925 20.7273C3.97925 20.6917 3.99348 20.6575 4.01881 20.6323C4.04414 20.6071 4.07849 20.5929 4.11431 20.5929H9.24661C9.28243 20.5929 9.31679 20.6071 9.34212 20.6323C9.36745 20.6575 9.38167 20.6917 9.38167 20.7273C9.38167 20.763 9.36745 20.7972 9.34212 20.8224C9.31679 20.8476 9.28243 20.8618 9.24661 20.8618Z" fill="white"/>
<path d="M7.57591 22.3754H4.11431C4.07849 22.3754 4.04414 22.3613 4.01881 22.336C3.99348 22.3108 3.97925 22.2766 3.97925 22.241C3.97925 22.2053 3.99348 22.1712 4.01881 22.1459C4.04414 22.1207 4.07849 22.1066 4.11431 22.1066H7.57591C7.61173 22.1066 7.64609 22.1207 7.67141 22.1459C7.69674 22.1712 7.71097 22.2053 7.71097 22.241C7.71097 22.2766 7.69674 22.3108 7.67141 22.336C7.64609 22.3613 7.61173 22.3754 7.57591 22.3754Z" fill="white"/>
</g>
<path d="M48.8071 13.0717H42.7294C42.5891 13.0781 42.4546 13.1294 42.346 13.2181C42.2375 13.3068 42.1606 13.428 42.127 13.5637L41.9271 14.2278C41.8934 14.3635 41.8166 14.4847 41.708 14.5734C41.5995 14.6621 41.465 14.7134 41.3247 14.7198H32.6336C32.2811 14.7198 31.9961 15.0478 31.9961 15.4524V25.2455C31.9961 25.6487 32.2811 25.9781 32.6336 25.9781H48.8071C48.9939 25.969 49.1695 25.887 49.296 25.7499C49.4224 25.6127 49.4894 25.4315 49.4824 25.2455V13.8043C49.4894 13.6183 49.4224 13.4371 49.296 13.3C49.1695 13.1628 48.9939 13.0808 48.8071 13.0717Z" fill="#3E479B"/>
<path d="M42.601 14.8233L42.8158 14.1592C42.8569 14.0201 42.9412 13.8975 43.0567 13.8091C43.1723 13.7207 43.313 13.671 43.4587 13.6672H48.8071C48.9938 13.6763 49.1695 13.7583 49.2959 13.8955C49.4223 14.0326 49.4893 14.2139 49.4824 14.3999V25.8356C49.4893 26.0216 49.4223 26.2028 49.2959 26.34C49.1695 26.4772 48.9938 26.5592 48.8071 26.5682H32.6795C32.4927 26.5592 32.317 26.4772 32.1906 26.34C32.0642 26.2028 31.9972 26.0216 32.0042 25.8356V16.0466C31.9975 15.8608 32.0647 15.6799 32.1911 15.5431C32.3175 15.4062 32.4929 15.3244 32.6795 15.3153H41.9581C42.1039 15.3119 42.2448 15.2624 42.3604 15.174C42.476 15.0855 42.5603 14.9627 42.601 14.8233Z" fill="#6D6CD4"/>
<path opacity="0.12" d="M42.9994 15.4982L43.202 14.8717C43.2406 14.7402 43.3203 14.6245 43.4297 14.5413C43.539 14.4581 43.6722 14.4118 43.8098 14.4093H48.8475C49.0226 14.4197 49.1867 14.4975 49.3052 14.6262C49.4237 14.7549 49.4872 14.9244 49.4823 15.0989V25.8827C49.4875 26.0585 49.4232 26.2293 49.3033 26.3585C49.1833 26.4877 49.0173 26.5649 48.8408 26.5736H33.6451C33.4689 26.5646 33.3032 26.4872 33.1835 26.3581C33.0639 26.2289 32.9998 26.0583 33.0049 25.8827V16.6516C33.0001 16.476 33.0646 16.3055 33.1845 16.1766C33.3044 16.0477 33.4702 15.9707 33.6465 15.9619H42.3916C42.5292 15.9587 42.6623 15.912 42.7715 15.8287C42.8807 15.7453 42.9605 15.6296 42.9994 15.4982Z" fill="white"/>
<path d="M47.6415 25.7469H43.6531C43.6173 25.7469 43.583 25.7327 43.5576 25.7075C43.5323 25.6823 43.5181 25.6481 43.5181 25.6124C43.5181 25.5768 43.5323 25.5426 43.5576 25.5174C43.583 25.4922 43.6173 25.478 43.6531 25.478H47.6415C47.7652 25.478 47.8838 25.4292 47.9714 25.3422C48.059 25.2553 48.1084 25.1373 48.1088 25.0142V21.8646C48.1088 21.8289 48.123 21.7947 48.1483 21.7695C48.1737 21.7443 48.208 21.7302 48.2438 21.7302C48.2797 21.7302 48.314 21.7443 48.3393 21.7695C48.3647 21.7947 48.3789 21.8289 48.3789 21.8646V25.0142C48.3785 25.2087 48.3007 25.395 48.1624 25.5324C48.0242 25.6697 47.8368 25.7469 47.6415 25.7469Z" fill="white"/>
<path d="M1.18611 24.2104H7.2949C7.56503 24.2104 7.81219 24.4322 7.90133 24.7642L8.10392 25.5103C8.19306 25.8423 8.43751 26.0641 8.71034 26.0641H17.4569C17.8107 26.0641 18.0984 26.4325 18.0984 26.8882V37.9112C18.0984 38.3656 17.8107 38.7339 17.4569 38.7339H1.18611C0.80659 38.7339 0.5 38.3656 0.5 37.9112V25.0291C0.5 24.5787 0.80659 24.2104 1.18611 24.2104Z" fill="#F28393"/>
<path opacity="0.12" d="M7.42728 26.1797L7.20848 25.4323C7.17587 25.2825 7.09506 25.1474 6.9783 25.0474C6.86155 24.9475 6.71523 24.8882 6.56154 24.8785H1.18342C0.803904 24.8785 0.497314 25.2468 0.497314 25.7025V38.5726C0.497314 39.027 0.803904 39.3953 1.18342 39.3953H17.411C17.7891 39.3953 18.0957 39.027 18.0957 38.5726V27.5496C18.0957 27.0952 17.7891 26.7269 17.411 26.7269H8.07152C7.91922 26.717 7.7742 26.6584 7.6581 26.5598C7.542 26.4612 7.46103 26.3279 7.42728 26.1797Z" fill="white"/>
<path opacity="0.12" d="M7.03018 26.9392L6.82624 26.2389C6.79537 26.0977 6.71905 25.9703 6.60888 25.8762C6.4987 25.7821 6.36069 25.7263 6.21577 25.7173H1.14559C0.78903 25.7173 0.5 26.0655 0.5 26.4943V38.625C0.5 39.0538 0.78903 39.4007 1.14559 39.4007H16.4412C16.7991 39.4007 17.0882 39.0538 17.0882 38.625V28.2365C17.0882 27.8076 16.7991 27.4608 16.4412 27.4608H7.63931C7.49463 27.4515 7.35692 27.3956 7.24701 27.3015C7.13711 27.2074 7.06099 27.0802 7.03018 26.9392Z" fill="white"/>
<path d="M1.74932 28.9395C1.71589 28.9362 1.68492 28.9205 1.66244 28.8957C1.63997 28.8708 1.6276 28.8385 1.62777 28.8051V26.9392C1.62186 26.8242 1.66183 26.7115 1.73897 26.6257C1.81612 26.5398 1.9242 26.4878 2.03971 26.4808H4.55859C4.59177 26.4845 4.62243 26.5003 4.64462 26.5251C4.66682 26.5499 4.67899 26.582 4.67879 26.6153C4.67899 26.6485 4.66682 26.6806 4.64462 26.7054C4.62243 26.7303 4.59177 26.746 4.55859 26.7497H2.03971C1.99192 26.7525 1.94719 26.774 1.9153 26.8095C1.8834 26.845 1.86695 26.8917 1.86953 26.9392V28.8051C1.86973 28.8383 1.85756 28.8704 1.83536 28.8953C1.81316 28.9201 1.78251 28.9359 1.74932 28.9395Z" fill="white"/>
<path d="M34.4582 8.04144H17.1016C14.2193 8.04144 11.8828 10.367 11.8828 13.2357C11.8828 16.1044 14.2193 18.43 17.1016 18.43H34.4582C37.3404 18.43 39.6769 16.1044 39.6769 13.2357C39.6769 10.367 37.3404 8.04144 34.4582 8.04144Z" fill="#C5D9FF"/>
<path d="M25.7794 16.1407C29.8327 16.1407 33.1186 12.8702 33.1186 8.83592C33.1186 4.80159 29.8327 1.53113 25.7794 1.53113C21.7261 1.53113 18.4402 4.80159 18.4402 8.83592C18.4402 12.8702 21.7261 16.1407 25.7794 16.1407Z" fill="#599AF2"/>
<path d="M34.4582 6.51031H17.1016C14.2193 6.51031 11.8828 8.83587 11.8828 11.7046C11.8828 14.5733 14.2193 16.8989 17.1016 16.8989H34.4582C37.3404 16.8989 39.6769 14.5733 39.6769 11.7046C39.6769 8.83587 37.3404 6.51031 34.4582 6.51031Z" fill="#599AF2"/>
<path d="M28.6842 14.0147C32.4067 12.4183 34.1241 8.12065 32.5202 4.41562C30.9163 0.710587 26.5984 -0.998791 22.8759 0.597614C19.1534 2.19402 17.436 6.49168 19.0399 10.1967C20.6438 13.9017 24.9617 15.6111 28.6842 14.0147Z" fill="#599AF2"/>
<g opacity="0.35">
<path d="M34.4582 6.51038H17.1016C14.2193 6.51038 11.8828 8.83593 11.8828 11.7047C11.8828 14.5734 14.2193 16.8989 17.1016 16.8989H34.4582C37.3404 16.8989 39.6769 14.5734 39.6769 11.7047C39.6769 8.83593 37.3404 6.51038 34.4582 6.51038Z" fill="#ECF1F7"/>
<path d="M28.6842 14.0147C32.4067 12.4183 34.1241 8.12065 32.5202 4.41562C30.9163 0.710587 26.5984 -0.998791 22.8759 0.597614C19.1534 2.19402 17.436 6.49168 19.0399 10.1967C20.6438 13.9017 24.9617 15.6111 28.6842 14.0147Z" fill="#ECF1F7"/>
</g>
<path d="M24.0641 8.39231C24.019 8.39283 23.9742 8.38429 23.9324 8.36719C23.8907 8.3501 23.8528 8.32482 23.821 8.29284C23.7598 8.22969 23.7256 8.14535 23.7256 8.05759C23.7256 7.96983 23.7598 7.88549 23.821 7.82234L25.7916 5.89465L27.7378 7.82234C27.7692 7.85345 27.7941 7.89042 27.8111 7.93113C27.8281 7.97185 27.8369 8.01551 27.8369 8.05961C27.8369 8.1037 27.8281 8.14736 27.8111 8.18808C27.7941 8.2288 27.7692 8.26577 27.7378 8.29687C27.7065 8.32813 27.6694 8.35293 27.6285 8.36985C27.5876 8.38678 27.5437 8.39549 27.4994 8.39549C27.4551 8.39549 27.4112 8.38678 27.3703 8.36985C27.3294 8.35293 27.2923 8.32813 27.261 8.29687L25.7929 6.83699L24.3005 8.29687C24.2374 8.35847 24.1525 8.39277 24.0641 8.39231Z" fill="white"/>
<path d="M25.7808 11.0661C25.7364 11.0662 25.6924 11.0577 25.6513 11.0408C25.6103 11.024 25.573 10.9993 25.5416 10.968C25.5102 10.9368 25.4854 10.8997 25.4685 10.8588C25.4515 10.8179 25.4429 10.7742 25.4431 10.73V6.36378C25.4429 6.3196 25.4515 6.27582 25.4685 6.23496C25.4854 6.19411 25.5102 6.15699 25.5416 6.12575C25.573 6.09451 25.6103 6.06976 25.6513 6.05293C25.6924 6.03611 25.7364 6.02753 25.7808 6.02771C25.8252 6.02753 25.8691 6.03611 25.9102 6.05293C25.9512 6.06976 25.9885 6.09451 26.0199 6.12575C26.0513 6.15699 26.0762 6.19411 26.0931 6.23496C26.11 6.27582 26.1186 6.3196 26.1184 6.36378V10.73C26.1184 10.8191 26.0828 10.9046 26.0195 10.9676C25.9562 11.0306 25.8703 11.0661 25.7808 11.0661Z" fill="white"/>
<path d="M28.9722 13.1389H22.5379C22.3163 13.1386 22.1039 13.0508 21.9472 12.8948C21.7905 12.7388 21.7023 12.5274 21.7019 12.3068V9.97987C21.7019 9.89074 21.7375 9.80526 21.8008 9.74223C21.8641 9.67921 21.95 9.6438 22.0396 9.6438C22.1291 9.6438 22.215 9.67921 22.2783 9.74223C22.3416 9.80526 22.3772 9.89074 22.3772 9.97987V12.3068C22.3772 12.3492 22.3941 12.3899 22.4243 12.4199C22.4544 12.4499 22.4953 12.4668 22.5379 12.4668H28.9722C29.0279 12.4668 29.0813 12.4449 29.1207 12.4058C29.1602 12.3668 29.1826 12.3138 29.1829 12.2584V9.97987C29.1829 9.89074 29.2185 9.80526 29.2818 9.74223C29.3451 9.67921 29.431 9.6438 29.5206 9.6438C29.6101 9.6438 29.696 9.67921 29.7593 9.74223C29.8226 9.80526 29.8582 9.89074 29.8582 9.97987V12.2584C29.8579 12.4921 29.7644 12.716 29.5982 12.8811C29.4321 13.0462 29.207 13.1389 28.9722 13.1389Z" fill="white"/>
<path opacity="0.36" d="M35.9898 35.38L17.5784 41.4292C17.3634 41.4992 17.1294 41.482 16.9271 41.3813C16.7248 41.2806 16.5706 41.1046 16.4979 40.8915L10.4094 22.561C10.3393 22.3461 10.3576 22.1125 10.46 21.911C10.5625 21.7095 10.7409 21.5565 10.9563 21.4855L29.3678 15.4363C29.5828 15.3663 29.8168 15.3835 30.0191 15.4842C30.2213 15.5849 30.3756 15.7609 30.4483 15.974L36.526 34.3005C36.5978 34.5144 36.5817 34.7479 36.4813 34.9501C36.3808 35.1523 36.2042 35.3068 35.9898 35.38Z" fill="#4C65BA"/>
<path d="M28.0141 14.748L9.60201 20.8016C9.15155 20.9497 8.90701 21.4332 9.05581 21.8816L15.1379 40.2074C15.2867 40.6557 15.7725 40.8991 16.223 40.751L34.6351 34.6974C35.0855 34.5493 35.3301 34.0658 35.1813 33.6174L29.0992 15.2917C28.9504 14.8433 28.4646 14.5999 28.0141 14.748Z" fill="white"/>
<path d="M27.6747 16.7424L11.0452 22.2098L16.5384 38.7614L33.1679 33.2939L27.6747 16.7424Z" fill="#C5D9FF"/>
<path opacity="0.47" d="M16.3994 38.9046L15.1555 35.1568L16.9748 30.7919C17.0949 30.5014 17.3201 30.2663 17.606 30.1331C17.8918 30 18.2175 29.9784 18.5185 30.0727L21.8856 31.1146C21.982 31.1447 22.0857 31.1416 22.1801 31.1058C22.2745 31.0699 22.3539 31.0034 22.4056 30.9169L25.2108 26.2725C25.501 25.7942 25.9552 25.4364 26.4895 25.265C27.0238 25.0935 27.6024 25.12 28.1186 25.3395L31.2061 26.661L31.2345 26.747L33.4103 33.3098L33.2185 33.3729L16.3994 38.9046ZM15.5891 35.1729L16.6587 38.3992L32.9025 33.057L30.8766 26.9648L27.9552 25.7133C27.529 25.5324 27.0516 25.5107 26.6107 25.6523C26.1697 25.7938 25.7949 26.089 25.5552 26.4835L22.754 31.124C22.6554 31.2878 22.5043 31.414 22.325 31.482C22.1457 31.55 21.9486 31.556 21.7654 31.499L18.3983 30.4585C18.1941 30.3941 17.9731 30.4082 17.7788 30.4981C17.5845 30.5879 17.4311 30.7469 17.3489 30.9438L15.5891 35.1729Z" fill="white"/>
<path opacity="0.47" d="M21.9516 25.9983C21.4972 25.9975 21.0547 25.8541 20.6869 25.5887C20.3191 25.3232 20.0447 24.9491 19.9027 24.5196C19.727 23.9801 19.7724 23.3934 20.0292 22.8871C20.2859 22.3808 20.7331 21.9959 21.2736 21.8162C21.8165 21.6393 22.4077 21.6835 22.9179 21.9392C23.4281 22.1948 23.8159 22.6412 23.9964 23.1807C24.1738 23.7208 24.1292 24.3089 23.8723 24.8165C23.6154 25.324 23.1672 25.7097 22.6255 25.8894C22.4082 25.9615 22.1806 25.9982 21.9516 25.9983ZM21.9516 22.1106C21.7652 22.1112 21.5802 22.1412 21.4032 22.1994C20.9633 22.3455 20.5994 22.659 20.3909 23.0713C20.1824 23.4835 20.1462 23.9612 20.2903 24.3999C20.4372 24.8378 20.7521 25.2 21.1663 25.4075C21.5806 25.615 22.0605 25.651 22.5013 25.5076C22.9412 25.3614 23.3051 25.048 23.5136 24.6357C23.7221 24.2234 23.7583 23.7458 23.6142 23.307C23.4979 22.9589 23.2745 22.6559 22.9756 22.4412C22.6767 22.2265 22.3175 22.1108 21.9489 22.1106H21.9516Z" fill="white"/>
<path opacity="0.36" d="M41.5315 22.6591H27.1583C26.6839 22.6591 26.2993 23.0418 26.2993 23.514V37.8198C26.2993 38.292 26.6839 38.6747 27.1583 38.6747H41.5315C42.0059 38.6747 42.3904 38.292 42.3904 37.8198V23.514C42.3904 23.0418 42.0059 22.6591 41.5315 22.6591Z" fill="#4C65BA"/>
<path d="M40.7155 21.8458H26.3424C25.868 21.8458 25.4834 22.2286 25.4834 22.7008V37.0066C25.4834 37.4787 25.868 37.8615 26.3424 37.8615H40.7155C41.1899 37.8615 41.5745 37.4787 41.5745 37.0066V22.7008C41.5745 22.2286 41.1899 21.8458 40.7155 21.8458Z" fill="white"/>
<path opacity="0.39" d="M40.1957 23.2103H26.845V36.4984H40.1957V23.2103Z" fill="#F7A9B4"/>
<path d="M36.341 33.5988H30.6981C30.5722 33.6053 30.4464 33.5855 30.3287 33.5406C30.211 33.4956 30.1041 33.4265 30.0149 33.3378C29.9258 33.2491 29.8564 33.1427 29.8112 33.0255C29.766 32.9084 29.7461 32.7831 29.7527 32.6578V27.0454C29.7461 26.9201 29.766 26.7948 29.8112 26.6777C29.8564 26.5605 29.9258 26.4542 30.0149 26.3654C30.1041 26.2767 30.211 26.2076 30.3287 26.1627C30.4464 26.1177 30.5722 26.0979 30.6981 26.1044H36.341C36.4669 26.0979 36.5927 26.1177 36.7104 26.1627C36.8281 26.2076 36.935 26.2767 37.0242 26.3654C37.1133 26.4542 37.1827 26.5605 37.2279 26.6777C37.2731 26.7948 37.293 26.9201 37.2864 27.0454V32.6632C37.2922 32.788 37.2717 32.9127 37.2262 33.0292C37.1807 33.1457 37.1111 33.2514 37.0221 33.3396C36.933 33.4277 36.8264 33.4963 36.7091 33.5409C36.5918 33.5856 36.4664 33.6053 36.341 33.5988ZM30.0714 27.3586V27.9864H31.3248L30.717 26.4714C30.5249 26.5256 30.3568 26.6426 30.2396 26.8036C30.1225 26.9646 30.0633 27.1601 30.0714 27.3586ZM31.3248 26.4177L31.9528 27.977H32.8983L32.2716 26.4177H31.3248ZM32.8929 26.4177L33.5195 27.977H34.465L33.8383 26.4177H32.8929ZM34.4596 26.4177L35.0876 27.977H36.033L35.4063 26.4177H34.4596ZM36.9676 27.3586C36.9743 27.2333 36.9543 27.1081 36.9091 26.9909C36.864 26.8738 36.7946 26.7674 36.7054 26.6787C36.6163 26.5899 36.5094 26.5208 36.3917 26.4759C36.274 26.4309 36.1481 26.4111 36.0222 26.4177L36.6516 27.9864H36.9649L36.9676 27.3586ZM36.9676 28.2996H30.0714V32.3513C30.0648 32.4766 30.0848 32.6019 30.1299 32.719C30.1751 32.8362 30.2445 32.9426 30.3337 33.0313C30.4228 33.12 30.5297 33.1891 30.6474 33.2341C30.7651 33.279 30.891 33.2989 31.0169 33.2923H36.033C36.1589 33.2989 36.2848 33.279 36.4025 33.2341C36.5202 33.1891 36.6271 33.12 36.7162 33.0313C36.8054 32.9426 36.8748 32.8362 36.92 32.719C36.9651 32.6019 36.9851 32.4766 36.9784 32.3513V28.2943L36.9676 28.2996ZM32.2662 29.2406L35.0876 30.8L32.2662 32.3607V29.2312V29.2406Z" fill="white"/>
<path opacity="0.36" d="M27.6237 30.3591L19.499 33.389C19.0547 33.5547 18.8295 34.0474 18.996 34.4896L22.0401 42.5762C22.2066 43.0184 22.7017 43.2425 23.1459 43.0768L31.2706 40.0469C31.7149 39.8813 31.9401 39.3885 31.7736 38.9464L28.7294 30.8597C28.563 30.4176 28.0679 30.1934 27.6237 30.3591Z" fill="#4C65BA"/>
<path d="M26.9437 30.0514L18.819 33.0813C18.3748 33.2469 18.1496 33.7397 18.316 34.1818L21.3602 42.2685C21.5267 42.7106 22.0217 42.9348 22.466 42.7691L30.5907 39.7392C31.0349 39.5735 31.2601 39.0808 31.0937 38.6386L28.0495 30.552C27.8831 30.1098 27.388 29.8857 26.9437 30.0514Z" fill="white"/>
<path d="M27.2233 30.8884L19.1479 33.8999L22.1736 41.9374L30.249 38.9259L27.2233 30.8884Z" fill="#599AF2"/>
<path d="M26.1682 33.4052C26.1017 33.3756 26.0297 33.3604 25.9569 33.3604C25.884 33.3604 25.812 33.3756 25.7455 33.4052L23.3617 34.4443C23.2296 34.5023 23.122 34.6045 23.0576 34.7331C22.9932 34.8618 22.9761 35.0088 23.0092 35.1487L23.6561 37.5469C23.501 37.4961 23.3344 37.4914 23.1766 37.5334C22.9667 37.5872 22.7867 37.7218 22.6763 37.9076C22.5659 38.0933 22.5341 38.3151 22.5878 38.5242C22.647 38.7317 22.7863 38.9075 22.9754 39.0131C23.1645 39.1187 23.3879 39.1454 23.5967 39.0874C23.8065 39.0333 23.9862 38.8987 24.0965 38.713C24.2069 38.5274 24.2389 38.3058 24.1855 38.0967L23.5913 35.8921L26.3155 34.7051L26.7314 36.2497C26.5765 36.2 26.4106 36.1958 26.2533 36.2376C26.0433 36.2914 25.8632 36.4259 25.7526 36.6116C25.642 36.7973 25.6098 37.019 25.6631 37.2283C25.7223 37.4359 25.8617 37.6117 26.0507 37.7172C26.2398 37.8228 26.4632 37.8495 26.672 37.7915C26.882 37.7377 27.062 37.6032 27.1724 37.4174C27.2828 37.2317 27.3146 37.0099 27.2609 36.8008L26.4303 33.7184C26.4125 33.65 26.3799 33.5863 26.3346 33.532C26.2893 33.4776 26.2325 33.4338 26.1682 33.4038V33.4052ZM23.5035 38.7406C23.3874 38.7725 23.2634 38.7575 23.1585 38.6988C23.0535 38.6402 22.976 38.5426 22.943 38.4274C22.9282 38.3698 22.9249 38.3099 22.9334 38.2511C22.9419 38.1923 22.962 38.1358 22.9925 38.0847C23.023 38.0336 23.0633 37.989 23.1111 37.9535C23.1589 37.918 23.2133 37.8922 23.2712 37.8776C23.3871 37.8453 23.5111 37.8602 23.6159 37.919C23.7208 37.9777 23.7979 38.0755 23.8303 38.1908C23.8452 38.2482 23.8485 38.308 23.84 38.3668C23.8316 38.4255 23.8117 38.482 23.7813 38.5331C23.751 38.5841 23.7108 38.6287 23.6632 38.6643C23.6155 38.6999 23.5612 38.7259 23.5035 38.7406ZM23.5035 35.5412L23.3684 35.0519C23.3575 34.9957 23.3656 34.9375 23.3915 34.8864C23.4174 34.8353 23.4597 34.7942 23.5116 34.7696L25.8954 33.7305C25.914 33.7225 25.934 33.7184 25.9542 33.7184C25.9744 33.7184 25.9944 33.7225 26.0129 33.7305C26.0297 33.739 26.0443 33.7512 26.0557 33.7661C26.0672 33.781 26.0752 33.7982 26.0791 33.8165L26.225 34.3542L23.5008 35.5412H23.5035ZM26.5856 37.4447C26.4695 37.477 26.3453 37.4621 26.2403 37.4034C26.1352 37.3447 26.0578 37.2469 26.0251 37.1315C25.9977 37.0173 26.0159 36.8971 26.0759 36.796C26.1359 36.695 26.2329 36.621 26.3465 36.5898C26.4624 36.5575 26.5864 36.5724 26.6912 36.6311C26.7961 36.6899 26.8732 36.7876 26.9057 36.903C26.934 37.0183 26.9156 37.14 26.8544 37.2419C26.7932 37.3438 26.6942 37.4176 26.5788 37.4474L26.5856 37.4447Z" fill="white"/>
</g>
<defs>
<clipPath id="clip0_689_3043">
<rect width="49" height="48" fill="white" transform="translate(0.5)"/>
</clipPath>
</defs>
</svg>
