<svg width="49" height="48" viewBox="0 0 49 48" fill="none" xmlns="http://www.w3.org/2000/svg">
<path d="M35.7844 14.6052H14.1839C13.4496 14.6052 12.8543 15.1685 12.8543 15.8633V29.0112C12.8543 29.7061 13.4496 30.2693 14.1839 30.2693H35.7844C36.5188 30.2693 37.1141 29.7061 37.1141 29.0112V15.8633C37.1141 15.1685 36.5188 14.6052 35.7844 14.6052Z" fill="#939CAA"/>
<path d="M35.7512 15.6959H14.2172V26.8522H35.7512V15.6959Z" fill="#65707F"/>
<path d="M11.9889 27.8576V29.4796C11.9889 29.8371 12.139 30.18 12.4061 30.4327C12.6733 30.6855 13.0357 30.8275 13.4135 30.8275H36.5537C36.9316 30.8275 37.2939 30.6855 37.5611 30.4327C37.8282 30.18 37.9783 29.8371 37.9783 29.4796V27.8576H11.9889Z" fill="#B2BCCC"/>
<path d="M21.3473 27.8576V28.3069C21.3476 28.4069 21.3897 28.5028 21.4645 28.5735C21.5392 28.6442 21.6405 28.684 21.7462 28.6843H28.2222C28.3264 28.6841 28.4265 28.6453 28.501 28.5763C28.5755 28.5072 28.6186 28.4134 28.6211 28.3148V27.8655L21.3473 27.8576Z" fill="#C7D2E2"/>
<path d="M30.4838 20.8079C30.0917 20.809 29.704 20.8855 29.3441 21.0325C29.0063 20.1632 28.3974 19.4114 27.5981 18.8766C26.7987 18.3419 25.8466 18.0495 24.8677 18.038C23.8889 18.0266 22.9294 18.2967 22.1163 18.8125C21.3032 19.3284 20.6749 20.0658 20.3145 20.927C19.7769 20.7748 19.2042 20.7734 18.6657 20.923C18.1273 21.0726 17.6463 21.3667 17.2809 21.7697C16.9155 22.1727 16.6815 22.6673 16.6072 23.1936C16.5329 23.7199 16.6215 24.2552 16.8622 24.7349H33.1074C33.3168 24.3162 33.4108 23.8542 33.3809 23.3919C33.351 22.9296 33.198 22.482 32.9362 22.0906C32.6744 21.6992 32.3123 21.3768 31.8836 21.1533C31.4548 20.9299 30.9733 20.8126 30.4838 20.8124V20.8079ZM26.2729 23.934H23.6944L24.0873 21.9222C23.855 21.7464 23.6861 21.5067 23.6041 21.2362C23.522 20.9657 23.5308 20.6777 23.6292 20.4122C23.7276 20.1466 23.9108 19.9165 24.1535 19.7537C24.3961 19.5909 24.6862 19.5035 24.9836 19.5035C25.2811 19.5035 25.5712 19.5909 25.8138 19.7537C26.0565 19.9165 26.2397 20.1466 26.3381 20.4122C26.4365 20.6777 26.4453 20.9657 26.3632 21.2362C26.2811 21.5067 26.1123 21.7464 25.8799 21.9222L26.2729 23.934Z" fill="white"/>
<path d="M21.3568 33.21C20.4474 34.0987 19.9402 35.2879 19.9429 36.5248C19.9429 37.7909 20.4745 39.0052 21.4207 39.9005C22.3669 40.7958 23.6502 41.2987 24.9883 41.2987C26.3265 41.2987 27.6098 40.7958 28.556 39.9005C29.5022 39.0052 30.0338 37.7909 30.0338 36.5248C30.0325 35.4319 29.6355 34.3725 28.9088 33.523C28.182 32.6735 27.1696 32.0853 26.0402 31.8565V30.5613H26.3761C26.4947 30.5557 26.6065 30.5071 26.6883 30.4257C26.7701 30.3442 26.8157 30.2362 26.8157 30.1238C26.8157 30.0115 26.7701 29.9034 26.6883 29.822C26.6065 29.7406 26.4947 29.692 26.3761 29.6863H26.0402V23.1365C26.0399 22.8834 25.9334 22.6407 25.7443 22.4617C25.5551 22.2827 25.2986 22.182 25.0311 22.1817H24.9468C24.6792 22.1817 24.4225 22.2823 24.2333 22.4614C24.044 22.6404 23.9377 22.8833 23.9377 23.1365V23.6026H22.2127V24.4002H23.9329V24.9326H20.9484V25.7313H23.9329V26.2637H22.2127V27.0612H23.9329V29.6863H23.597C23.5343 29.6833 23.4716 29.6924 23.4127 29.713C23.3539 29.7336 23.3 29.7654 23.2546 29.8063C23.2091 29.8472 23.1728 29.8965 23.1481 29.9511C23.1233 30.0057 23.1105 30.0644 23.1105 30.1238C23.1105 30.1832 23.1233 30.242 23.1481 30.2966C23.1728 30.3512 23.2091 30.4004 23.2546 30.4413C23.3 30.4823 23.3539 30.514 23.4127 30.5346C23.4716 30.5553 23.5343 30.5643 23.597 30.5613H23.9329V31.8587C22.9512 32.0564 22.0541 32.5269 21.3568 33.21ZM27.5906 36.5248C27.5926 37.097 27.3847 37.6522 27.0023 38.0955C26.6198 38.5389 26.0867 38.8429 25.4938 38.9557C24.9009 39.0685 24.2849 38.9831 23.7511 38.7141C23.2173 38.4452 22.7987 38.0092 22.5668 37.4807C22.3349 36.9522 22.3039 36.364 22.4793 35.8163C22.6547 35.2687 23.0255 34.7956 23.5285 34.4778C24.0315 34.1601 24.6354 34.0173 25.2372 34.0739C25.839 34.1305 26.4014 34.383 26.8284 34.7882C27.3156 35.2487 27.5898 35.8733 27.5906 36.5248Z" fill="#FCD62B"/>
<path d="M14.9517 36.1275C17.0097 34.1803 17.0097 31.0232 14.9517 29.076C12.8937 27.1287 9.55704 27.1287 7.49904 29.076C5.44104 31.0232 5.44104 34.1803 7.49904 36.1275C9.55704 38.0748 12.8937 38.0748 14.9517 36.1275Z" fill="#65D4DD"/>
<path d="M11.7301 30.5974H8.9082V35.1725H12.6668V31.7802L11.7301 30.5974ZM12.0305 34.339H9.41868C9.38696 34.3361 9.35752 34.3221 9.33609 34.2998C9.31466 34.2775 9.30279 34.2484 9.30279 34.2182C9.30279 34.1881 9.31466 34.159 9.33609 34.1367C9.35752 34.1144 9.38696 34.1004 9.41868 34.0975H12.0305C12.0622 34.1004 12.0916 34.1144 12.113 34.1367C12.1345 34.159 12.1463 34.1881 12.1463 34.2182C12.1463 34.2484 12.1345 34.2775 12.113 34.2998C12.0916 34.3221 12.0622 34.3361 12.0305 34.339ZM12.0305 33.51H9.41868C9.38499 33.51 9.35269 33.4973 9.32886 33.4748C9.30504 33.4523 9.29166 33.4217 9.29166 33.3898C9.29166 33.3579 9.30504 33.3274 9.32886 33.3048C9.35269 33.2823 9.38499 33.2696 9.41868 33.2696H12.0305C12.0641 33.2696 12.0964 33.2823 12.1203 33.3048C12.1441 33.3274 12.1575 33.3579 12.1575 33.3898C12.1575 33.4217 12.1441 33.4523 12.1203 33.4748C12.0964 33.4973 12.0641 33.51 12.0305 33.51ZM12.0305 32.681H9.41868C9.38499 32.681 9.35269 32.6684 9.32886 32.6458C9.30504 32.6233 9.29166 32.5927 9.29166 32.5608C9.29166 32.529 9.30504 32.4984 9.32886 32.4758C9.35269 32.4533 9.38499 32.4406 9.41868 32.4406H12.0305C12.0641 32.4406 12.0964 32.4533 12.1203 32.4758C12.1441 32.4984 12.1575 32.529 12.1575 32.5608C12.1575 32.5927 12.1441 32.6233 12.1203 32.6458C12.0964 32.6684 12.0641 32.681 12.0305 32.681ZM12.0305 31.8532H9.41868C9.38499 31.8532 9.35269 31.8405 9.32886 31.818C9.30504 31.7954 9.29166 31.7649 9.29166 31.733C9.29166 31.7011 9.30504 31.6705 9.32886 31.648C9.35269 31.6255 9.38499 31.6128 9.41868 31.6128H12.0305C12.0641 31.6128 12.0964 31.6255 12.1203 31.648C12.1441 31.6705 12.1575 31.7011 12.1575 31.733C12.1575 31.7649 12.1441 31.7954 12.1203 31.818C12.0964 31.8405 12.0641 31.8532 12.0305 31.8532Z" fill="white"/>
<path d="M13.5417 34.8467H12.3866V34.5715H13.2497V31.2028L12.3759 30.0828H9.93035V30.5973H9.63831V29.8065H12.5421L13.5417 31.1275V34.8467Z" fill="white"/>
<path d="M11.2244 16.8708C13.4602 16.8708 15.2726 15.1559 15.2726 13.0405C15.2726 10.925 13.4602 9.21008 11.2244 9.21008C8.98861 9.21008 7.17615 10.925 7.17615 13.0405C7.17615 15.1559 8.98861 16.8708 11.2244 16.8708Z" fill="#F68B53"/>
<path d="M11.5615 11.5397C11.6334 11.458 11.6728 11.3551 11.6731 11.2488C11.6738 11.1741 11.6555 11.1003 11.6197 11.0337C11.5838 10.9671 11.5316 10.9097 11.4673 10.8663C11.4031 10.8228 11.3287 10.7947 11.2505 10.7842C11.1723 10.7738 11.0926 10.7813 11.0181 10.8062C10.9437 10.831 10.8766 10.8725 10.8227 10.9271C10.7687 10.9817 10.7295 11.0477 10.7083 11.1197C10.687 11.1917 10.6845 11.2674 10.7007 11.3405C10.717 11.4136 10.7517 11.482 10.8018 11.5397C10.6502 11.5907 10.519 11.6848 10.4261 11.809C10.3332 11.9333 10.2832 12.0817 10.283 12.2339C10.283 12.262 10.2889 12.289 10.2913 12.317H12.072C12.0769 12.2895 12.0801 12.2618 12.0815 12.2339C12.0813 12.0815 12.0312 11.933 11.9381 11.8086C11.845 11.6843 11.7134 11.5904 11.5615 11.5397Z" fill="white"/>
<path d="M10.1749 13.6728C10.2467 13.5906 10.2861 13.4874 10.2865 13.3807C10.2865 13.2574 10.2347 13.1391 10.1425 13.0519C10.0503 12.9647 9.92534 12.9157 9.79499 12.9157C9.66464 12.9157 9.53962 12.9647 9.44745 13.0519C9.35528 13.1391 9.3035 13.2574 9.3035 13.3807C9.30384 13.4874 9.34328 13.5906 9.41509 13.6728C9.26361 13.7236 9.13244 13.8174 9.03956 13.9415C8.94667 14.0656 8.89664 14.2138 8.8963 14.3659C8.89719 14.3937 8.89997 14.4215 8.90461 14.449H10.6854C10.69 14.4215 10.6928 14.3937 10.6937 14.3659C10.6933 14.2138 10.6433 14.0656 10.5504 13.9415C10.4575 13.8174 10.3264 13.7236 10.1749 13.6728Z" fill="white"/>
<path d="M12.9481 13.6729C13.0199 13.5907 13.0594 13.4874 13.0597 13.3808C13.0602 13.3061 13.0417 13.2324 13.0058 13.166C12.9698 13.0995 12.9175 13.0422 12.8532 12.9989C12.7889 12.9556 12.7145 12.9276 12.6363 12.9173C12.5582 12.9069 12.4785 12.9145 12.4041 12.9395C12.3298 12.9644 12.2628 13.0059 12.209 13.0605C12.1551 13.1151 12.1159 13.1812 12.0948 13.2531C12.0736 13.325 12.0711 13.4007 12.0873 13.4738C12.1036 13.5469 12.1383 13.6151 12.1883 13.6729C12.0369 13.7236 11.9057 13.8175 11.8128 13.9416C11.7199 14.0656 11.6699 14.2139 11.6696 14.3659C11.6708 14.3938 11.674 14.4216 11.6791 14.449H13.4598C13.4598 14.4221 13.4681 14.3951 13.4681 14.3659C13.4677 14.2137 13.4175 14.0654 13.3244 13.9413C13.2313 13.8172 13.0998 13.7234 12.9481 13.6729Z" fill="white"/>
<path d="M8.96871 13.1416H8.78351C8.7842 12.7084 8.91561 12.2843 9.16231 11.9194C9.409 11.5545 9.7607 11.2637 10.1761 11.0815L10.2532 11.2399C9.87013 11.4084 9.5458 11.6769 9.31828 12.0137C9.09077 12.3506 8.9695 12.7418 8.96871 13.1416Z" fill="white"/>
<path d="M13.6651 13.1415H13.4811C13.48 12.7419 13.3585 12.3508 13.1307 12.0141C12.903 11.6775 12.5786 11.4093 12.1954 11.241L12.2726 11.0826C12.6878 11.2648 13.0394 11.5553 13.286 11.92C13.5327 12.2848 13.6642 12.7085 13.6651 13.1415Z" fill="white"/>
<path d="M11.1649 15.2971C10.7136 15.2967 10.2716 15.1756 9.88989 14.9478L9.98843 14.7995C10.347 15.0112 10.7618 15.1219 11.1845 15.1185C11.6071 15.1151 12.0199 14.9978 12.3746 14.7804L12.4744 14.9275C12.085 15.1682 11.63 15.2966 11.1649 15.2971Z" fill="white"/>
<path d="M10.0585 24.5439C10.0585 24.5604 10.0551 24.5767 10.0484 24.5919C10.0417 24.6071 10.0319 24.6209 10.0195 24.6325C10.0072 24.6441 9.9925 24.6533 9.97637 24.6595C9.96025 24.6657 9.94298 24.6688 9.92558 24.6686H7.88959C7.85464 24.6686 7.82112 24.6555 7.79641 24.6321C7.7717 24.6087 7.75781 24.577 7.75781 24.5439C7.75781 24.5109 7.7717 24.4792 7.79641 24.4558C7.82112 24.4324 7.85464 24.4193 7.88959 24.4193H9.92558C9.96064 24.4192 9.99428 24.4323 10.0192 24.4557C10.0441 24.4791 10.0582 24.5108 10.0585 24.5439Z" fill="#FCD62B"/>
<path d="M10.0585 24.918C10.0585 24.9514 10.0445 24.9834 10.0196 25.007C9.99466 25.0306 9.96084 25.0438 9.92558 25.0438H7.88959C7.85453 25.0435 7.82101 25.0301 7.79634 25.0066C7.77166 24.983 7.75781 24.9512 7.75781 24.918C7.75813 24.8851 7.77215 24.8537 7.79683 24.8306C7.82151 24.8074 7.85484 24.7944 7.88959 24.7944H9.92558C9.94288 24.7943 9.96005 24.7974 9.9761 24.8035C9.99215 24.8096 10.0068 24.8187 10.0191 24.8302C10.0315 24.8416 10.0413 24.8553 10.0481 24.8704C10.0548 24.8854 10.0584 24.9016 10.0585 24.918Z" fill="#FCD62B"/>
<path d="M10.0585 25.2931C10.0582 25.3263 10.0441 25.358 10.0192 25.3814C9.99428 25.4047 9.96064 25.4178 9.92558 25.4178H7.88959C7.85464 25.4178 7.82112 25.4047 7.79641 25.3813C7.7717 25.3579 7.75781 25.3262 7.75781 25.2931C7.75781 25.2768 7.76122 25.2606 7.76784 25.2454C7.77447 25.2303 7.78417 25.2166 7.79641 25.205C7.80865 25.1934 7.82317 25.1842 7.83916 25.178C7.85515 25.1717 7.87228 25.1685 7.88959 25.1685H9.92558C9.94298 25.1683 9.96025 25.1714 9.97637 25.1776C9.9925 25.1838 10.0072 25.193 10.0195 25.2046C10.0319 25.2162 10.0417 25.23 10.0484 25.2452C10.0551 25.2604 10.0585 25.2767 10.0585 25.2931Z" fill="#FCD62B"/>
<path d="M8.90819 20.5507C8.53077 20.5498 8.16338 20.6657 7.86205 20.8807C7.56072 21.0957 7.342 21.3981 7.23924 21.7417C7.13648 22.0853 7.15532 22.4513 7.29289 22.7839C7.43046 23.1164 7.67921 23.3973 8.0012 23.5836V24.28H9.81519V23.5836C10.1372 23.3973 10.3859 23.1164 10.5235 22.7839C10.6611 22.4513 10.6799 22.0853 10.5772 21.7417C10.4744 21.3981 10.2557 21.0957 9.95434 20.8807C9.65301 20.6657 9.28562 20.5498 8.90819 20.5507ZM9.07558 23.7667C9.07185 23.8109 9.05065 23.8521 9.01622 23.8822C8.98179 23.9123 8.93665 23.929 8.88979 23.929C8.84293 23.929 8.79779 23.9123 8.76336 23.8822C8.72893 23.8521 8.70774 23.8109 8.704 23.7667V23.6937C8.70195 23.6694 8.70523 23.645 8.71364 23.622C8.72204 23.599 8.73539 23.5779 8.75284 23.56C8.7703 23.5421 8.79147 23.5278 8.81504 23.518C8.83861 23.5083 8.86406 23.5032 8.88979 23.5032C8.91552 23.5032 8.94097 23.5083 8.96454 23.518C8.98811 23.5278 9.00929 23.5421 9.02674 23.56C9.04419 23.5779 9.05754 23.599 9.06595 23.622C9.07436 23.645 9.07764 23.6694 9.07558 23.6937V23.7667ZM9.07558 22.7928V23.0635C9.07185 23.1077 9.05065 23.1489 9.01622 23.179C8.98179 23.2091 8.93665 23.2258 8.88979 23.2258C8.84293 23.2258 8.79779 23.2091 8.76336 23.179C8.72893 23.1489 8.70774 23.1077 8.704 23.0635V22.6501C8.70273 22.6263 8.70651 22.6025 8.71512 22.5801C8.72374 22.5576 8.73702 22.5371 8.75417 22.5196C8.77132 22.5021 8.792 22.488 8.81499 22.4783C8.83798 22.4685 8.86281 22.4631 8.88801 22.4625C9.01742 22.4625 9.14152 22.4139 9.23303 22.3273C9.32453 22.2407 9.37594 22.1233 9.37594 22.0009C9.37594 21.8784 9.32453 21.761 9.23303 21.6744C9.14152 21.5878 9.01742 21.5392 8.88801 21.5392C8.80294 21.5387 8.71928 21.5597 8.64577 21.6002C8.57226 21.6408 8.5116 21.6992 8.47013 21.7695C8.44405 21.8094 8.4026 21.8381 8.35453 21.8497C8.30646 21.8612 8.25554 21.8546 8.21251 21.8313C8.19099 21.8191 8.17238 21.8028 8.15787 21.7835C8.14335 21.7642 8.13326 21.7422 8.12823 21.7189C8.12267 21.6963 8.12191 21.6728 8.12598 21.6499C8.13006 21.6269 8.13889 21.605 8.15197 21.5853C8.22582 21.4621 8.33311 21.3599 8.46273 21.2892C8.59235 21.2185 8.73959 21.1819 8.8892 21.1831C9.10095 21.1825 9.30545 21.256 9.46341 21.3895C9.62136 21.5229 9.72161 21.7069 9.74488 21.906C9.76815 22.1051 9.7128 22.3054 9.58947 22.4683C9.46614 22.6311 9.28354 22.7451 9.07677 22.7883L9.07558 22.7928Z" fill="#FCD62B"/>
<path d="M9.03992 20.0868V19.0669C9.03992 19.0338 9.02603 19.0021 9.00132 18.9787C8.97661 18.9553 8.94309 18.9422 8.90814 18.9422C8.87319 18.9422 8.83968 18.9553 8.81496 18.9787C8.79025 19.0021 8.77637 19.0338 8.77637 19.0669V20.0868C8.77637 20.1199 8.79025 20.1516 8.81496 20.175C8.83968 20.1984 8.87319 20.2115 8.90814 20.2115C8.94309 20.2115 8.97661 20.1984 9.00132 20.175C9.02603 20.1516 9.03992 20.1199 9.03992 20.0868Z" fill="#FCD62B"/>
<path d="M10.4134 20.5383C10.6327 20.2687 10.8527 19.9999 11.0735 19.7318C11.0949 19.7056 11.1044 19.6724 11.1 19.6396C11.0955 19.6067 11.0775 19.5768 11.0498 19.5566C11.0221 19.5363 10.987 19.5273 10.9522 19.5315C10.9175 19.5357 10.886 19.5528 10.8646 19.5791L10.2081 20.3844C10.1902 20.4109 10.1834 20.4426 10.1891 20.4735C10.1947 20.5044 10.2123 20.5322 10.2384 20.5515C10.2646 20.5707 10.2974 20.58 10.3304 20.5776C10.3634 20.5752 10.3943 20.5612 10.417 20.5383H10.4134Z" fill="#FCD62B"/>
<path d="M7.40289 20.5383C7.18287 20.2687 6.96285 19.9999 6.74283 19.7318C6.72142 19.7056 6.71189 19.6724 6.71634 19.6396C6.7208 19.6067 6.73886 19.5768 6.76657 19.5566C6.79428 19.5363 6.82936 19.5273 6.86409 19.5315C6.89882 19.5357 6.93036 19.5528 6.95177 19.5791L7.61183 20.3844C7.62967 20.4109 7.63645 20.4426 7.63083 20.4735C7.62521 20.5044 7.60761 20.5322 7.58147 20.5515C7.55532 20.5707 7.52252 20.58 7.48949 20.5776C7.45646 20.5752 7.42558 20.5612 7.40289 20.5383Z" fill="#FCD62B"/>
<path d="M43.6696 32.3822C43.6696 33.1398 43.4322 33.8803 42.9873 34.5102C42.5425 35.1401 41.9103 35.6311 41.1706 35.921C40.4308 36.2109 39.6169 36.2868 38.8316 36.139C38.0463 35.9912 37.325 35.6264 36.7588 35.0907C36.1927 34.555 35.8071 33.8725 35.6509 33.1295C35.4947 32.3864 35.5749 31.6163 35.8813 30.9164C36.1877 30.2165 36.7066 29.6182 37.3723 29.1974C38.038 28.7765 38.8207 28.5518 39.6214 28.5518C40.153 28.5518 40.6794 28.6509 41.1706 28.8434C41.6617 29.0359 42.108 29.318 42.4839 29.6737C42.8598 30.0294 43.158 30.4517 43.3614 30.9164C43.5649 31.3811 43.6696 31.8792 43.6696 32.3822Z" fill="#F68B53"/>
<path d="M39.9573 30.8826C40.0067 30.8249 40.0407 30.7568 40.0565 30.6841C40.0723 30.6114 40.0695 30.5362 40.0482 30.4647C40.0269 30.3933 39.9878 30.3277 39.9341 30.2736C39.8805 30.2194 39.8139 30.1782 39.74 30.1534C39.666 30.1286 39.5869 30.121 39.5092 30.1311C39.4315 30.1413 39.3575 30.1689 39.2934 30.2118C39.2293 30.2546 39.177 30.3114 39.1409 30.3773C39.1048 30.4432 39.086 30.5163 39.086 30.5905C39.087 30.6971 39.1263 30.8001 39.1976 30.8826C39.046 30.9332 38.9147 31.027 38.8218 31.1511C38.7289 31.2752 38.6789 31.4235 38.6788 31.5756C38.6788 31.6048 38.6847 31.6318 38.6871 31.6588H40.4678C40.4742 31.6302 40.4786 31.6013 40.4809 31.5723C40.4796 31.4202 40.4286 31.2723 40.3349 31.1487C40.2411 31.0252 40.1092 30.9323 39.9573 30.8826Z" fill="white"/>
<path d="M38.5708 33.0146C38.6424 32.9327 38.6818 32.8299 38.6823 32.7236C38.6823 32.6003 38.6306 32.482 38.5384 32.3948C38.4462 32.3076 38.3212 32.2586 38.1909 32.2586C38.0605 32.2586 37.9355 32.3076 37.8433 32.3948C37.7512 32.482 37.6994 32.6003 37.6994 32.7236C37.6999 32.8299 37.7393 32.9327 37.811 33.0146C37.6594 33.0655 37.5282 33.1596 37.4353 33.2839C37.3424 33.4082 37.2924 33.5566 37.2922 33.7088C37.2932 33.7366 37.2959 33.7644 37.3005 33.7919H39.0812C39.0862 33.7644 39.0893 33.7366 39.0907 33.7088C39.0902 33.5565 39.04 33.408 38.9469 33.2838C38.8538 33.1595 38.7225 33.0655 38.5708 33.0146Z" fill="white"/>
<path d="M41.3439 33.0145C41.4156 32.9326 41.455 32.8298 41.4555 32.7235C41.4588 32.6606 41.4485 32.5977 41.4253 32.5387C41.4022 32.4796 41.3665 32.4257 41.3206 32.38C41.2747 32.3344 41.2195 32.2981 41.1583 32.2733C41.0971 32.2485 41.0312 32.2357 40.9646 32.2357C40.8981 32.2357 40.8322 32.2485 40.771 32.2733C40.7098 32.2981 40.6546 32.3344 40.6087 32.38C40.5628 32.4257 40.5271 32.4796 40.5039 32.5387C40.4808 32.5977 40.4705 32.6606 40.4738 32.7235C40.4743 32.8298 40.5137 32.9326 40.5853 33.0145C40.4338 33.065 40.3025 33.1586 40.2094 33.2825C40.1164 33.4063 40.066 33.5544 40.0654 33.7064C40.0668 33.7343 40.0699 33.762 40.0749 33.7895H41.8556C41.8556 33.7614 41.8639 33.7345 41.8639 33.7064C41.8633 33.5544 41.8129 33.4063 41.7198 33.2825C41.6268 33.1586 41.4955 33.065 41.3439 33.0145Z" fill="white"/>
<path d="M37.3646 32.4832H37.1805C37.1814 32.0501 37.3128 31.6261 37.5595 31.2612C37.8062 30.8963 38.1578 30.6055 38.5731 30.4232L38.6503 30.5815C38.2669 30.75 37.9424 31.0183 37.7146 31.3552C37.4869 31.692 37.3654 32.0834 37.3646 32.4832Z" fill="white"/>
<path d="M42.0621 32.4832H41.877C41.8761 32.0834 41.7546 31.692 41.5269 31.3552C41.2991 31.0183 40.9746 30.75 40.5912 30.5815L40.6684 30.4232C41.0838 30.6055 41.4356 30.8962 41.6825 31.2611C41.9294 31.626 42.0611 32.05 42.0621 32.4832Z" fill="white"/>
<path d="M39.5608 34.6388C39.1098 34.6394 38.6679 34.5195 38.2858 34.2929L38.3843 34.1446C38.7427 34.3566 39.1577 34.4674 39.5803 34.464C40.003 34.4606 40.4159 34.3432 40.7705 34.1255L40.8714 34.2726C40.4811 34.512 40.0259 34.6392 39.5608 34.6388Z" fill="white"/>
<path d="M43.1227 14.7672C43.7552 12.0792 41.9648 9.41502 39.1239 8.81664C36.283 8.21826 33.4673 9.91224 32.8349 12.6003C32.2025 15.2883 33.9928 17.9524 36.8337 18.5508C39.6746 19.1492 42.4903 17.4552 43.1227 14.7672Z" fill="#65D4DD"/>
<path d="M39.7852 14.3626C39.8268 14.3628 39.868 14.355 39.9064 14.3398C39.9447 14.3246 39.9794 14.3022 40.0085 14.274C40.0375 14.2458 40.0602 14.2124 40.0753 14.1757C40.0904 14.139 40.0975 14.0998 40.0962 14.0605C40.0958 13.9805 40.0636 13.9036 40.006 13.8451C39.9483 13.7866 39.8695 13.7508 39.7852 13.7448H38.2252C38.3519 13.5106 38.4446 13.2612 38.5007 13.0035C38.5106 12.869 38.4917 12.7341 38.4452 12.6067C38.3987 12.4793 38.3255 12.3621 38.23 12.2621C38.0009 12.0228 37.7017 12.1341 37.6471 12.2621C37.5925 12.3902 37.659 12.8866 37.6471 13.0315C37.6352 13.1765 37.1782 13.7628 36.9348 14.011H35.8557V16.1161H37.0642C37.3645 16.3407 37.5818 16.4238 37.672 16.4238H39.4409C39.4902 16.4267 39.5397 16.4197 39.586 16.4035C39.6324 16.3873 39.6747 16.3621 39.7102 16.3295C39.7457 16.297 39.7737 16.2578 39.7923 16.2145C39.8109 16.1712 39.8198 16.1246 39.8184 16.0779C39.8184 15.7971 39.4931 15.7409 39.4931 15.7409C39.4931 15.7409 40.0084 15.7701 40.0084 15.3736C40.0084 15.0692 39.6308 15.0287 39.6308 15.0287C39.6308 15.0287 40.0926 15.0445 40.0926 14.6918C40.096 14.61 40.0659 14.5302 40.0087 14.4689C39.9514 14.4076 39.8713 14.3695 39.7852 14.3626Z" fill="white"/>
<path d="M38.1066 11.5476V10.5277C38.1066 10.4946 38.0927 10.4629 38.068 10.4395C38.0433 10.4162 38.0097 10.403 37.9748 10.403C37.9398 10.403 37.9063 10.4162 37.8816 10.4395C37.8569 10.4629 37.843 10.4946 37.843 10.5277V11.5476C37.843 11.5807 37.8569 11.6124 37.8816 11.6358C37.9063 11.6592 37.9398 11.6723 37.9748 11.6723C38.0097 11.6723 38.0433 11.6592 38.068 11.6358C38.0927 11.6124 38.1066 11.5807 38.1066 11.5476Z" fill="white"/>
<path d="M39.4836 11.998L40.1437 11.1926C40.1651 11.1664 40.1746 11.1332 40.1702 11.1004C40.1657 11.0675 40.1477 11.0377 40.1199 11.0174C40.0922 10.9971 40.0572 10.9881 40.0224 10.9923C39.9877 10.9966 39.9562 11.0137 39.9348 11.0399L39.2747 11.8453C39.2641 11.8582 39.2563 11.8731 39.2517 11.8889C39.2472 11.9047 39.246 11.9213 39.2482 11.9375C39.2504 11.9538 39.256 11.9695 39.2646 11.9837C39.2732 11.998 39.2847 12.0105 39.2984 12.0205C39.3122 12.0305 39.3278 12.0379 39.3446 12.0422C39.3613 12.0465 39.3787 12.0476 39.3959 12.0456C39.4131 12.0435 39.4297 12.0382 39.4448 12.03C39.4598 12.0219 39.473 12.011 39.4836 11.998Z" fill="white"/>
<path d="M36.473 11.998L35.8129 11.1926C35.7915 11.1664 35.782 11.1332 35.7864 11.1004C35.7909 11.0675 35.8089 11.0377 35.8366 11.0174C35.8643 10.9971 35.8994 10.9881 35.9342 10.9923C35.9689 10.9966 36.0004 11.0137 36.0218 11.0399L36.6819 11.8453C36.7033 11.8715 36.7128 11.9047 36.7084 11.9375C36.7039 11.9704 36.6859 12.0002 36.6582 12.0205C36.6305 12.0408 36.5954 12.0498 36.5606 12.0456C36.5259 12.0413 36.4944 12.0242 36.473 11.998Z" fill="white"/>
<path d="M43.6672 21.6998H41.4235C41.0673 21.6998 40.7694 21.5785 40.7694 21.4313C40.7694 21.2842 40.4749 21.1628 40.1152 21.1628H39.3056C38.9494 21.1628 38.6503 21.4796 38.6503 21.8671V24.918C38.6503 25.3044 38.9447 25.6211 39.3056 25.6211H43.6672C44.0234 25.6211 44.3214 25.3044 44.3214 24.918V22.4041C44.3214 22.0165 44.0269 21.6998 43.6672 21.6998Z" fill="#F7CB14"/>
<path d="M44.1991 22.1727H41.9554C41.5992 22.1727 41.3012 22.066 41.3012 21.9368C41.3012 21.8076 41.0068 21.7009 40.6471 21.7009H39.8374C39.6639 21.7012 39.4976 21.7665 39.3748 21.8825C39.252 21.9984 39.1828 22.1557 39.1821 22.3199V25.0022C39.1828 25.1664 39.252 25.3236 39.3748 25.4396C39.4976 25.5556 39.6639 25.6209 39.8374 25.6212H44.1991C44.3724 25.6206 44.5384 25.5552 44.6609 25.4392C44.7835 25.3233 44.8526 25.1662 44.8532 25.0022V22.7916C44.8526 22.6277 44.7835 22.4706 44.6609 22.3546C44.5384 22.2387 44.3724 22.1733 44.1991 22.1727Z" fill="#FCD62B"/>
<path d="M28.1948 12.0924H27.5941L27.9135 8.93486L26.4307 10.9624L24.3021 7.63635L22.1735 10.9624L20.6908 8.93486L21.0113 12.0924H20.4106C20.327 12.0823 20.2421 12.0892 20.1615 12.1126C20.0809 12.136 20.0066 12.1754 19.9433 12.2281C19.8801 12.2808 19.8294 12.3456 19.7947 12.4183C19.76 12.491 19.7421 12.5698 19.7421 12.6495C19.7421 12.7293 19.76 12.8081 19.7947 12.8808C19.8294 12.9534 19.8801 13.0183 19.9433 13.071C20.0066 13.1237 20.0809 13.1631 20.1615 13.1865C20.2421 13.2099 20.327 13.2167 20.4106 13.2067H28.196C28.2796 13.2167 28.3645 13.2099 28.4451 13.1865C28.5257 13.1631 28.6 13.1237 28.6633 13.071C28.7265 13.0183 28.7772 12.9534 28.8119 12.8808C28.8466 12.8081 28.8645 12.7293 28.8645 12.6495C28.8645 12.5698 28.8466 12.491 28.8119 12.4183C28.7772 12.3456 28.7265 12.2808 28.6633 12.2281C28.6 12.1754 28.5257 12.136 28.4451 12.1126C28.3645 12.0892 28.2796 12.0823 28.196 12.0924H28.1948Z" fill="#FCD62B"/>
</svg>
