<svg width="73" height="48" viewBox="0 0 73 48" fill="none" xmlns="http://www.w3.org/2000/svg">
<path d="M53.9628 40.0816C53.9628 40.0816 59.417 30.4608 55.2862 28.1016C52.2039 26.3451 49.683 29.3358 49.683 29.3358C49.683 29.3358 53.9112 17.6083 49.1559 15.7025C44.4007 13.7968 43.9997 20.9549 43.9997 20.9549C43.9997 20.9549 44.5382 6.34012 34.959 7.58003C27.7688 8.5157 29.2298 16.6095 29.2298 16.6095C29.2298 16.6095 23.2943 14.3995 19.5302 18.9803C15.1016 24.3704 21.249 30.5699 21.249 30.5699C21.249 30.5699 15.4281 26.81 11.9791 29.3358C8.1062 32.1772 8.74214 36.0863 11.7958 40.6212L53.9628 40.0816Z" fill="#F0F8FF"/>
<path d="M63.5144 34.8693L63.5488 33.417L61.83 32.9864C61.7678 32.9685 61.7106 32.9364 61.6628 32.8926C61.6151 32.8487 61.5782 32.7944 61.555 32.7339L61.4691 32.5272C61.438 32.4689 61.4217 32.4039 61.4217 32.3378C61.4217 32.2717 61.438 32.2066 61.4691 32.1484L62.4717 30.6674L61.4748 29.6054L59.9565 30.5066C59.8894 30.5418 59.8147 30.5602 59.7388 30.5602C59.663 30.5602 59.5883 30.5418 59.5211 30.5066C59.4277 30.4616 59.3321 30.4214 59.2347 30.3861C59.161 30.3592 59.095 30.3148 59.0421 30.2569C58.9893 30.1989 58.9512 30.129 58.931 30.0531L58.5414 28.3311H57.0919L56.7024 30.0531C56.6847 30.1327 56.6485 30.2069 56.5967 30.2698C56.5449 30.3326 56.4791 30.3823 56.4045 30.4148L56.2096 30.4951C56.1359 30.529 56.055 30.5441 55.974 30.5391C55.8931 30.5341 55.8146 30.5091 55.7456 30.4664L54.2617 29.5882L53.2648 30.6674L54.1815 32.0163C54.2372 32.1 54.2716 32.1961 54.2816 32.2962C54.2916 32.3963 54.2769 32.4973 54.2388 32.5904C54.2367 32.6075 54.2367 32.6249 54.2388 32.642C54.2034 32.7331 54.1453 32.8136 54.0701 32.8759C53.9949 32.9381 53.9051 32.9802 53.8091 32.9979L52.2279 33.3136L52.1935 34.7659L53.9122 35.1907C53.9886 35.2109 54.0591 35.2491 54.1179 35.302C54.1766 35.3549 54.222 35.421 54.2503 35.4949C54.2796 35.5706 54.2908 35.6521 54.2828 35.7329C54.2748 35.8137 54.248 35.8915 54.2044 35.9599L53.2706 37.3376L54.2675 38.3995L55.6654 37.5729C55.7326 37.5347 55.8086 37.5146 55.886 37.5146C55.9633 37.5146 56.0393 37.5347 56.1065 37.5729L56.3586 37.6935C56.4244 37.7206 56.483 37.7628 56.5298 37.8166C56.5765 37.8704 56.6101 37.9344 56.6279 38.0035L56.9888 39.628H58.444L58.7763 38.1527C58.7932 38.0766 58.8303 38.0065 58.8838 37.9499C58.9373 37.8933 59.0051 37.8523 59.08 37.8312C59.2118 37.7911 59.3378 37.7394 59.4638 37.6877C59.5251 37.6565 59.5928 37.6402 59.6615 37.6402C59.7302 37.6402 59.7979 37.6565 59.8592 37.6877L61.2972 38.5373L62.2941 37.4811L61.4576 36.2412C61.4168 36.1716 61.3953 36.0923 61.3953 36.0116C61.3953 35.9308 61.4168 35.8516 61.4576 35.782L61.5951 35.4662C61.6217 35.3941 61.6661 35.3299 61.7242 35.2797C61.7823 35.2295 61.8523 35.1949 61.9274 35.1792L63.5144 34.8693ZM58.3581 36.6602C57.8083 36.7701 57.2379 36.6999 56.731 36.4599C56.2242 36.22 55.8078 35.823 55.5434 35.3277C55.279 34.8324 55.1806 34.2651 55.2628 33.7095C55.345 33.1539 55.6034 32.6395 55.9998 32.2423C56.3962 31.8451 56.9096 31.5863 57.4641 31.5039C58.0186 31.4216 58.5849 31.5201 59.0792 31.785C59.5736 32.0499 59.9697 32.4671 60.2092 32.975C60.4487 33.4828 60.5188 34.0544 60.4092 34.6052C60.309 35.1109 60.062 35.5757 59.6991 35.9413C59.3363 36.3069 58.8737 36.557 58.3696 36.6602H58.3581Z" fill="#D9EBF9"/>
<path d="M27.1326 21.3854L27.1613 19.9331L25.4425 19.4968C25.379 19.4816 25.3204 19.4504 25.2723 19.4062C25.2242 19.362 25.1881 19.3063 25.1675 19.2442L25.0816 19.0376C25.0494 18.9807 25.0325 18.9164 25.0325 18.851C25.0325 18.7856 25.0494 18.7214 25.0816 18.6645L26.0842 17.1949L25.093 16.1387L23.5748 17.0342C23.5076 17.0694 23.4329 17.0878 23.3571 17.0878C23.2812 17.0878 23.2065 17.0694 23.1394 17.0342L22.8472 16.9137C22.7739 16.8873 22.7082 16.843 22.6562 16.7849C22.6042 16.7268 22.5675 16.6566 22.5492 16.5807L22.1597 14.8586H20.7102L20.3206 16.5807C20.3037 16.6614 20.2672 16.7367 20.2142 16.7998C20.1612 16.8629 20.0934 16.9119 20.017 16.9424L19.8279 17.0285C19.7537 17.0615 19.6725 17.0756 19.5915 17.0696C19.5106 17.0636 19.4323 17.0376 19.3638 16.994L17.8742 16.1215L16.8831 17.1777L17.7998 18.5324C17.8581 18.6151 17.8936 18.7117 17.9026 18.8125C17.9117 18.9133 17.894 19.0147 17.8513 19.1065V19.1581C17.8159 19.2492 17.7578 19.3297 17.6826 19.392C17.6074 19.4543 17.5176 19.4963 17.4216 19.514L15.8404 19.8355L15.7716 21.2878L17.4904 21.7068C17.5666 21.7293 17.6366 21.7689 17.6952 21.8226C17.7538 21.8763 17.7993 21.9427 17.8284 22.0168C17.8605 22.0916 17.8736 22.1732 17.8666 22.2543C17.8596 22.3355 17.8327 22.4136 17.7883 22.4818L16.8544 23.8652L17.8341 24.9271L19.2378 24.1005C19.3055 24.0638 19.3813 24.0446 19.4583 24.0446C19.5354 24.0446 19.6112 24.0638 19.6789 24.1005C19.7601 24.1464 19.8443 24.1867 19.931 24.2211C19.9969 24.2487 20.0553 24.2919 20.1011 24.3468C20.147 24.4017 20.179 24.4669 20.1946 24.5368L20.5612 26.1555H22.0107L22.343 24.6803C22.3611 24.6041 22.3986 24.534 22.4518 24.4766C22.505 24.4193 22.5722 24.3767 22.6467 24.3531C22.7779 24.3148 22.9063 24.2668 23.0305 24.2096C23.0927 24.1783 23.1614 24.162 23.231 24.162C23.3007 24.162 23.3693 24.1783 23.4316 24.2096L24.8696 25.0592L25.8607 23.9972L25.03 22.763C24.9848 22.6949 24.9584 22.616 24.9534 22.5344C24.9483 22.4528 24.9649 22.3712 25.0013 22.2981C25.053 22.1974 25.0989 22.0939 25.1389 21.9881C25.1655 21.9154 25.2099 21.8506 25.2679 21.7995C25.326 21.7484 25.3958 21.7126 25.4711 21.6953L27.1326 21.3854ZM21.9763 23.1763C21.4266 23.2862 20.8561 23.216 20.3493 22.976C19.8424 22.7361 19.426 22.3391 19.1616 21.8438C18.8972 21.3485 18.7989 20.7812 18.881 20.2256C18.9632 19.67 19.2216 19.1556 19.618 18.7584C20.0144 18.3612 20.5278 18.1024 21.0823 18.02C21.6369 17.9377 22.2031 18.0362 22.6975 18.3011C23.1918 18.566 23.588 18.9832 23.8275 19.4911C24.067 19.9989 24.137 20.5705 24.0274 21.1213C23.9323 21.6323 23.6876 22.1033 23.3243 22.4744C22.9611 22.8455 22.4958 23.0999 21.9878 23.205L21.9763 23.1763Z" fill="#D9EBF9"/>
<path d="M60.3107 40.7302C60.3107 41.5912 48.7549 42.2801 34.5006 42.2801C20.2464 42.2801 8.69055 41.5912 8.69055 40.7302C8.69055 39.8691 20.2464 39.186 34.5006 39.186C48.7549 39.186 60.3107 39.8519 60.3107 40.7302Z" fill="#BAD3E2"/>
<path d="M39.1181 41.442H26.1414C25.2598 41.4418 24.4108 41.1082 23.764 40.508C23.1171 39.9078 22.7202 39.0852 22.6523 38.2045L20.6586 12.1206H44.6009L42.6129 38.2045C42.5437 39.0857 42.1455 39.9084 41.4978 40.5084C40.85 41.1085 40.0003 41.4419 39.1181 41.442Z" fill="#5A88DB"/>
<path d="M32.857 15.9092H32.834C32.2866 15.9092 31.8429 16.3538 31.8429 16.9023V37.0851C31.8429 37.6336 32.2866 38.0782 32.834 38.0782H32.857C33.4044 38.0782 33.8481 37.6336 33.8481 37.0851V16.9023C33.8481 16.3538 33.4044 15.9092 32.857 15.9092Z" fill="#3767B5"/>
<path d="M36.2423 38.0781C35.9856 38.0306 35.7582 37.8831 35.61 37.6679C35.4618 37.4526 35.4048 37.1873 35.4517 36.93L39.2272 17.1088C39.276 16.8523 39.4235 16.6255 39.638 16.4772C39.8524 16.329 40.1165 16.2713 40.373 16.3166C40.629 16.3655 40.8554 16.5133 41.0034 16.7282C41.1513 16.943 41.2089 17.2076 41.1637 17.4647L37.3881 37.2917C37.3395 37.5478 37.1917 37.7742 36.977 37.9215C36.7623 38.0688 36.4982 38.1251 36.2423 38.0781Z" fill="#265599"/>
<path d="M36.0074 38.0323C35.8058 37.9933 35.6277 37.8761 35.5118 37.7063C35.396 37.5365 35.3517 37.3277 35.3886 37.1253L39.2616 16.8907C39.3005 16.6888 39.4174 16.5103 39.5869 16.3942C39.7564 16.2782 39.9648 16.2338 40.1668 16.2708C40.3696 16.3097 40.5486 16.4277 40.6647 16.5989C40.7807 16.77 40.8242 16.9803 40.7855 17.1835L36.9355 37.4295C36.9144 37.5304 36.8736 37.626 36.8155 37.7109C36.7573 37.7959 36.683 37.8685 36.5967 37.9245C36.5104 37.9805 36.4139 38.0189 36.3128 38.0374C36.2116 38.0559 36.1079 38.0541 36.0074 38.0323Z" fill="#3767B5"/>
<path d="M29.1604 38.0782C29.4163 38.0294 29.6428 37.8815 29.7908 37.6667C29.9387 37.4518 29.9963 37.1872 29.951 36.9302L26.1984 17.0917C26.1497 16.8353 26.0021 16.6084 25.7877 16.4601C25.5732 16.3119 25.3091 16.2542 25.0526 16.2995H25.0239C24.769 16.3497 24.544 16.4981 24.3972 16.7128C24.2504 16.9275 24.1936 17.1913 24.239 17.4476L28.0146 37.2746C28.0367 37.4029 28.084 37.5256 28.1536 37.6356C28.2233 37.7456 28.314 37.8407 28.4205 37.9154C28.527 37.9901 28.6472 38.0429 28.7742 38.0709C28.9012 38.0988 29.0325 38.1013 29.1604 38.0782Z" fill="#265599"/>
<path d="M29.3959 38.0323C29.5975 37.9933 29.7756 37.8761 29.8915 37.7063C30.0073 37.5365 30.0516 37.3277 30.0147 37.1253L26.1589 16.8907C26.12 16.6888 26.0031 16.5103 25.8336 16.3942C25.6641 16.2782 25.4557 16.2338 25.2537 16.2708C25.0509 16.3097 24.8719 16.4277 24.7558 16.5989C24.6398 16.77 24.5964 16.9803 24.635 17.1835L28.485 37.4295C28.5278 37.6295 28.6471 37.8047 28.8175 37.9175C28.9879 38.0302 29.1956 38.0714 29.3959 38.0323Z" fill="#3767B5"/>
<g style="mix-blend-mode:overlay" opacity="0.24">
<path d="M41.674 12.1205C42.364 14.2148 42.7103 16.4073 42.6996 18.6128C42.6996 28.6296 35.6297 36.7521 26.9041 36.7521C25.3945 36.7504 23.8952 36.5042 22.464 36.0231L22.6301 38.1987C22.698 39.0793 23.0949 39.902 23.7418 40.5022C24.3886 41.1024 25.2376 41.4359 26.1192 41.4362H39.0959C39.9781 41.436 40.8278 41.1026 41.4756 40.5026C42.1233 39.9025 42.5215 39.0798 42.5907 38.1987L44.5787 12.1147L41.674 12.1205Z" fill="black"/>
</g>
<path d="M36.6203 5.71436H27.9463C27.3261 5.71436 26.8234 6.21808 26.8234 6.83945V10.1057C26.8234 10.7271 27.3261 11.2308 27.9463 11.2308H36.6203C37.2405 11.2308 37.7432 10.7271 37.7432 10.1057V6.83945C37.7432 6.21808 37.2405 5.71436 36.6203 5.71436Z" fill="#3767B5"/>
<path d="M29.1209 6.65003H35.423C35.6403 6.65003 35.8487 6.73651 36.0023 6.89045C36.156 7.04439 36.2423 7.25318 36.2423 7.47089V9.85311C36.2438 10.0673 36.1612 10.2736 36.0121 10.4272C35.8631 10.5808 35.6597 10.6695 35.4459 10.674H29.1438C28.9265 10.674 28.7181 10.5875 28.5645 10.4336C28.4108 10.2796 28.3245 10.0708 28.3245 9.85311V7.46515C28.3245 7.24744 28.4108 7.03865 28.5645 6.88471C28.7181 6.73077 28.9265 6.64429 29.1438 6.64429L29.1209 6.65003Z" fill="white"/>
<path d="M44.7441 14.319H20.6814C20.5295 14.319 20.3838 14.2585 20.2763 14.1508C20.1689 14.0432 20.1085 13.8972 20.1085 13.7449C20.1085 13.5927 20.1689 13.4467 20.2763 13.339C20.3838 13.2314 20.5295 13.1709 20.6814 13.1709H44.7441C44.8961 13.1709 45.0418 13.2314 45.1492 13.339C45.2567 13.4467 45.317 13.5927 45.317 13.7449C45.317 13.8972 45.2567 14.0432 45.1492 14.1508C45.0418 14.2585 44.8961 14.319 44.7441 14.319Z" fill="#96C4FC"/>
<path d="M44.4522 8.70508H20.9568C20.3303 8.70508 19.8224 9.21394 19.8224 9.84166V11.403C19.8224 12.0307 20.3303 12.5396 20.9568 12.5396H44.4522C45.0787 12.5396 45.5866 12.0307 45.5866 11.403V9.84166C45.5866 9.21394 45.0787 8.70508 44.4522 8.70508Z" fill="#4977CD"/>
<g style="mix-blend-mode:overlay" opacity="0.24">
<path d="M20.9282 12.5395H44.4179C44.7218 12.5395 45.0133 12.4186 45.2282 12.2033C45.4431 11.988 45.5638 11.696 45.5638 11.3915V10.6682H19.7823V11.4087C19.7869 11.7102 19.9096 11.9978 20.124 12.2094C20.3384 12.421 20.6272 12.5396 20.9282 12.5395Z" fill="black"/>
</g>
<path d="M58.1221 32.1715H38.9809L38.3907 22.126H58.7065L58.1221 32.1715Z" fill="#E08B03"/>
<path d="M49.1445 23.4747C49.1445 24.7319 50.4335 25.7708 52.0091 25.7708L58.5346 25.8282L58.7924 21.236H52.0205C50.4335 21.1958 49.1445 22.2176 49.1445 23.4747Z" fill="#E08B03"/>
<path d="M38.19 24.8468L38.0812 22.9927H45.151C46.6234 22.9927 47.838 23.7906 48.1016 24.8468H59.3766L58.7407 34.8981H38.7916L38.3505 27.6079L38.1786 24.8525L38.19 24.8468Z" fill="#FEB801"/>
<path d="M10.9991 30.5066L15.2846 30.6329L13.0101 35.2136L10.9991 30.5066Z" fill="#FFA60E"/>
<path d="M50.0035 18.0158L49.8087 13.7278L54.5353 15.6623L50.0035 18.0158Z" fill="#82A816"/>
</svg>
