<svg width="1440" height="760" viewBox="0 0 1440 760" fill="none" xmlns="http://www.w3.org/2000/svg">
<mask id="mask0_689_1123" style="mask-type:alpha" maskUnits="userSpaceOnUse" x="0" y="0" width="1440" height="760">
<rect width="1440" height="760" fill="url(#paint0_radial_689_1123)"/>
</mask>
<g mask="url(#mask0_689_1123)">
<rect x="-4.5" y="379.5" width="63" height="63" fill="#F6F4F1" stroke="#DCDCDC"/>
<rect x="58.5" y="379.5" width="63" height="63" fill="#FAFAFA" stroke="#DCDCDC"/>
<rect x="121.5" y="379.5" width="63" height="63" fill="#F6F4F1" stroke="#DCDCDC"/>
<rect x="184.5" y="379.5" width="63" height="63" fill="#FAFAFA" stroke="#DCDCDC"/>
<rect x="247.5" y="379.5" width="63" height="63" fill="#F6F4F1" stroke="#DCDCDC"/>
<rect x="310.5" y="379.5" width="63" height="63" fill="#FAFAFA" stroke="#DCDCDC"/>
<rect x="373.5" y="379.5" width="63" height="63" fill="#F6F4F1" stroke="#DCDCDC"/>
<rect x="436.5" y="379.5" width="63" height="63" fill="#FAFAFA" stroke="#DCDCDC"/>
<rect x="499.5" y="379.5" width="63" height="63" fill="#F6F4F1" stroke="#DCDCDC"/>
<rect x="562.5" y="379.5" width="63" height="63" fill="#FAFAFA" stroke="#DCDCDC"/>
<rect x="625.5" y="379.5" width="63" height="63" fill="#F6F4F1" stroke="#DCDCDC"/>
<rect x="688.5" y="379.5" width="63" height="63" fill="#FAFAFA" stroke="#DCDCDC"/>
<rect x="750.5" y="379.5" width="63" height="63" fill="#F6F4F1" stroke="#DCDCDC"/>
<rect x="813.5" y="379.5" width="63" height="63" fill="#FAFAFA" stroke="#DCDCDC"/>
<rect x="876.5" y="379.5" width="63" height="63" fill="#F6F4F1" stroke="#DCDCDC"/>
<rect x="939.5" y="379.5" width="63" height="63" fill="#FAFAFA" stroke="#DCDCDC"/>
<rect x="1002.5" y="379.5" width="63" height="63" fill="#F6F4F1" stroke="#DCDCDC"/>
<rect x="1065.5" y="379.5" width="63" height="63" fill="#FAFAFA" stroke="#DCDCDC"/>
<rect x="1128.5" y="379.5" width="63" height="63" fill="#F6F4F1" stroke="#DCDCDC"/>
<rect x="1191.5" y="379.5" width="63" height="63" fill="#FAFAFA" stroke="#DCDCDC"/>
<rect x="1254.5" y="379.5" width="63" height="63" fill="#F6F4F1" stroke="#DCDCDC"/>
<rect x="1317.5" y="379.5" width="63" height="63" fill="#FAFAFA" stroke="#DCDCDC"/>
<rect x="1380.5" y="379.5" width="63" height="63" fill="#F6F4F1" stroke="#DCDCDC"/>
<rect x="-4.5" y="503.5" width="63" height="63" fill="#F6F4F1" stroke="#DCDCDC"/>
<rect x="58.5" y="503.5" width="63" height="63" fill="#FAFAFA" stroke="#DCDCDC"/>
<rect x="121.5" y="503.5" width="63" height="63" fill="#F6F4F1" stroke="#DCDCDC"/>
<rect x="184.5" y="503.5" width="63" height="63" fill="#FAFAFA" stroke="#DCDCDC"/>
<rect x="247.5" y="503.5" width="63" height="63" fill="#F6F4F1" stroke="#DCDCDC"/>
<rect x="310.5" y="503.5" width="63" height="63" fill="#FAFAFA" stroke="#DCDCDC"/>
<rect x="373.5" y="503.5" width="63" height="63" fill="#F6F4F1" stroke="#DCDCDC"/>
<rect x="436.5" y="503.5" width="63" height="63" fill="#FAFAFA" stroke="#DCDCDC"/>
<rect x="499.5" y="503.5" width="63" height="63" fill="#F6F4F1" stroke="#DCDCDC"/>
<rect x="562.5" y="503.5" width="63" height="63" fill="#FAFAFA" stroke="#DCDCDC"/>
<rect x="625.5" y="503.5" width="63" height="63" fill="#F6F4F1" stroke="#DCDCDC"/>
<rect x="688.5" y="503.5" width="63" height="63" fill="#FAFAFA" stroke="#DCDCDC"/>
<rect x="750.5" y="503.5" width="63" height="63" fill="#F6F4F1" stroke="#DCDCDC"/>
<rect x="813.5" y="503.5" width="63" height="63" fill="#FAFAFA" stroke="#DCDCDC"/>
<rect x="876.5" y="503.5" width="63" height="63" fill="#F6F4F1" stroke="#DCDCDC"/>
<rect x="939.5" y="503.5" width="63" height="63" fill="#FAFAFA" stroke="#DCDCDC"/>
<rect x="1002.5" y="503.5" width="63" height="63" fill="#F6F4F1" stroke="#DCDCDC"/>
<rect x="1065.5" y="503.5" width="63" height="63" fill="#FAFAFA" stroke="#DCDCDC"/>
<rect x="1128.5" y="503.5" width="63" height="63" fill="#F6F4F1" stroke="#DCDCDC"/>
<rect x="1191.5" y="503.5" width="63" height="63" fill="#FAFAFA" stroke="#DCDCDC"/>
<rect x="1254.5" y="503.5" width="63" height="63" fill="#F6F4F1" stroke="#DCDCDC"/>
<rect x="1317.5" y="503.5" width="63" height="63" fill="#FAFAFA" stroke="#DCDCDC"/>
<rect x="1380.5" y="503.5" width="63" height="63" fill="#F6F4F1" stroke="#DCDCDC"/>
<rect x="-4.5" y="7.5" width="63" height="63" fill="#F6F4F1" stroke="#DCDCDC"/>
<rect x="58.5" y="7.5" width="63" height="63" fill="#FAFAFA" stroke="#DCDCDC"/>
<rect x="121.5" y="7.5" width="63" height="63" fill="#F6F4F1" stroke="#DCDCDC"/>
<rect x="184.5" y="7.5" width="63" height="63" fill="#FAFAFA" stroke="#DCDCDC"/>
<rect x="247.5" y="7.5" width="63" height="63" fill="#F6F4F1" stroke="#DCDCDC"/>
<rect x="310.5" y="7.5" width="63" height="63" fill="#FAFAFA" stroke="#DCDCDC"/>
<rect x="373.5" y="7.5" width="63" height="63" fill="#F6F4F1" stroke="#DCDCDC"/>
<rect x="436.5" y="7.5" width="63" height="63" fill="#FAFAFA" stroke="#DCDCDC"/>
<rect x="499.5" y="7.5" width="63" height="63" fill="#F6F4F1" stroke="#DCDCDC"/>
<rect x="562.5" y="7.5" width="63" height="63" fill="#FAFAFA" stroke="#DCDCDC"/>
<rect x="625.5" y="7.5" width="63" height="63" fill="#F6F4F1" stroke="#DCDCDC"/>
<rect x="688.5" y="7.5" width="63" height="63" fill="#FAFAFA" stroke="#DCDCDC"/>
<rect x="750.5" y="7.5" width="63" height="63" fill="#F6F4F1" stroke="#DCDCDC"/>
<rect x="813.5" y="7.5" width="63" height="63" fill="#FAFAFA" stroke="#DCDCDC"/>
<rect x="876.5" y="7.5" width="63" height="63" fill="#F6F4F1" stroke="#DCDCDC"/>
<rect x="939.5" y="7.5" width="63" height="63" fill="#FAFAFA" stroke="#DCDCDC"/>
<rect x="1002.5" y="7.5" width="63" height="63" fill="#F6F4F1" stroke="#DCDCDC"/>
<rect x="1065.5" y="7.5" width="63" height="63" fill="#FAFAFA" stroke="#DCDCDC"/>
<rect x="1128.5" y="7.5" width="63" height="63" fill="#F6F4F1" stroke="#DCDCDC"/>
<rect x="1191.5" y="7.5" width="63" height="63" fill="#FAFAFA" stroke="#DCDCDC"/>
<rect x="1254.5" y="7.5" width="63" height="63" fill="#F6F4F1" stroke="#DCDCDC"/>
<rect x="1317.5" y="7.5" width="63" height="63" fill="#FAFAFA" stroke="#DCDCDC"/>
<rect x="1380.5" y="7.5" width="63" height="63" fill="#F6F4F1" stroke="#DCDCDC"/>
<rect x="-4.5" y="627.5" width="63" height="63" fill="#F6F4F1" stroke="#DCDCDC"/>
<rect x="58.5" y="627.5" width="63" height="63" fill="#FAFAFA" stroke="#DCDCDC"/>
<rect x="121.5" y="627.5" width="63" height="63" fill="#F6F4F1" stroke="#DCDCDC"/>
<rect x="184.5" y="627.5" width="63" height="63" fill="#FAFAFA" stroke="#DCDCDC"/>
<rect x="247.5" y="627.5" width="63" height="63" fill="#F6F4F1" stroke="#DCDCDC"/>
<rect x="310.5" y="627.5" width="63" height="63" fill="#FAFAFA" stroke="#DCDCDC"/>
<rect x="373.5" y="627.5" width="63" height="63" fill="#F6F4F1" stroke="#DCDCDC"/>
<rect x="436.5" y="627.5" width="63" height="63" fill="#FAFAFA" stroke="#DCDCDC"/>
<rect x="499.5" y="627.5" width="63" height="63" fill="#F6F4F1" stroke="#DCDCDC"/>
<rect x="562.5" y="627.5" width="63" height="63" fill="#FAFAFA" stroke="#DCDCDC"/>
<rect x="625.5" y="627.5" width="63" height="63" fill="#F6F4F1" stroke="#DCDCDC"/>
<rect x="688.5" y="627.5" width="63" height="63" fill="#FAFAFA" stroke="#DCDCDC"/>
<rect x="750.5" y="627.5" width="63" height="63" fill="#F6F4F1" stroke="#DCDCDC"/>
<rect x="813.5" y="627.5" width="63" height="63" fill="#FAFAFA" stroke="#DCDCDC"/>
<rect x="876.5" y="627.5" width="63" height="63" fill="#F6F4F1" stroke="#DCDCDC"/>
<rect x="939.5" y="627.5" width="63" height="63" fill="#FAFAFA" stroke="#DCDCDC"/>
<rect x="1002.5" y="627.5" width="63" height="63" fill="#F6F4F1" stroke="#DCDCDC"/>
<rect x="1065.5" y="627.5" width="63" height="63" fill="#FAFAFA" stroke="#DCDCDC"/>
<rect x="1128.5" y="627.5" width="63" height="63" fill="#F6F4F1" stroke="#DCDCDC"/>
<rect x="1191.5" y="627.5" width="63" height="63" fill="#FAFAFA" stroke="#DCDCDC"/>
<rect x="1254.5" y="627.5" width="63" height="63" fill="#F6F4F1" stroke="#DCDCDC"/>
<rect x="1317.5" y="627.5" width="63" height="63" fill="#FAFAFA" stroke="#DCDCDC"/>
<rect x="1380.5" y="627.5" width="63" height="63" fill="#F6F4F1" stroke="#DCDCDC"/>
<rect x="-4.5" y="131.5" width="63" height="63" fill="#F6F4F1" stroke="#DCDCDC"/>
<rect x="58.5" y="131.5" width="63" height="63" fill="#FAFAFA" stroke="#DCDCDC"/>
<rect x="121.5" y="131.5" width="63" height="63" fill="#F6F4F1" stroke="#DCDCDC"/>
<rect x="184.5" y="131.5" width="63" height="63" fill="#FAFAFA" stroke="#DCDCDC"/>
<rect x="247.5" y="131.5" width="63" height="63" fill="#F6F4F1" stroke="#DCDCDC"/>
<rect x="310.5" y="131.5" width="63" height="63" fill="#FAFAFA" stroke="#DCDCDC"/>
<rect x="373.5" y="131.5" width="63" height="63" fill="#F6F4F1" stroke="#DCDCDC"/>
<rect x="436.5" y="131.5" width="63" height="63" fill="#FAFAFA" stroke="#DCDCDC"/>
<rect x="499.5" y="131.5" width="63" height="63" fill="#F6F4F1" stroke="#DCDCDC"/>
<rect x="562.5" y="131.5" width="63" height="63" fill="#FAFAFA" stroke="#DCDCDC"/>
<rect x="625.5" y="131.5" width="63" height="63" fill="#F6F4F1" stroke="#DCDCDC"/>
<rect x="688.5" y="131.5" width="63" height="63" fill="#FAFAFA" stroke="#DCDCDC"/>
<rect x="750.5" y="131.5" width="63" height="63" fill="#F6F4F1" stroke="#DCDCDC"/>
<rect x="813.5" y="131.5" width="63" height="63" fill="#FAFAFA" stroke="#DCDCDC"/>
<rect x="876.5" y="131.5" width="63" height="63" fill="#F6F4F1" stroke="#DCDCDC"/>
<rect x="939.5" y="131.5" width="63" height="63" fill="#FAFAFA" stroke="#DCDCDC"/>
<rect x="1002.5" y="131.5" width="63" height="63" fill="#F6F4F1" stroke="#DCDCDC"/>
<rect x="1065.5" y="131.5" width="63" height="63" fill="#FAFAFA" stroke="#DCDCDC"/>
<rect x="1128.5" y="131.5" width="63" height="63" fill="#F6F4F1" stroke="#DCDCDC"/>
<rect x="1191.5" y="131.5" width="63" height="63" fill="#FAFAFA" stroke="#DCDCDC"/>
<rect x="1254.5" y="131.5" width="63" height="63" fill="#F6F4F1" stroke="#DCDCDC"/>
<rect x="1317.5" y="131.5" width="63" height="63" fill="#FAFAFA" stroke="#DCDCDC"/>
<rect x="1380.5" y="131.5" width="63" height="63" fill="#F6F4F1" stroke="#DCDCDC"/>
<rect x="-4.5" y="751.5" width="63" height="63" fill="#F6F4F1" stroke="#DCDCDC"/>
<rect x="58.5" y="751.5" width="63" height="63" fill="#FAFAFA" stroke="#DCDCDC"/>
<rect x="121.5" y="751.5" width="63" height="63" fill="#F6F4F1" stroke="#DCDCDC"/>
<rect x="184.5" y="751.5" width="63" height="63" fill="#FAFAFA" stroke="#DCDCDC"/>
<rect x="247.5" y="751.5" width="63" height="63" fill="#F6F4F1" stroke="#DCDCDC"/>
<rect x="310.5" y="751.5" width="63" height="63" fill="#FAFAFA" stroke="#DCDCDC"/>
<rect x="373.5" y="751.5" width="63" height="63" fill="#F6F4F1" stroke="#DCDCDC"/>
<rect x="436.5" y="751.5" width="63" height="63" fill="#FAFAFA" stroke="#DCDCDC"/>
<rect x="499.5" y="751.5" width="63" height="63" fill="#F6F4F1" stroke="#DCDCDC"/>
<rect x="562.5" y="751.5" width="63" height="63" fill="#FAFAFA" stroke="#DCDCDC"/>
<rect x="625.5" y="751.5" width="63" height="63" fill="#F6F4F1" stroke="#DCDCDC"/>
<rect x="688.5" y="751.5" width="63" height="63" fill="#FAFAFA" stroke="#DCDCDC"/>
<rect x="750.5" y="751.5" width="63" height="63" fill="#F6F4F1" stroke="#DCDCDC"/>
<rect x="813.5" y="751.5" width="63" height="63" fill="#FAFAFA" stroke="#DCDCDC"/>
<rect x="876.5" y="751.5" width="63" height="63" fill="#F6F4F1" stroke="#DCDCDC"/>
<rect x="939.5" y="751.5" width="63" height="63" fill="#FAFAFA" stroke="#DCDCDC"/>
<rect x="1002.5" y="751.5" width="63" height="63" fill="#F6F4F1" stroke="#DCDCDC"/>
<rect x="1065.5" y="751.5" width="63" height="63" fill="#FAFAFA" stroke="#DCDCDC"/>
<rect x="1128.5" y="751.5" width="63" height="63" fill="#F6F4F1" stroke="#DCDCDC"/>
<rect x="1191.5" y="751.5" width="63" height="63" fill="#FAFAFA" stroke="#DCDCDC"/>
<rect x="1254.5" y="751.5" width="63" height="63" fill="#F6F4F1" stroke="#DCDCDC"/>
<rect x="1317.5" y="751.5" width="63" height="63" fill="#FAFAFA" stroke="#DCDCDC"/>
<rect x="1380.5" y="751.5" width="63" height="63" fill="#F6F4F1" stroke="#DCDCDC"/>
<rect x="-4.5" y="255.5" width="63" height="63" fill="#F6F4F1" stroke="#DCDCDC"/>
<rect x="58.5" y="255.5" width="63" height="63" fill="#FAFAFA" stroke="#DCDCDC"/>
<rect x="121.5" y="255.5" width="63" height="63" fill="#F6F4F1" stroke="#DCDCDC"/>
<rect x="184.5" y="255.5" width="63" height="63" fill="#FAFAFA" stroke="#DCDCDC"/>
<rect x="247.5" y="255.5" width="63" height="63" fill="#F6F4F1" stroke="#DCDCDC"/>
<rect x="310.5" y="255.5" width="63" height="63" fill="#FAFAFA" stroke="#DCDCDC"/>
<rect x="373.5" y="255.5" width="63" height="63" fill="#F6F4F1" stroke="#DCDCDC"/>
<rect x="436.5" y="255.5" width="63" height="63" fill="#FAFAFA" stroke="#DCDCDC"/>
<rect x="499.5" y="255.5" width="63" height="63" fill="#F6F4F1" stroke="#DCDCDC"/>
<rect x="562.5" y="255.5" width="63" height="63" fill="#FAFAFA" stroke="#DCDCDC"/>
<rect x="625.5" y="255.5" width="63" height="63" fill="#F6F4F1" stroke="#DCDCDC"/>
<rect x="688.5" y="255.5" width="63" height="63" fill="#FAFAFA" stroke="#DCDCDC"/>
<rect x="750.5" y="255.5" width="63" height="63" fill="#F6F4F1" stroke="#DCDCDC"/>
<rect x="813.5" y="255.5" width="63" height="63" fill="#FAFAFA" stroke="#DCDCDC"/>
<rect x="876.5" y="255.5" width="63" height="63" fill="#F6F4F1" stroke="#DCDCDC"/>
<rect x="939.5" y="255.5" width="63" height="63" fill="#FAFAFA" stroke="#DCDCDC"/>
<rect x="1002.5" y="255.5" width="63" height="63" fill="#F6F4F1" stroke="#DCDCDC"/>
<rect x="1065.5" y="255.5" width="63" height="63" fill="#FAFAFA" stroke="#DCDCDC"/>
<rect x="1128.5" y="255.5" width="63" height="63" fill="#F6F4F1" stroke="#DCDCDC"/>
<rect x="1191.5" y="255.5" width="63" height="63" fill="#FAFAFA" stroke="#DCDCDC"/>
<rect x="1254.5" y="255.5" width="63" height="63" fill="#F6F4F1" stroke="#DCDCDC"/>
<rect x="1317.5" y="255.5" width="63" height="63" fill="#FAFAFA" stroke="#DCDCDC"/>
<rect x="1380.5" y="255.5" width="63" height="63" fill="#F6F4F1" stroke="#DCDCDC"/>
<rect x="-4.5" y="441.5" width="63" height="63" fill="#FAFAFA" stroke="#DCDCDC"/>
<rect x="58.5" y="441.5" width="63" height="63" fill="#F6F4F1" stroke="#DCDCDC"/>
<rect x="121.5" y="441.5" width="63" height="63" fill="#FAFAFA" stroke="#DCDCDC"/>
<rect x="184.5" y="441.5" width="63" height="63" fill="#F6F4F1" stroke="#DCDCDC"/>
<rect x="247.5" y="441.5" width="63" height="63" fill="#FAFAFA" stroke="#DCDCDC"/>
<rect x="310.5" y="441.5" width="63" height="63" fill="#F6F4F1" stroke="#DCDCDC"/>
<rect x="373.5" y="441.5" width="63" height="63" fill="#FAFAFA" stroke="#DCDCDC"/>
<rect x="436.5" y="441.5" width="63" height="63" fill="#F6F4F1" stroke="#DCDCDC"/>
<rect x="499.5" y="441.5" width="63" height="63" fill="#FAFAFA" stroke="#DCDCDC"/>
<rect x="562.5" y="441.5" width="63" height="63" fill="#F6F4F1" stroke="#DCDCDC"/>
<rect x="625.5" y="441.5" width="63" height="63" fill="#FAFAFA" stroke="#DCDCDC"/>
<rect x="687.5" y="441.5" width="63" height="63" fill="#F6F4F1" stroke="#DCDCDC"/>
<rect x="750.5" y="441.5" width="63" height="63" fill="#FAFAFA" stroke="#DCDCDC"/>
<rect x="813.5" y="441.5" width="63" height="63" fill="#F6F4F1" stroke="#DCDCDC"/>
<rect x="876.5" y="441.5" width="63" height="63" fill="#FAFAFA" stroke="#DCDCDC"/>
<rect x="939.5" y="441.5" width="63" height="63" fill="#F6F4F1" stroke="#DCDCDC"/>
<rect x="1002.5" y="441.5" width="63" height="63" fill="#FAFAFA" stroke="#DCDCDC"/>
<rect x="1065.5" y="441.5" width="63" height="63" fill="#F6F4F1" stroke="#DCDCDC"/>
<rect x="1128.5" y="441.5" width="63" height="63" fill="#FAFAFA" stroke="#DCDCDC"/>
<rect x="1191.5" y="441.5" width="63" height="63" fill="#F6F4F1" stroke="#DCDCDC"/>
<rect x="1254.5" y="441.5" width="63" height="63" fill="#FAFAFA" stroke="#DCDCDC"/>
<rect x="1317.5" y="441.5" width="63" height="63" fill="#F6F4F1" stroke="#DCDCDC"/>
<rect x="1380.5" y="441.5" width="63" height="63" fill="#FAFAFA" stroke="#DCDCDC"/>
<rect x="-4.5" y="-54.5" width="63" height="63" fill="#FAFAFA" stroke="#DCDCDC"/>
<rect x="58.5" y="-54.5" width="63" height="63" fill="#F6F4F1" stroke="#DCDCDC"/>
<rect x="121.5" y="-54.5" width="63" height="63" fill="#FAFAFA" stroke="#DCDCDC"/>
<rect x="184.5" y="-54.5" width="63" height="63" fill="#F6F4F1" stroke="#DCDCDC"/>
<rect x="247.5" y="-54.5" width="63" height="63" fill="#FAFAFA" stroke="#DCDCDC"/>
<rect x="310.5" y="-54.5" width="63" height="63" fill="#F6F4F1" stroke="#DCDCDC"/>
<rect x="373.5" y="-54.5" width="63" height="63" fill="#FAFAFA" stroke="#DCDCDC"/>
<rect x="436.5" y="-54.5" width="63" height="63" fill="#F6F4F1" stroke="#DCDCDC"/>
<rect x="499.5" y="-54.5" width="63" height="63" fill="#FAFAFA" stroke="#DCDCDC"/>
<rect x="562.5" y="-54.5" width="63" height="63" fill="#F6F4F1" stroke="#DCDCDC"/>
<rect x="625.5" y="-54.5" width="63" height="63" fill="#FAFAFA" stroke="#DCDCDC"/>
<rect x="687.5" y="-54.5" width="63" height="63" fill="#F6F4F1" stroke="#DCDCDC"/>
<rect x="750.5" y="-54.5" width="63" height="63" fill="#FAFAFA" stroke="#DCDCDC"/>
<rect x="813.5" y="-54.5" width="63" height="63" fill="#F6F4F1" stroke="#DCDCDC"/>
<rect x="876.5" y="-54.5" width="63" height="63" fill="#FAFAFA" stroke="#DCDCDC"/>
<rect x="939.5" y="-54.5" width="63" height="63" fill="#F6F4F1" stroke="#DCDCDC"/>
<rect x="1002.5" y="-54.5" width="63" height="63" fill="#FAFAFA" stroke="#DCDCDC"/>
<rect x="1065.5" y="-54.5" width="63" height="63" fill="#F6F4F1" stroke="#DCDCDC"/>
<rect x="1128.5" y="-54.5" width="63" height="63" fill="#FAFAFA" stroke="#DCDCDC"/>
<rect x="1191.5" y="-54.5" width="63" height="63" fill="#F6F4F1" stroke="#DCDCDC"/>
<rect x="1254.5" y="-54.5" width="63" height="63" fill="#FAFAFA" stroke="#DCDCDC"/>
<rect x="1317.5" y="-54.5" width="63" height="63" fill="#F6F4F1" stroke="#DCDCDC"/>
<rect x="1380.5" y="-54.5" width="63" height="63" fill="#FAFAFA" stroke="#DCDCDC"/>
<rect x="-4.5" y="565.5" width="63" height="63" fill="#FAFAFA" stroke="#DCDCDC"/>
<rect x="58.5" y="565.5" width="63" height="63" fill="#F6F4F1" stroke="#DCDCDC"/>
<rect x="121.5" y="565.5" width="63" height="63" fill="#FAFAFA" stroke="#DCDCDC"/>
<rect x="184.5" y="565.5" width="63" height="63" fill="#F6F4F1" stroke="#DCDCDC"/>
<rect x="247.5" y="565.5" width="63" height="63" fill="#FAFAFA" stroke="#DCDCDC"/>
<rect x="310.5" y="565.5" width="63" height="63" fill="#F6F4F1" stroke="#DCDCDC"/>
<rect x="373.5" y="565.5" width="63" height="63" fill="#FAFAFA" stroke="#DCDCDC"/>
<rect x="436.5" y="565.5" width="63" height="63" fill="#F6F4F1" stroke="#DCDCDC"/>
<rect x="499.5" y="565.5" width="63" height="63" fill="#FAFAFA" stroke="#DCDCDC"/>
<rect x="562.5" y="565.5" width="63" height="63" fill="#F6F4F1" stroke="#DCDCDC"/>
<rect x="625.5" y="565.5" width="63" height="63" fill="#FAFAFA" stroke="#DCDCDC"/>
<rect x="687.5" y="565.5" width="63" height="63" fill="#F6F4F1" stroke="#DCDCDC"/>
<rect x="750.5" y="565.5" width="63" height="63" fill="#FAFAFA" stroke="#DCDCDC"/>
<rect x="813.5" y="565.5" width="63" height="63" fill="#F6F4F1" stroke="#DCDCDC"/>
<rect x="876.5" y="565.5" width="63" height="63" fill="#FAFAFA" stroke="#DCDCDC"/>
<rect x="939.5" y="565.5" width="63" height="63" fill="#F6F4F1" stroke="#DCDCDC"/>
<rect x="1002.5" y="565.5" width="63" height="63" fill="#FAFAFA" stroke="#DCDCDC"/>
<rect x="1065.5" y="565.5" width="63" height="63" fill="#F6F4F1" stroke="#DCDCDC"/>
<rect x="1128.5" y="565.5" width="63" height="63" fill="#FAFAFA" stroke="#DCDCDC"/>
<rect x="1191.5" y="565.5" width="63" height="63" fill="#F6F4F1" stroke="#DCDCDC"/>
<rect x="1254.5" y="565.5" width="63" height="63" fill="#FAFAFA" stroke="#DCDCDC"/>
<rect x="1317.5" y="565.5" width="63" height="63" fill="#F6F4F1" stroke="#DCDCDC"/>
<rect x="1380.5" y="565.5" width="63" height="63" fill="#FAFAFA" stroke="#DCDCDC"/>
<rect x="-4.5" y="69.5" width="63" height="63" fill="#FAFAFA" stroke="#DCDCDC"/>
<rect x="58.5" y="69.5" width="63" height="63" fill="#F6F4F1" stroke="#DCDCDC"/>
<rect x="121.5" y="69.5" width="63" height="63" fill="#FAFAFA" stroke="#DCDCDC"/>
<rect x="184.5" y="69.5" width="63" height="63" fill="#F6F4F1" stroke="#DCDCDC"/>
<rect x="247.5" y="69.5" width="63" height="63" fill="#FAFAFA" stroke="#DCDCDC"/>
<rect x="310.5" y="69.5" width="63" height="63" fill="#F6F4F1" stroke="#DCDCDC"/>
<rect x="373.5" y="69.5" width="63" height="63" fill="#FAFAFA" stroke="#DCDCDC"/>
<rect x="436.5" y="69.5" width="63" height="63" fill="#F6F4F1" stroke="#DCDCDC"/>
<rect x="499.5" y="69.5" width="63" height="63" fill="#FAFAFA" stroke="#DCDCDC"/>
<rect x="562.5" y="69.5" width="63" height="63" fill="#F6F4F1" stroke="#DCDCDC"/>
<rect x="625.5" y="69.5" width="63" height="63" fill="#FAFAFA" stroke="#DCDCDC"/>
<rect x="687.5" y="69.5" width="63" height="63" fill="#F6F4F1" stroke="#DCDCDC"/>
<rect x="750.5" y="69.5" width="63" height="63" fill="#FAFAFA" stroke="#DCDCDC"/>
<rect x="813.5" y="69.5" width="63" height="63" fill="#F6F4F1" stroke="#DCDCDC"/>
<rect x="876.5" y="69.5" width="63" height="63" fill="#FAFAFA" stroke="#DCDCDC"/>
<rect x="939.5" y="69.5" width="63" height="63" fill="#F6F4F1" stroke="#DCDCDC"/>
<rect x="1002.5" y="69.5" width="63" height="63" fill="#FAFAFA" stroke="#DCDCDC"/>
<rect x="1065.5" y="69.5" width="63" height="63" fill="#F6F4F1" stroke="#DCDCDC"/>
<rect x="1128.5" y="69.5" width="63" height="63" fill="#FAFAFA" stroke="#DCDCDC"/>
<rect x="1191.5" y="69.5" width="63" height="63" fill="#F6F4F1" stroke="#DCDCDC"/>
<rect x="1254.5" y="69.5" width="63" height="63" fill="#FAFAFA" stroke="#DCDCDC"/>
<rect x="1317.5" y="69.5" width="63" height="63" fill="#F6F4F1" stroke="#DCDCDC"/>
<rect x="1380.5" y="69.5" width="63" height="63" fill="#FAFAFA" stroke="#DCDCDC"/>
<rect x="-4.5" y="689.5" width="63" height="63" fill="#FAFAFA" stroke="#DCDCDC"/>
<rect x="58.5" y="689.5" width="63" height="63" fill="#F6F4F1" stroke="#DCDCDC"/>
<rect x="121.5" y="689.5" width="63" height="63" fill="#FAFAFA" stroke="#DCDCDC"/>
<rect x="184.5" y="689.5" width="63" height="63" fill="#F6F4F1" stroke="#DCDCDC"/>
<rect x="247.5" y="689.5" width="63" height="63" fill="#FAFAFA" stroke="#DCDCDC"/>
<rect x="310.5" y="689.5" width="63" height="63" fill="#F6F4F1" stroke="#DCDCDC"/>
<rect x="373.5" y="689.5" width="63" height="63" fill="#FAFAFA" stroke="#DCDCDC"/>
<rect x="436.5" y="689.5" width="63" height="63" fill="#F6F4F1" stroke="#DCDCDC"/>
<rect x="499.5" y="689.5" width="63" height="63" fill="#FAFAFA" stroke="#DCDCDC"/>
<rect x="562.5" y="689.5" width="63" height="63" fill="#F6F4F1" stroke="#DCDCDC"/>
<rect x="625.5" y="689.5" width="63" height="63" fill="#FAFAFA" stroke="#DCDCDC"/>
<rect x="687.5" y="689.5" width="63" height="63" fill="#F6F4F1" stroke="#DCDCDC"/>
<rect x="750.5" y="689.5" width="63" height="63" fill="#FAFAFA" stroke="#DCDCDC"/>
<rect x="813.5" y="689.5" width="63" height="63" fill="#F6F4F1" stroke="#DCDCDC"/>
<rect x="876.5" y="689.5" width="63" height="63" fill="#FAFAFA" stroke="#DCDCDC"/>
<rect x="939.5" y="689.5" width="63" height="63" fill="#F6F4F1" stroke="#DCDCDC"/>
<rect x="1002.5" y="689.5" width="63" height="63" fill="#FAFAFA" stroke="#DCDCDC"/>
<rect x="1065.5" y="689.5" width="63" height="63" fill="#F6F4F1" stroke="#DCDCDC"/>
<rect x="1128.5" y="689.5" width="63" height="63" fill="#FAFAFA" stroke="#DCDCDC"/>
<rect x="1191.5" y="689.5" width="63" height="63" fill="#F6F4F1" stroke="#DCDCDC"/>
<rect x="1254.5" y="689.5" width="63" height="63" fill="#FAFAFA" stroke="#DCDCDC"/>
<rect x="1317.5" y="689.5" width="63" height="63" fill="#F6F4F1" stroke="#DCDCDC"/>
<rect x="1380.5" y="689.5" width="63" height="63" fill="#FAFAFA" stroke="#DCDCDC"/>
<rect x="-4.5" y="193.5" width="63" height="63" fill="#FAFAFA" stroke="#DCDCDC"/>
<rect x="58.5" y="193.5" width="63" height="63" fill="#F6F4F1" stroke="#DCDCDC"/>
<rect x="121.5" y="193.5" width="63" height="63" fill="#FAFAFA" stroke="#DCDCDC"/>
<rect x="184.5" y="193.5" width="63" height="63" fill="#F6F4F1" stroke="#DCDCDC"/>
<rect x="247.5" y="193.5" width="63" height="63" fill="#FAFAFA" stroke="#DCDCDC"/>
<rect x="310.5" y="193.5" width="63" height="63" fill="#F6F4F1" stroke="#DCDCDC"/>
<rect x="373.5" y="193.5" width="63" height="63" fill="#FAFAFA" stroke="#DCDCDC"/>
<rect x="436.5" y="193.5" width="63" height="63" fill="#F6F4F1" stroke="#DCDCDC"/>
<rect x="499.5" y="193.5" width="63" height="63" fill="#FAFAFA" stroke="#DCDCDC"/>
<rect x="562.5" y="193.5" width="63" height="63" fill="#F6F4F1" stroke="#DCDCDC"/>
<rect x="625.5" y="193.5" width="63" height="63" fill="#FAFAFA" stroke="#DCDCDC"/>
<rect x="687.5" y="193.5" width="63" height="63" fill="#F6F4F1" stroke="#DCDCDC"/>
<rect x="750.5" y="193.5" width="63" height="63" fill="#FAFAFA" stroke="#DCDCDC"/>
<rect x="813.5" y="193.5" width="63" height="63" fill="#F6F4F1" stroke="#DCDCDC"/>
<rect x="876.5" y="193.5" width="63" height="63" fill="#FAFAFA" stroke="#DCDCDC"/>
<rect x="939.5" y="193.5" width="63" height="63" fill="#F6F4F1" stroke="#DCDCDC"/>
<rect x="1002.5" y="193.5" width="63" height="63" fill="#FAFAFA" stroke="#DCDCDC"/>
<rect x="1065.5" y="193.5" width="63" height="63" fill="#F6F4F1" stroke="#DCDCDC"/>
<rect x="1128.5" y="193.5" width="63" height="63" fill="#FAFAFA" stroke="#DCDCDC"/>
<rect x="1191.5" y="193.5" width="63" height="63" fill="#F6F4F1" stroke="#DCDCDC"/>
<rect x="1254.5" y="193.5" width="63" height="63" fill="#FAFAFA" stroke="#DCDCDC"/>
<rect x="1317.5" y="193.5" width="63" height="63" fill="#F6F4F1" stroke="#DCDCDC"/>
<rect x="1380.5" y="193.5" width="63" height="63" fill="#FAFAFA" stroke="#DCDCDC"/>
<rect x="-4.5" y="317.5" width="63" height="63" fill="#FAFAFA" stroke="#DCDCDC"/>
<rect x="58.5" y="317.5" width="63" height="63" fill="#F6F4F1" stroke="#DCDCDC"/>
<rect x="121.5" y="317.5" width="63" height="63" fill="#FAFAFA" stroke="#DCDCDC"/>
<rect x="184.5" y="317.5" width="63" height="63" fill="#F6F4F1" stroke="#DCDCDC"/>
<rect x="247.5" y="317.5" width="63" height="63" fill="#FAFAFA" stroke="#DCDCDC"/>
<rect x="310.5" y="317.5" width="63" height="63" fill="#F6F4F1" stroke="#DCDCDC"/>
<rect x="373.5" y="317.5" width="63" height="63" fill="#FAFAFA" stroke="#DCDCDC"/>
<rect x="436.5" y="317.5" width="63" height="63" fill="#F6F4F1" stroke="#DCDCDC"/>
<rect x="499.5" y="317.5" width="63" height="63" fill="#FAFAFA" stroke="#DCDCDC"/>
<rect x="562.5" y="317.5" width="63" height="63" fill="#F6F4F1" stroke="#DCDCDC"/>
<rect x="625.5" y="317.5" width="63" height="63" fill="#FAFAFA" stroke="#DCDCDC"/>
<rect x="687.5" y="317.5" width="63" height="63" fill="#F6F4F1" stroke="#DCDCDC"/>
<rect x="750.5" y="317.5" width="63" height="63" fill="#FAFAFA" stroke="#DCDCDC"/>
<rect x="813.5" y="317.5" width="63" height="63" fill="#F6F4F1" stroke="#DCDCDC"/>
<rect x="876.5" y="317.5" width="63" height="63" fill="#FAFAFA" stroke="#DCDCDC"/>
<rect x="939.5" y="317.5" width="63" height="63" fill="#F6F4F1" stroke="#DCDCDC"/>
<rect x="1002.5" y="317.5" width="63" height="63" fill="#FAFAFA" stroke="#DCDCDC"/>
<rect x="1065.5" y="317.5" width="63" height="63" fill="#F6F4F1" stroke="#DCDCDC"/>
<rect x="1128.5" y="317.5" width="63" height="63" fill="#FAFAFA" stroke="#DCDCDC"/>
<rect x="1191.5" y="317.5" width="63" height="63" fill="#F6F4F1" stroke="#DCDCDC"/>
<rect x="1254.5" y="317.5" width="63" height="63" fill="#FAFAFA" stroke="#DCDCDC"/>
<rect x="1317.5" y="317.5" width="63" height="63" fill="#F6F4F1" stroke="#DCDCDC"/>
<rect x="1380.5" y="317.5" width="63" height="63" fill="#FAFAFA" stroke="#DCDCDC"/>
</g>
<defs>
<radialGradient id="paint0_radial_689_1123" cx="0" cy="0" r="1" gradientUnits="userSpaceOnUse" gradientTransform="translate(720 380) rotate(90) scale(324 613.895)">
<stop stop-color="#D9D9D9"/>
<stop offset="1" stop-color="#737373" stop-opacity="0"/>
</radialGradient>
</defs>
</svg>
