<svg width="49" height="48" viewBox="0 0 49 48" fill="none" xmlns="http://www.w3.org/2000/svg">
<path d="M9.95142 4.06763V11.342H44.5118V7.7048V4.06763H9.95142Z" fill="#57606F"/>
<path d="M44.5118 11.1978H9.95142V43.9395H44.5118V11.1978Z" fill="#ECF0F1"/>
<path d="M40.8746 18.4719V34.8392L39.056 38.4764L37.2374 34.8392V18.4719H40.8746Z" fill="#3C3B3D"/>
<path d="M40.8674 14.8347H37.2302V18.4719H40.8674V14.8347Z" fill="#64E1DB"/>
<path d="M9.95144 28.5103H4.48846V39.4218H9.95144H27.2641V28.5103H9.95144Z" fill="#EF727A"/>
<path d="M29.9559 13.0161H28.1373V14.8347H29.9559V13.0161Z" fill="#E3835A"/>
<path d="M27.2641 13.0161H25.4455V14.8347H27.2641V13.0161Z" fill="#E3835A"/>
<path d="M25.4455 35.7847H23.627V37.6033H25.4455V35.7847Z" fill="#DA5359"/>
<path d="M25.4455 30.3289H23.627V32.1474H25.4455V30.3289Z" fill="#DA5359"/>
<path d="M24.5001 13.0161H22.6815V14.8347H24.5001V13.0161Z" fill="#E3835A"/>
<path d="M19.0516 6.7522C19.2386 6.7522 19.4213 6.80763 19.5768 6.91151C19.7323 7.01539 19.8534 7.16305 19.925 7.33579C19.9965 7.50854 20.0153 7.69862 19.9788 7.88201C19.9423 8.06539 19.8523 8.23384 19.7201 8.36606C19.5879 8.49827 19.4194 8.5883 19.236 8.62478C19.0526 8.66125 18.8625 8.64254 18.6898 8.57098C18.517 8.49943 18.3694 8.37826 18.2655 8.2228C18.1616 8.06733 18.1062 7.88455 18.1062 7.69757C18.1245 7.45292 18.23 7.22296 18.4035 7.04948C18.577 6.876 18.8069 6.77052 19.0516 6.7522Z" fill="#E3835A"/>
<path d="M16.3526 6.7522C16.5396 6.7522 16.7223 6.80763 16.8778 6.91151C17.0333 7.01539 17.1545 7.16305 17.226 7.33579C17.2976 7.50854 17.3163 7.69862 17.2798 7.88201C17.2433 8.06539 17.1533 8.23384 17.0211 8.36606C16.8889 8.49827 16.7204 8.5883 16.537 8.62478C16.3536 8.66125 16.1635 8.64254 15.9908 8.57098C15.8181 8.49943 15.6704 8.37826 15.5665 8.2228C15.4627 8.06733 15.4072 7.88455 15.4072 7.69757C15.411 7.448 15.5118 7.20971 15.6882 7.03322C15.8647 6.85672 16.103 6.75592 16.3526 6.7522Z" fill="#80AF52"/>
<path d="M13.5886 6.7522C13.7756 6.7522 13.9584 6.80763 14.1138 6.91151C14.2693 7.01539 14.3905 7.16305 14.462 7.33579C14.5336 7.50854 14.5523 7.69862 14.5159 7.88201C14.4794 8.06539 14.3893 8.23384 14.2571 8.36606C14.1249 8.49827 13.9564 8.5883 13.773 8.62478C13.5897 8.66125 13.3996 8.64254 13.2269 8.57098C13.0541 8.49943 12.9064 8.37826 12.8026 8.2228C12.6987 8.06733 12.6432 7.88455 12.6432 7.69757C12.6601 7.4524 12.7651 7.2216 12.9389 7.04783C13.1127 6.87405 13.3434 6.76905 13.5886 6.7522Z" fill="#FFD24D"/>
<path d="M8.13286 35.7847H6.31427V37.6033H8.13286V35.7847Z" fill="#DA5359"/>
<path d="M8.13286 30.3289H6.31427V32.1474H8.13286V30.3289Z" fill="#DA5359"/>
<path d="M7.25964 11.1904C7.51037 11.1904 7.75085 11.29 7.92814 11.4673C8.10543 11.6446 8.20502 11.8851 8.20502 12.1358C8.20502 12.3865 8.10543 12.627 7.92814 12.8043C7.75085 12.9816 7.51037 13.0812 7.25964 13.0812C7.00892 13.0812 6.76848 12.9816 6.59119 12.8043C6.4139 12.627 6.31427 12.3865 6.31427 12.1358C6.31427 11.8851 6.4139 11.6446 6.59119 11.4673C6.76848 11.29 7.00892 11.1904 7.25964 11.1904Z" fill="#313A52"/>
<path d="M7.25964 13.9544C7.51037 13.9544 7.75085 14.054 7.92814 14.2313C8.10543 14.4086 8.20502 14.6491 8.20502 14.8998C8.20502 15.1505 8.10543 15.391 7.92814 15.5683C7.75085 15.7456 7.51037 15.8452 7.25964 15.8452C7.00309 15.8252 6.76344 15.7095 6.58828 15.521C6.41313 15.3325 6.31531 15.085 6.31427 14.8276C6.31796 14.7079 6.34551 14.5901 6.39523 14.4811C6.44495 14.3721 6.51587 14.2741 6.60388 14.1928C6.69188 14.1115 6.7952 14.0486 6.9078 14.0076C7.0204 13.9667 7.13998 13.9486 7.25964 13.9544Z" fill="#313A52"/>
<path d="M7.25961 16.6463C7.44862 16.6448 7.63381 16.6997 7.79156 16.8038C7.94932 16.9079 8.07253 17.0566 8.14552 17.231C8.21851 17.4053 8.23799 17.5975 8.20146 17.7829C8.16494 17.9684 8.07405 18.1388 7.9404 18.2724C7.80674 18.4061 7.63636 18.4969 7.45091 18.5335C7.26545 18.57 7.07331 18.5505 6.89896 18.4775C6.7246 18.4045 6.57591 18.2813 6.47179 18.1236C6.36767 17.9658 6.31281 17.7807 6.31424 17.5917C6.31975 17.3427 6.42113 17.1054 6.59724 16.9293C6.77335 16.7532 7.01061 16.6518 7.25961 16.6463Z" fill="#313A52"/>
<path d="M7.25964 19.4102C7.49705 19.431 7.71806 19.5399 7.87907 19.7156C8.04009 19.8913 8.12944 20.1209 8.12944 20.3592C8.12944 20.5975 8.04009 20.8272 7.87907 21.0029C7.71806 21.1785 7.49705 21.2875 7.25964 21.3082C7.00247 21.2866 6.76276 21.1693 6.58776 20.9796C6.41275 20.7899 6.31516 20.5415 6.31427 20.2835C6.31796 20.1637 6.34551 20.0459 6.39523 19.9369C6.44495 19.8279 6.51587 19.7299 6.60388 19.6486C6.69188 19.5673 6.7952 19.5044 6.9078 19.4634C7.0204 19.4225 7.13998 19.4044 7.25964 19.4102Z" fill="#313A52"/>
<path d="M7.25964 22.1091C7.44662 22.1091 7.62944 22.1646 7.7849 22.2685C7.94037 22.3723 8.06154 22.52 8.13309 22.6927C8.20464 22.8655 8.22335 23.0556 8.18687 23.2389C8.15039 23.4223 8.06035 23.5908 7.92814 23.723C7.79593 23.8552 7.6275 23.9452 7.44411 23.9817C7.26073 24.0182 7.07063 23.9995 6.89789 23.9279C6.72514 23.8564 6.57751 23.7352 6.47363 23.5797C6.36975 23.4243 6.31427 23.2415 6.31427 23.0545C6.318 22.8049 6.4188 22.5666 6.59529 22.3901C6.77178 22.2137 7.01008 22.1129 7.25964 22.1091Z" fill="#313A52"/>
<path d="M7.25964 24.873C7.51037 24.873 7.75085 24.9726 7.92814 25.1499C8.10543 25.3272 8.20502 25.5677 8.20502 25.8184C8.20502 26.0691 8.10543 26.3096 7.92814 26.4869C7.75085 26.6642 7.51037 26.7638 7.25964 26.7638C7.0037 26.7422 6.76501 26.626 6.59018 26.4378C6.41535 26.2497 6.31696 26.0031 6.31427 25.7462C6.31698 25.6262 6.34386 25.5079 6.39325 25.3984C6.44263 25.289 6.51355 25.1906 6.60176 25.1091C6.68998 25.0276 6.79367 24.9647 6.9067 24.9242C7.01973 24.8836 7.13975 24.8662 7.25964 24.873Z" fill="#313A52"/>
<path d="M23.627 17.5914H14.534C14.2833 17.5914 14.0428 17.4918 13.8655 17.3145C13.6882 17.1373 13.5886 16.8968 13.5886 16.6461C13.5886 16.3953 13.6882 16.1549 13.8655 15.9776C14.0428 15.8003 14.2833 15.7007 14.534 15.7007H23.627C23.8765 15.7044 24.1148 15.8052 24.2913 15.9817C24.4678 16.1582 24.5686 16.3965 24.5723 16.6461C24.5459 16.8877 24.4377 17.1131 24.2659 17.285C24.094 17.4569 23.8686 17.565 23.627 17.5914Z" fill="#65B2FE"/>
<path d="M28.1373 20.2833H16.3526C16.1019 20.2833 15.8614 20.1837 15.6841 20.0064C15.5068 19.8291 15.4072 19.5887 15.4072 19.338C15.4072 19.0872 15.5068 18.8468 15.6841 18.6695C15.8614 18.4922 16.1019 18.3926 16.3526 18.3926H28.1373C28.3876 18.3963 28.6266 18.4968 28.8043 18.6731C28.9819 18.8494 29.0843 19.0877 29.0899 19.338C29.094 19.4638 29.0721 19.5892 29.0255 19.7062C28.979 19.8232 28.9089 19.9294 28.8195 20.0181C28.7301 20.1068 28.6234 20.1761 28.506 20.2218C28.3886 20.2674 28.2632 20.2884 28.1373 20.2833Z" fill="#65B2FE"/>
<path d="M26.3187 23.0545H14.534C14.2966 23.0337 14.0756 22.9248 13.9146 22.7491C13.7535 22.5734 13.6642 22.3438 13.6642 22.1055C13.6642 21.8672 13.7535 21.6375 13.9146 21.4618C14.0756 21.2862 14.2966 21.1772 14.534 21.1565H26.3909C26.6418 21.162 26.8809 21.2641 27.0584 21.4416C27.2358 21.6191 27.338 21.8582 27.3435 22.1091C27.3087 22.361 27.1876 22.5931 27.0006 22.7655C26.8137 22.938 26.5727 23.0401 26.3187 23.0545Z" fill="#65B2FE"/>
<path d="M29.9631 25.7462H19.9897C19.739 25.7462 19.4986 25.6466 19.3213 25.4693C19.144 25.292 19.0444 25.0516 19.0444 24.8008C19.0444 24.5501 19.144 24.3097 19.3213 24.1324C19.4986 23.9551 19.739 23.8555 19.9897 23.8555H30.0353C30.2848 23.8592 30.5232 23.96 30.6997 24.1365C30.8762 24.313 30.977 24.5513 30.9807 24.8008C30.9591 25.0568 30.8429 25.2955 30.6547 25.4703C30.4666 25.6452 30.22 25.7435 29.9631 25.7462Z" fill="#65B2FE"/>
<path d="M11.77 36.6651C11.6466 36.6648 11.5245 36.6391 11.4115 36.5894C11.2985 36.5397 11.197 36.4672 11.1133 36.3764L9.29473 34.5578C9.1211 34.3833 9.02362 34.1472 9.02362 33.9011C9.02362 33.655 9.1211 33.4188 9.29473 33.2444L11.1133 31.4258C11.1972 31.3295 11.2999 31.2515 11.4151 31.1966C11.5304 31.1417 11.6557 31.1112 11.7833 31.1068C11.9109 31.1024 12.038 31.1242 12.1568 31.1711C12.2756 31.2179 12.3834 31.2886 12.4737 31.3789C12.5639 31.4691 12.6347 31.577 12.6815 31.6958C12.7283 31.8145 12.7502 31.9417 12.7458 32.0692C12.7414 32.1968 12.7108 32.3221 12.6559 32.4374C12.601 32.5526 12.523 32.6554 12.4268 32.7392L11.2577 33.9011L12.4268 35.063C12.6004 35.2374 12.6979 35.4735 12.6979 35.7197C12.6979 35.9658 12.6004 36.2019 12.4268 36.3764C12.3426 36.4665 12.241 36.5386 12.1281 36.5882C12.0152 36.6378 11.8933 36.664 11.77 36.6651Z" fill="#ECF0F1"/>
<path d="M19.0516 36.6651C18.9283 36.664 18.8065 36.6378 18.6936 36.5882C18.5807 36.5386 18.4791 36.4665 18.3949 36.3764C18.2213 36.2019 18.1238 35.9658 18.1238 35.7197C18.1238 35.4735 18.2213 35.2374 18.3949 35.063L19.564 33.9011L18.3949 32.7392C18.2986 32.6554 18.2206 32.5526 18.1657 32.4374C18.1108 32.3221 18.0802 32.1968 18.0758 32.0692C18.0714 31.9417 18.0933 31.8145 18.1401 31.6958C18.1869 31.577 18.2577 31.4691 18.3479 31.3789C18.4382 31.2886 18.5461 31.2179 18.6648 31.1711C18.7836 31.1242 18.9107 31.1024 19.0383 31.1068C19.1659 31.1112 19.2912 31.1417 19.4065 31.1966C19.5217 31.2515 19.6244 31.3295 19.7083 31.4258L21.5269 33.2444C21.7005 33.4188 21.798 33.655 21.798 33.9011C21.798 34.1472 21.7005 34.3833 21.5269 34.5578L19.7083 36.3764C19.6246 36.4672 19.5231 36.5397 19.4101 36.5894C19.2971 36.6391 19.175 36.6648 19.0516 36.6651Z" fill="#ECF0F1"/>
<path d="M14.5339 37.6033C14.4322 37.6141 14.33 37.5886 14.2453 37.5312C14.1287 37.4962 14.0204 37.4379 13.9271 37.3596C13.8338 37.2814 13.7575 37.1849 13.7027 37.0761C13.648 36.9674 13.6161 36.8486 13.6089 36.7271C13.6017 36.6055 13.6193 36.4838 13.6608 36.3693L15.4793 30.9063C15.5703 30.6925 15.7384 30.5209 15.9503 30.4256C16.1622 30.3302 16.4022 30.3183 16.6225 30.392C16.8428 30.4657 17.0272 30.6198 17.139 30.8235C17.2508 31.0271 17.2818 31.2654 17.2257 31.4909L15.4432 36.9466C15.3869 37.142 15.2668 37.3128 15.1019 37.4319C14.9371 37.5509 14.7371 37.6113 14.5339 37.6033Z" fill="#313A52"/>
</svg>
