<svg width="49" height="46" viewBox="0 0 49 46" fill="none" xmlns="http://www.w3.org/2000/svg">
<path fill-rule="evenodd" clip-rule="evenodd" d="M23.0862 16.7121V13.6444C23.0862 10.5104 20.5608 7.96597 17.4502 7.96597C14.3396 7.96597 11.8142 10.5104 11.8142 13.6444V20.6157H9.40991V13.6444C9.40991 9.17322 13.0129 5.54309 17.4507 5.54309C21.8885 5.54309 25.4914 9.17322 25.4914 13.6444V16.7121H24.9713V17.2263H25.4909V17.8909H23.0866V17.2263H23.6062V16.7121H23.0862Z" fill="#585E64"/>
<path fill-rule="evenodd" clip-rule="evenodd" d="M17.4502 17.2218C23.8141 17.2218 28.9808 22.4275 28.9808 28.8397C28.9808 35.2519 23.8141 40.4569 17.4502 40.4569C11.0862 40.4569 5.91943 35.2513 5.91943 28.8397C5.91943 22.4281 11.0862 17.2218 17.4502 17.2218Z" fill="#475D9C"/>
<path fill-rule="evenodd" clip-rule="evenodd" d="M17.4501 20.1453C22.2126 20.1453 26.0791 24.0409 26.0791 28.8394C26.0791 33.6378 22.2126 37.5334 17.4501 37.5334C12.6877 37.5334 8.82104 33.6377 8.82104 28.8397C8.82104 24.0416 12.6876 20.1456 17.4501 20.1456V20.1453Z" fill="#35608B"/>
<mask id="mask0_689_3193" style="mask-type:luminance" maskUnits="userSpaceOnUse" x="8" y="20" width="19" height="18">
<path d="M17.4501 20.1453C22.2126 20.1453 26.0791 24.0409 26.0791 28.8394C26.0791 33.6378 22.2126 37.5334 17.4501 37.5334C12.6877 37.5334 8.82104 33.6377 8.82104 28.8397C8.82104 24.0416 12.6876 20.1456 17.4501 20.1456V20.1453Z" fill="white"/>
</mask>
<g mask="url(#mask0_689_3193)">
<path fill-rule="evenodd" clip-rule="evenodd" d="M16.3534 19.4365C21.1357 19.4365 25.0184 23.3484 25.0184 28.1668C25.0184 32.9851 21.1357 36.897 16.3534 36.897C11.5711 36.897 7.68848 32.9851 7.68848 28.1669C7.68848 23.3486 11.5711 19.4366 16.3534 19.4366V19.4365Z" fill="#344574"/>
</g>
<path fill-rule="evenodd" clip-rule="evenodd" d="M15.9014 27.7795L16.0387 29.3794L14.9177 32.0112C14.7258 32.4616 14.6394 32.9504 14.6651 33.4398C14.6909 33.9292 14.828 34.4061 15.0659 34.8336C15.5488 35.6998 15.6405 36.7749 15.2218 37.7575C14.5076 39.4345 12.5765 40.2109 10.9123 39.4917C9.24817 38.7726 8.47726 36.8265 9.19104 35.1497C9.60963 34.167 10.4462 33.4934 11.4019 33.2489C11.8733 33.1282 12.3109 32.8998 12.6806 32.5815C13.0504 32.2631 13.3425 31.8633 13.5343 31.413C14.2492 29.7359 15.2099 27.4806 15.2099 27.4806L17.1184 23.0001C17.2092 23.0394 17.2915 23.0963 17.3605 23.1675C17.4295 23.2388 17.4839 23.3231 17.5206 23.4156C17.5573 23.508 17.5755 23.6069 17.5743 23.7065C17.573 23.806 17.5523 23.9044 17.5133 23.9959L17.2608 24.5887L18.2936 25.0353C18.307 25.0411 18.3192 25.0495 18.3294 25.0601C18.3396 25.0706 18.3477 25.0831 18.3531 25.0968C18.3585 25.1105 18.3612 25.1251 18.361 25.1398C18.3608 25.1546 18.3577 25.1691 18.352 25.1826C18.3102 25.2807 18.2478 25.4273 18.206 25.5254C18.2002 25.5389 18.1919 25.5512 18.1814 25.5615C18.1709 25.5718 18.1585 25.5799 18.145 25.5853C18.1314 25.5908 18.1169 25.5935 18.1022 25.5933C18.0876 25.5931 18.0732 25.59 18.0597 25.5842L17.0269 25.1377L16.8558 25.5394L17.0613 25.6283C17.0884 25.64 17.1098 25.6621 17.1208 25.6897C17.1318 25.7173 17.1314 25.7482 17.1198 25.7756C17.0781 25.8736 17.0156 26.0202 16.9738 26.1182C16.9622 26.1456 16.9402 26.1671 16.9128 26.1782C16.8854 26.1892 16.8548 26.1889 16.8276 26.1771L16.6221 26.0881L16.4507 26.4899L16.9645 26.712C16.9916 26.7238 17.013 26.7459 17.024 26.7735C17.0294 26.7872 17.0321 26.8018 17.0319 26.8166C17.0317 26.8313 17.0286 26.8459 17.0228 26.8594L16.8769 27.2021C16.8652 27.2294 16.8433 27.251 16.8158 27.262C16.8022 27.2675 16.7877 27.2702 16.7731 27.27C16.7585 27.2699 16.7441 27.2668 16.7306 27.261L16.2169 27.0387L15.9014 27.7794V27.7795ZM12.8535 34.9346C12.0213 34.5748 11.0555 34.9633 10.6987 35.8017C10.342 36.6401 10.7273 37.6133 11.5594 37.9727C12.3916 38.3321 13.3575 37.9439 13.7141 37.1056C14.0707 36.2673 13.6857 35.294 12.8535 34.9346Z" fill="#FBC726"/>
<mask id="mask1_689_3193" style="mask-type:luminance" maskUnits="userSpaceOnUse" x="8" y="23" width="11" height="17">
<path d="M15.9014 27.7795L16.0387 29.3794L14.9177 32.0112C14.7258 32.4616 14.6394 32.9504 14.6651 33.4398C14.6909 33.9292 14.828 34.4061 15.0659 34.8336C15.5488 35.6998 15.6405 36.7749 15.2218 37.7575C14.5076 39.4345 12.5765 40.2109 10.9123 39.4917C9.24817 38.7726 8.47726 36.8265 9.19104 35.1497C9.60963 34.167 10.4462 33.4934 11.4019 33.2489C11.8733 33.1282 12.3109 32.8998 12.6806 32.5815C13.0504 32.2631 13.3425 31.8633 13.5343 31.413C14.2492 29.7359 15.2099 27.4806 15.2099 27.4806L17.1184 23.0001C17.2092 23.0394 17.2915 23.0963 17.3605 23.1675C17.4295 23.2388 17.4839 23.3231 17.5206 23.4156C17.5573 23.508 17.5755 23.6069 17.5743 23.7065C17.573 23.806 17.5523 23.9044 17.5133 23.9959L17.2608 24.5887L18.2936 25.0353C18.307 25.0411 18.3192 25.0495 18.3294 25.0601C18.3396 25.0706 18.3477 25.0831 18.3531 25.0968C18.3585 25.1105 18.3612 25.1251 18.361 25.1398C18.3608 25.1546 18.3577 25.1691 18.352 25.1826C18.3102 25.2807 18.2478 25.4273 18.206 25.5254C18.2002 25.5389 18.1919 25.5512 18.1814 25.5615C18.1709 25.5718 18.1585 25.5799 18.145 25.5853C18.1314 25.5908 18.1169 25.5935 18.1022 25.5933C18.0876 25.5931 18.0732 25.59 18.0597 25.5842L17.0269 25.1377L16.8558 25.5394L17.0613 25.6283C17.0884 25.64 17.1098 25.6621 17.1208 25.6897C17.1318 25.7173 17.1314 25.7482 17.1198 25.7756C17.0781 25.8736 17.0156 26.0202 16.9738 26.1182C16.9622 26.1456 16.9402 26.1671 16.9128 26.1782C16.8854 26.1892 16.8548 26.1889 16.8276 26.1771L16.6221 26.0881L16.4507 26.4899L16.9645 26.712C16.9916 26.7238 17.013 26.7459 17.024 26.7735C17.0294 26.7872 17.0321 26.8018 17.0319 26.8166C17.0317 26.8313 17.0286 26.8459 17.0228 26.8594L16.8769 27.2021C16.8652 27.2294 16.8433 27.251 16.8158 27.262C16.8022 27.2675 16.7877 27.2702 16.7731 27.27C16.7585 27.2699 16.7441 27.2668 16.7306 27.261L16.2169 27.0387L15.9014 27.7794V27.7795ZM12.8535 34.9346C12.0213 34.5748 11.0555 34.9633 10.6987 35.8017C10.342 36.6401 10.7273 37.6133 11.5594 37.9727C12.3916 38.3321 13.3575 37.9439 13.7141 37.1056C14.0707 36.2673 13.6857 35.294 12.8535 34.9346Z" fill="white"/>
</mask>
<g mask="url(#mask1_689_3193)">
<path fill-rule="evenodd" clip-rule="evenodd" d="M17.0268 25.1376L17.2606 24.589L18.2934 25.0356C18.3068 25.0414 18.319 25.0498 18.3292 25.0603C18.3394 25.0709 18.3475 25.0834 18.3529 25.097C18.3583 25.1107 18.361 25.1253 18.3608 25.1401C18.3606 25.1548 18.3575 25.1693 18.3518 25.1829L18.2058 25.5256C18.2 25.5392 18.1917 25.5515 18.1812 25.5617C18.1707 25.572 18.1583 25.5801 18.1448 25.5856C18.1312 25.5911 18.1167 25.5938 18.102 25.5936C18.0874 25.5934 18.073 25.5903 18.0596 25.5844L17.0268 25.138V25.1376ZM16.6218 26.0882L16.8557 25.5395L17.0612 25.6284C17.0883 25.6401 17.1097 25.6622 17.1207 25.6898C17.1317 25.7173 17.1314 25.7482 17.1198 25.7755L16.9738 26.1182C16.9622 26.1455 16.9403 26.1671 16.9128 26.1781C16.8854 26.1892 16.8548 26.1888 16.8276 26.1771L16.6221 26.0881L16.6218 26.0882ZM16.2169 27.0385L16.4508 26.4898L16.9645 26.712C16.9916 26.7237 17.013 26.7458 17.024 26.7735C17.0294 26.7872 17.0321 26.8018 17.0319 26.8165C17.0317 26.8313 17.0286 26.8458 17.0228 26.8594L16.8769 27.202C16.8653 27.2294 16.8433 27.2509 16.8158 27.262C16.8022 27.2674 16.7877 27.2702 16.7731 27.27C16.7585 27.2698 16.7441 27.2667 16.7306 27.2609L16.2169 27.0387V27.0385ZM12.8535 34.9342L15.9014 27.7792L16.0387 29.3791L14.9177 32.0108C14.7258 32.4613 14.6394 32.9501 14.6651 33.4396C14.6908 33.9291 14.828 34.406 15.066 34.8335C15.5489 35.6998 15.6405 36.7748 15.2218 37.7574C14.5076 39.4344 12.5765 40.2108 10.9124 39.4917L11.5597 37.9726C12.3919 38.3325 13.3577 37.9439 13.7143 37.1056C14.071 36.2673 13.6859 35.294 12.8537 34.9345L12.8535 34.9342Z" fill="#E7B622"/>
</g>
<path fill-rule="evenodd" clip-rule="evenodd" d="M39.5117 25.0669C39.8895 25.0669 40.1958 25.3298 40.1958 25.6542V37.766H17.7664V25.6542C17.7664 25.3298 18.0726 25.0669 18.4504 25.0669H39.5117Z" fill="#093658"/>
<path fill-rule="evenodd" clip-rule="evenodd" d="M32.6887 38.4263H43.0805V39.1826C43.0805 39.3499 43.0478 39.5157 42.9843 39.6703C42.9207 39.8249 42.8275 39.9654 42.7101 40.0837C42.5926 40.202 42.4531 40.2959 42.2997 40.3599C42.1462 40.424 41.9817 40.4569 41.8156 40.4569H16.1457C15.8105 40.4569 15.489 40.3229 15.2518 40.0842C15.1344 39.9659 15.0412 39.8254 14.9776 39.6708C14.9141 39.5162 14.8813 39.3505 14.8813 39.1831V38.4268H25.2724V38.698C25.2724 38.8192 25.3075 38.9355 25.3698 39.0212C25.4322 39.1069 25.5169 39.1552 25.6051 39.1552H32.3562C32.4445 39.1552 32.5291 39.1069 32.5914 39.0212C32.6538 38.9355 32.6889 38.8192 32.6889 38.698V38.4268L32.6887 38.4263Z" fill="#5870B5"/>
<path fill-rule="evenodd" clip-rule="evenodd" d="M37.3121 23.2517V35.3306H20.6492V23.2517H37.3121Z" fill="#EBEBEB"/>
<mask id="mask2_689_3193" style="mask-type:luminance" maskUnits="userSpaceOnUse" x="20" y="23" width="18" height="13">
<path d="M37.3122 23.2517V35.3307H20.6494V23.2517H37.3122Z" fill="white"/>
</mask>
<g mask="url(#mask2_689_3193)">
<path fill-rule="evenodd" clip-rule="evenodd" d="M37.3124 22.4504V35.3306H36.9355V22.4504H37.3124Z" fill="#DFDFDF"/>
<path fill-rule="evenodd" clip-rule="evenodd" d="M32.1043 23.4197V23.9018H20.832V23.4197H32.1043Z" fill="white"/>
<path fill-rule="evenodd" clip-rule="evenodd" d="M21.2089 23.4197V28.0838H20.832V23.4197H21.2089Z" fill="white"/>
<path fill-rule="evenodd" clip-rule="evenodd" d="M38.3348 35.1483V35.3306H20.6494V35.1483H38.3348Z" fill="#DFDFDF"/>
</g>
<path fill-rule="evenodd" clip-rule="evenodd" d="M37.3121 21.2832V23.2517H20.6492V21.2832H37.3121Z" fill="#5870B5"/>
<mask id="mask3_689_3193" style="mask-type:luminance" maskUnits="userSpaceOnUse" x="20" y="21" width="18" height="3">
<path d="M37.3122 21.2832V23.2517H20.6494V21.2832H37.3122Z" fill="white"/>
</mask>
<g mask="url(#mask3_689_3193)">
<path fill-rule="evenodd" clip-rule="evenodd" d="M37.3124 21.2596V23.2518H36.9277V21.2596H37.3124Z" fill="#485C97"/>
<path fill-rule="evenodd" clip-rule="evenodd" d="M20.6494 23.2752V21.2832H21.0341V23.2752H20.6494Z" fill="#7489C7"/>
<path fill-rule="evenodd" clip-rule="evenodd" d="M37.3124 23.09V23.2518H28.981V23.09H37.3124Z" fill="#485C97"/>
<path fill-rule="evenodd" clip-rule="evenodd" d="M20.6494 21.4449V21.2832H28.9809V21.4449H20.6494Z" fill="#7489C7"/>
</g>
<path fill-rule="evenodd" clip-rule="evenodd" d="M21.4576 21.9246C21.5549 21.9246 21.6482 21.9635 21.717 22.0328C21.7858 22.1021 21.8244 22.1961 21.8244 22.2941C21.8244 22.3921 21.7858 22.4861 21.717 22.5554C21.6482 22.6248 21.5549 22.6637 21.4576 22.6637C21.3603 22.6637 21.267 22.6248 21.1983 22.5554C21.1295 22.4861 21.0908 22.3921 21.0908 22.2941C21.0908 22.1961 21.1295 22.1021 21.1983 22.0328C21.267 21.9635 21.3603 21.9246 21.4576 21.9246Z" fill="white"/>
<path fill-rule="evenodd" clip-rule="evenodd" d="M22.6661 21.9246C22.7387 21.9246 22.8096 21.9462 22.8699 21.9868C22.9302 22.0275 22.9772 22.0852 23.005 22.1527C23.0328 22.2202 23.04 22.2945 23.0259 22.3662C23.0117 22.4379 22.9768 22.5038 22.9255 22.5554C22.8742 22.6071 22.8088 22.6423 22.7377 22.6566C22.6665 22.6709 22.5928 22.6635 22.5257 22.6356C22.4587 22.6076 22.4014 22.5602 22.3611 22.4994C22.3208 22.4387 22.2993 22.3672 22.2993 22.2941C22.2993 22.1961 22.338 22.1021 22.4068 22.0328C22.4756 21.9635 22.5688 21.9246 22.6661 21.9246Z" fill="white"/>
<path fill-rule="evenodd" clip-rule="evenodd" d="M23.8749 21.9246C23.9474 21.9246 24.0183 21.9462 24.0786 21.9868C24.139 22.0275 24.186 22.0852 24.2137 22.1527C24.2415 22.2202 24.2488 22.2945 24.2346 22.3662C24.2205 22.4379 24.1855 22.5038 24.1342 22.5554C24.0829 22.6071 24.0176 22.6423 23.9464 22.6566C23.8753 22.6709 23.8015 22.6635 23.7345 22.6356C23.6675 22.6076 23.6102 22.5602 23.5699 22.4994C23.5296 22.4387 23.5081 22.3672 23.5081 22.2941C23.5081 22.1961 23.5467 22.1021 23.6155 22.0328C23.6843 21.9635 23.7776 21.9246 23.8749 21.9246Z" fill="white"/>
<path fill-rule="evenodd" clip-rule="evenodd" d="M32.5141 22.109C32.5627 22.109 32.6093 22.1285 32.6437 22.1632C32.6781 22.1978 32.6974 22.2448 32.6975 22.2938C32.6974 22.3428 32.6781 22.3898 32.6437 22.4244C32.6093 22.4591 32.5627 22.4785 32.5141 22.4786H25.4473C25.3987 22.4785 25.3521 22.4591 25.3177 22.4244C25.2833 22.3898 25.2639 22.3428 25.2639 22.2938C25.2639 22.2448 25.2833 22.1978 25.3177 22.1632C25.3521 22.1285 25.3987 22.109 25.4473 22.109H32.5141Z" fill="white"/>
<path fill-rule="evenodd" clip-rule="evenodd" d="M34.3713 27.0255V28.3315H23.5613V27.0255H34.3713Z" fill="#BBBBBB"/>
<path fill-rule="evenodd" clip-rule="evenodd" d="M24.3271 27.2662C24.408 27.2662 24.4872 27.2904 24.5545 27.3357C24.6218 27.381 24.6743 27.4454 24.7053 27.5207C24.7363 27.596 24.7444 27.6789 24.7286 27.7589C24.7128 27.8389 24.6738 27.9124 24.6166 27.9701C24.5594 28.0277 24.4865 28.067 24.4071 28.0829C24.3277 28.0989 24.2454 28.0907 24.1706 28.0595C24.0958 28.0283 24.0319 27.9754 23.9869 27.9076C23.942 27.8398 23.918 27.7601 23.918 27.6786C23.918 27.5692 23.9611 27.4644 24.0379 27.3871C24.1146 27.3098 24.2186 27.2663 24.3271 27.2662Z" fill="#848484"/>
<path fill-rule="evenodd" clip-rule="evenodd" d="M25.3425 27.2662C25.4234 27.2662 25.5026 27.2904 25.5699 27.3357C25.6372 27.381 25.6897 27.4454 25.7206 27.5207C25.7516 27.596 25.7598 27.6789 25.744 27.7589C25.7282 27.8389 25.6892 27.9124 25.632 27.9701C25.5748 28.0277 25.5018 28.067 25.4225 28.0829C25.3431 28.0989 25.2608 28.0907 25.186 28.0595C25.1112 28.0283 25.0473 27.9754 25.0023 27.9076C24.9574 27.8398 24.9333 27.7601 24.9333 27.6786C24.9334 27.5692 24.9765 27.4644 25.0532 27.3871C25.1299 27.3098 25.234 27.2663 25.3425 27.2662Z" fill="#848484"/>
<path fill-rule="evenodd" clip-rule="evenodd" d="M26.358 27.2662C26.4389 27.2662 26.518 27.2904 26.5853 27.3357C26.6526 27.381 26.7051 27.4454 26.736 27.5207C26.767 27.5961 26.7751 27.679 26.7593 27.759C26.7436 27.8389 26.7046 27.9124 26.6474 27.9701C26.5902 28.0277 26.5172 28.067 26.4379 28.0829C26.3585 28.0989 26.2762 28.0907 26.2014 28.0595C26.1266 28.0283 26.0627 27.9755 26.0177 27.9077C25.9728 27.8399 25.9488 27.7602 25.9487 27.6787C25.9487 27.5693 25.9918 27.4644 26.0686 27.3871C26.1453 27.3097 26.2494 27.2663 26.358 27.2662Z" fill="#848484"/>
<path fill-rule="evenodd" clip-rule="evenodd" d="M27.3735 27.2662C27.4544 27.2662 27.5336 27.2904 27.6009 27.3357C27.6682 27.381 27.7207 27.4454 27.7516 27.5207C27.7826 27.596 27.7908 27.6789 27.775 27.7589C27.7592 27.8389 27.7202 27.9124 27.663 27.9701C27.6058 28.0277 27.5329 28.067 27.4535 28.0829C27.3741 28.0989 27.2918 28.0907 27.217 28.0595C27.1422 28.0283 27.0783 27.9754 27.0333 27.9076C26.9884 27.8398 26.9644 27.7601 26.9644 27.6786C26.9644 27.5692 27.0075 27.4644 27.0842 27.3871C27.1609 27.3098 27.265 27.2663 27.3735 27.2662Z" fill="#848484"/>
<path fill-rule="evenodd" clip-rule="evenodd" d="M28.3889 27.2662C28.4698 27.2662 28.5489 27.2904 28.6163 27.3357C28.6836 27.381 28.736 27.4454 28.767 27.5207C28.798 27.596 28.8061 27.6789 28.7904 27.7589C28.7746 27.8389 28.7356 27.9124 28.6784 27.9701C28.6212 28.0277 28.5482 28.067 28.4688 28.0829C28.3895 28.0989 28.3072 28.0907 28.2324 28.0595C28.1576 28.0283 28.0937 27.9754 28.0487 27.9076C28.0037 27.8398 27.9797 27.7601 27.9797 27.6786C27.9798 27.5692 28.0229 27.4644 28.0996 27.3871C28.1763 27.3098 28.2804 27.2663 28.3889 27.2662Z" fill="#848484"/>
<path fill-rule="evenodd" clip-rule="evenodd" d="M29.4043 27.2662C29.4852 27.2662 29.5643 27.2904 29.6316 27.3357C29.699 27.381 29.7514 27.4454 29.7824 27.5207C29.8134 27.596 29.8215 27.6789 29.8057 27.7589C29.79 27.8389 29.751 27.9124 29.6938 27.9701C29.6365 28.0277 29.5636 28.067 29.4842 28.0829C29.4048 28.0989 29.3226 28.0907 29.2478 28.0595C29.173 28.0283 29.1091 27.9754 29.0641 27.9076C29.0191 27.8398 28.9951 27.7601 28.9951 27.6786C28.9951 27.5692 29.0383 27.4644 29.115 27.3871C29.1917 27.3098 29.2957 27.2663 29.4043 27.2662Z" fill="#848484"/>
<path fill-rule="evenodd" clip-rule="evenodd" d="M30.4199 27.2662C30.5008 27.2662 30.58 27.2904 30.6473 27.3357C30.7146 27.381 30.767 27.4454 30.798 27.5207C30.829 27.596 30.8371 27.6789 30.8214 27.7589C30.8056 27.8389 30.7666 27.9124 30.7094 27.9701C30.6522 28.0277 30.5792 28.067 30.4999 28.0829C30.4205 28.0989 30.3382 28.0907 30.2634 28.0595C30.1886 28.0283 30.1247 27.9754 30.0797 27.9076C30.0347 27.8398 30.0107 27.7601 30.0107 27.6786C30.0108 27.5692 30.0539 27.4644 30.1306 27.3871C30.2073 27.3098 30.3114 27.2663 30.4199 27.2662Z" fill="#848484"/>
<path fill-rule="evenodd" clip-rule="evenodd" d="M31.4353 27.2662C31.5162 27.2662 31.5953 27.2904 31.6626 27.3357C31.73 27.381 31.7824 27.4454 31.8134 27.5207C31.8444 27.596 31.8525 27.6789 31.8367 27.7589C31.821 27.8389 31.782 27.9124 31.7248 27.9701C31.6675 28.0277 31.5946 28.067 31.5152 28.0829C31.4358 28.0989 31.3536 28.0907 31.2788 28.0595C31.204 28.0283 31.1401 27.9754 31.0951 27.9076C31.0501 27.8398 31.0261 27.7601 31.0261 27.6786C31.0262 27.5692 31.0693 27.4644 31.146 27.3871C31.2227 27.3098 31.3267 27.2663 31.4353 27.2662Z" fill="#848484"/>
<path fill-rule="evenodd" clip-rule="evenodd" d="M34.4001 29.3584V30.6644H23.5901V29.3584H34.4001Z" fill="#BBBBBB"/>
<path fill-rule="evenodd" clip-rule="evenodd" d="M24.3562 29.5991C24.4371 29.5991 24.5162 29.6233 24.5835 29.6686C24.6507 29.7139 24.7032 29.7783 24.7341 29.8536C24.7651 29.9289 24.7732 30.0118 24.7574 30.0918C24.7416 30.1717 24.7027 30.2452 24.6455 30.3028C24.5882 30.3605 24.5153 30.3997 24.436 30.4156C24.3566 30.4315 24.2743 30.4234 24.1996 30.3922C24.1248 30.361 24.0609 30.3081 24.016 30.2404C23.971 30.1726 23.947 30.0929 23.947 30.0113C23.9471 29.902 23.9902 29.7972 24.0669 29.7199C24.1436 29.6426 24.2477 29.5992 24.3562 29.5991Z" fill="#848484"/>
<path fill-rule="evenodd" clip-rule="evenodd" d="M25.3712 29.5991C25.4522 29.5991 25.5313 29.6232 25.5986 29.6684C25.6659 29.7137 25.7184 29.7781 25.7494 29.8534C25.7805 29.9287 25.7886 30.0116 25.7728 30.0916C25.7571 30.1715 25.7182 30.245 25.6609 30.3027C25.6037 30.3604 25.5308 30.3997 25.4515 30.4156C25.3721 30.4315 25.2898 30.4234 25.215 30.3922C25.1403 30.361 25.0763 30.3082 25.0314 30.2404C24.9864 30.1726 24.9624 30.0929 24.9624 30.0113C24.9625 29.902 25.0056 29.7972 25.0823 29.7199C25.159 29.6426 25.263 29.5992 25.3715 29.5991H25.3712Z" fill="#848484"/>
<path fill-rule="evenodd" clip-rule="evenodd" d="M26.3867 29.5991C26.4676 29.5991 26.5467 29.6233 26.614 29.6686C26.6813 29.7139 26.7337 29.7783 26.7647 29.8536C26.7956 29.9289 26.8037 30.0118 26.7879 30.0918C26.7722 30.1717 26.7332 30.2452 26.676 30.3028C26.6188 30.3605 26.5459 30.3997 26.4665 30.4156C26.3871 30.4315 26.3049 30.4234 26.2301 30.3922C26.1553 30.361 26.0914 30.3081 26.0465 30.2404C26.0015 30.1726 25.9775 30.0929 25.9775 30.0113C25.9776 29.902 26.0207 29.7972 26.0974 29.7199C26.1741 29.6426 26.2782 29.5992 26.3867 29.5991Z" fill="#848484"/>
<path fill-rule="evenodd" clip-rule="evenodd" d="M27.4021 29.5991C27.483 29.5991 27.5621 29.6233 27.6294 29.6686C27.6966 29.7139 27.7491 29.7783 27.78 29.8536C27.811 29.9289 27.8191 30.0118 27.8033 30.0918C27.7875 30.1717 27.7486 30.2452 27.6914 30.3028C27.6341 30.3605 27.5612 30.3997 27.4819 30.4156C27.4025 30.4315 27.3202 30.4234 27.2455 30.3922C27.1707 30.361 27.1068 30.3081 27.0619 30.2404C27.0169 30.1726 26.9929 30.0929 26.9929 30.0113C26.993 29.902 27.0361 29.7972 27.1128 29.7199C27.1895 29.6426 27.2936 29.5992 27.4021 29.5991Z" fill="#848484"/>
<path fill-rule="evenodd" clip-rule="evenodd" d="M28.4177 29.5991C28.4986 29.5991 28.5777 29.6233 28.645 29.6686C28.7123 29.7139 28.7647 29.7783 28.7957 29.8536C28.8266 29.9289 28.8347 30.0118 28.819 30.0918C28.8032 30.1717 28.7642 30.2452 28.707 30.3028C28.6498 30.3605 28.5769 30.3997 28.4975 30.4156C28.4181 30.4315 28.3359 30.4234 28.2611 30.3922C28.1864 30.361 28.1225 30.3081 28.0775 30.2404C28.0325 30.1726 28.0085 30.0929 28.0085 30.0113C28.0086 29.902 28.0517 29.7972 28.1284 29.7199C28.2052 29.6426 28.3092 29.5992 28.4177 29.5991Z" fill="#848484"/>
<path fill-rule="evenodd" clip-rule="evenodd" d="M29.4331 29.5991C29.514 29.5991 29.5931 29.6233 29.6604 29.6686C29.7276 29.7139 29.7801 29.7783 29.811 29.8536C29.842 29.9289 29.8501 30.0118 29.8343 30.0918C29.8185 30.1717 29.7796 30.2452 29.7224 30.3028C29.6651 30.3605 29.5922 30.3997 29.5129 30.4156C29.4335 30.4315 29.3513 30.4234 29.2765 30.3922C29.2017 30.361 29.1378 30.3081 29.0929 30.2404C29.0479 30.1726 29.0239 30.0929 29.0239 30.0113C29.024 29.902 29.0671 29.7972 29.1438 29.7199C29.2205 29.6426 29.3246 29.5992 29.4331 29.5991Z" fill="#848484"/>
<path fill-rule="evenodd" clip-rule="evenodd" d="M30.4484 29.5991C30.5294 29.5991 30.6085 29.6233 30.6757 29.6686C30.743 29.7139 30.7955 29.7783 30.8264 29.8536C30.8574 29.9289 30.8655 30.0118 30.8497 30.0918C30.8339 30.1717 30.795 30.2452 30.7377 30.3028C30.6805 30.3605 30.6076 30.3997 30.5283 30.4156C30.4489 30.4315 30.3666 30.4234 30.2919 30.3922C30.2171 30.361 30.1532 30.3081 30.1083 30.2404C30.0633 30.1726 30.0393 30.0929 30.0393 30.0113C30.0394 29.902 30.0825 29.7972 30.1592 29.7199C30.2359 29.6426 30.3399 29.5992 30.4484 29.5991Z" fill="#848484"/>
<path fill-rule="evenodd" clip-rule="evenodd" d="M31.4639 29.5991C31.5448 29.599 31.624 29.6231 31.6913 29.6684C31.7586 29.7136 31.8112 29.778 31.8422 29.8533C31.8732 29.9286 31.8814 30.0115 31.8656 30.0915C31.8499 30.1715 31.811 30.245 31.7538 30.3027C31.6966 30.3604 31.6237 30.3997 31.5443 30.4156C31.4649 30.4315 31.3826 30.4234 31.3078 30.3922C31.2331 30.361 31.1691 30.3082 31.1242 30.2404C31.0792 30.1726 31.0552 30.0929 31.0552 30.0113C31.0552 29.902 31.0984 29.7972 31.1751 29.7199C31.2518 29.6426 31.3559 29.5991 31.4644 29.5991H31.4639Z" fill="#848484"/>
<path fill-rule="evenodd" clip-rule="evenodd" d="M29.4041 31.691C29.605 31.691 29.8013 31.751 29.9683 31.8634C30.1354 31.9758 30.2655 32.1356 30.3424 32.3226C30.4193 32.5096 30.4394 32.7153 30.4002 32.9138C30.3611 33.1123 30.2644 33.2946 30.1223 33.4377C29.9803 33.5808 29.7994 33.6783 29.6024 33.7178C29.4054 33.7572 29.2012 33.737 29.0156 33.6595C28.83 33.5821 28.6714 33.451 28.5598 33.2827C28.4482 33.1144 28.3887 32.9166 28.3887 32.7142C28.3888 32.4429 28.4958 32.1827 28.6862 31.9909C28.8766 31.799 29.1348 31.6912 29.4041 31.691Z" fill="#42A751"/>
<path d="M28.9856 33.3512L30.0001 32.7553V32.6729L28.9856 32.0771V32.4599L29.4448 32.7166L28.9856 32.9563V33.3512Z" fill="white"/>
<path fill-rule="evenodd" clip-rule="evenodd" d="M40.6147 9.29688V19.3678H26.7219V9.29688H40.6147Z" fill="#EBEBEB"/>
<mask id="mask4_689_3193" style="mask-type:luminance" maskUnits="userSpaceOnUse" x="26" y="9" width="15" height="11">
<path d="M40.6147 9.297V19.3679H26.7219V9.297H40.6147Z" fill="white"/>
</mask>
<g mask="url(#mask4_689_3193)">
<path fill-rule="evenodd" clip-rule="evenodd" d="M40.6147 8.62891V19.3678H40.3005V8.62891H40.6147Z" fill="#DFDFDF"/>
<path fill-rule="evenodd" clip-rule="evenodd" d="M36.2726 9.43701V9.83908H26.8743V9.43701H36.2726Z" fill="white"/>
<path fill-rule="evenodd" clip-rule="evenodd" d="M27.1886 9.43701V13.3258H26.8743V9.43701H27.1886Z" fill="white"/>
<path fill-rule="evenodd" clip-rule="evenodd" d="M41.4672 19.2158V19.3678H26.7219V19.2158H41.4672Z" fill="#DFDFDF"/>
</g>
<path fill-rule="evenodd" clip-rule="evenodd" d="M30.5956 12.3263V13.7871C30.5956 13.8271 30.5799 13.8655 30.5518 13.8938C30.5238 13.922 30.4857 13.9379 30.4461 13.938H28.1658C28.1462 13.938 28.1267 13.9341 28.1085 13.9265C28.0904 13.9189 28.0739 13.9078 28.06 13.8938C28.0461 13.8798 28.035 13.8632 28.0275 13.8449C28.02 13.8266 28.0161 13.8069 28.0161 13.7871V10.3671C28.0162 10.3271 28.032 10.2888 28.06 10.2605C28.0881 10.2323 28.1261 10.2164 28.1658 10.2164H30.4461C30.4657 10.2164 30.4852 10.2203 30.5033 10.2279C30.5215 10.2355 30.538 10.2466 30.5519 10.2606C30.5658 10.2746 30.5768 10.2912 30.5843 10.3095C30.5918 10.3278 30.5957 10.3475 30.5956 10.3673V10.9307L30.7892 11.0318V12.2254L30.5956 12.3265V12.3263Z" fill="white"/>
<path fill-rule="evenodd" clip-rule="evenodd" d="M30.3895 10.5684V10.7786H28.2417V10.5684H30.3895Z" fill="#71D77C"/>
<path fill-rule="evenodd" clip-rule="evenodd" d="M30.4829 10.9613V11.5812H28.1289V10.9613H30.4829Z" fill="#96B0CC"/>
<path fill-rule="evenodd" clip-rule="evenodd" d="M30.4829 11.7642V11.8657H28.1289V11.7642H30.4829Z" fill="#B9D7F7"/>
<path fill-rule="evenodd" clip-rule="evenodd" d="M30.4829 11.9791V12.0808H28.1289V11.9791H30.4829Z" fill="#B9D7F7"/>
<path fill-rule="evenodd" clip-rule="evenodd" d="M30.4829 12.1942V12.2959H28.1289V12.1942H30.4829Z" fill="#B9D7F7"/>
<path fill-rule="evenodd" clip-rule="evenodd" d="M30.4829 12.4092V12.5108H28.1289V12.4092H30.4829Z" fill="#B9D7F7"/>
<path fill-rule="evenodd" clip-rule="evenodd" d="M30.4829 12.6241V12.7258H28.1289V12.6241H30.4829Z" fill="#B9D7F7"/>
<path fill-rule="evenodd" clip-rule="evenodd" d="M30.4829 12.8392V12.9409H28.1289V12.8392H30.4829Z" fill="#B9D7F7"/>
<path fill-rule="evenodd" clip-rule="evenodd" d="M30.4829 13.0542V13.1559H28.1289V13.0542H30.4829Z" fill="#B9D7F7"/>
<path fill-rule="evenodd" clip-rule="evenodd" d="M30.4829 13.2693V13.3709H28.1289V13.2693H30.4829Z" fill="#B9D7F7"/>
<path fill-rule="evenodd" clip-rule="evenodd" d="M30.4829 13.4844V13.586H28.1289V13.4844H30.4829Z" fill="#B9D7F7"/>
<path fill-rule="evenodd" clip-rule="evenodd" d="M30.5956 16.8369V18.2977C30.5957 18.3175 30.5918 18.3372 30.5843 18.3555C30.5768 18.3737 30.5658 18.3904 30.5519 18.4044C30.538 18.4184 30.5215 18.4295 30.5033 18.4371C30.4852 18.4447 30.4657 18.4486 30.4461 18.4486H28.1658C28.1261 18.4486 28.088 18.4327 28.06 18.4044C28.0319 18.3761 28.0161 18.3377 28.0161 18.2977V14.8777C28.0161 14.8579 28.02 14.8382 28.0275 14.8199C28.035 14.8017 28.0461 14.785 28.06 14.771C28.0739 14.757 28.0904 14.7459 28.1085 14.7384C28.1267 14.7308 28.1462 14.7269 28.1658 14.7269H30.4461C30.4857 14.7269 30.5238 14.7428 30.5518 14.7711C30.5799 14.7993 30.5956 14.8377 30.5956 14.8777V15.4412L30.7892 15.5422V16.7359L30.5956 16.8369Z" fill="white"/>
<path fill-rule="evenodd" clip-rule="evenodd" d="M30.3895 15.0789V15.2892H28.2417V15.0789H30.3895Z" fill="#71D77C"/>
<path fill-rule="evenodd" clip-rule="evenodd" d="M30.4829 15.472V16.0919H28.1289V15.472H30.4829Z" fill="#96B0CC"/>
<path fill-rule="evenodd" clip-rule="evenodd" d="M30.4829 16.2747V16.3763H28.1289V16.2747H30.4829Z" fill="#B9D7F7"/>
<path fill-rule="evenodd" clip-rule="evenodd" d="M30.4829 16.4896V16.5913H28.1289V16.4896H30.4829Z" fill="#B9D7F7"/>
<path fill-rule="evenodd" clip-rule="evenodd" d="M30.4829 16.7047V16.8064H28.1289V16.7047H30.4829Z" fill="#B9D7F7"/>
<path fill-rule="evenodd" clip-rule="evenodd" d="M30.4829 16.9198V17.0214H28.1289V16.9198H30.4829Z" fill="#B9D7F7"/>
<path fill-rule="evenodd" clip-rule="evenodd" d="M30.4829 17.1348V17.2364H28.1289V17.1348H30.4829Z" fill="#B9D7F7"/>
<path fill-rule="evenodd" clip-rule="evenodd" d="M30.4829 17.3499V17.4515H28.1289V17.3499H30.4829Z" fill="#B9D7F7"/>
<path fill-rule="evenodd" clip-rule="evenodd" d="M30.4829 17.5649V17.6666H28.1289V17.5649H30.4829Z" fill="#B9D7F7"/>
<path fill-rule="evenodd" clip-rule="evenodd" d="M30.4829 17.78V17.8816H28.1289V17.78H30.4829Z" fill="#B9D7F7"/>
<path fill-rule="evenodd" clip-rule="evenodd" d="M30.4829 17.995V18.0967H28.1289V17.995H30.4829Z" fill="#B9D7F7"/>
<path fill-rule="evenodd" clip-rule="evenodd" d="M34.8613 12.3264V13.7872C34.8613 13.8272 34.8455 13.8656 34.8174 13.8939C34.7894 13.9222 34.7513 13.9381 34.7116 13.9381H32.4313C32.3917 13.938 32.3536 13.9221 32.3255 13.8938C32.2975 13.8656 32.2817 13.8272 32.2817 13.7872V10.3671C32.2817 10.3473 32.2856 10.3277 32.2931 10.3094C32.3006 10.2911 32.3116 10.2745 32.3255 10.2605C32.3394 10.2465 32.3559 10.2354 32.3741 10.2278C32.3922 10.2202 32.4117 10.2163 32.4313 10.2163H34.7116C34.7513 10.2163 34.7894 10.2322 34.8174 10.2605C34.8455 10.2888 34.8613 10.3271 34.8613 10.3671V10.9308L35.0548 11.0318V12.2255L34.8613 12.3266V12.3264Z" fill="white"/>
<path fill-rule="evenodd" clip-rule="evenodd" d="M34.655 10.5684V10.7786H32.5071V10.5684H34.655Z" fill="#71D77C"/>
<path fill-rule="evenodd" clip-rule="evenodd" d="M34.7485 10.9613V11.5812H32.3945V10.9613H34.7485Z" fill="#96B0CC"/>
<path fill-rule="evenodd" clip-rule="evenodd" d="M34.7485 11.7642V11.8657H32.3945V11.7642H34.7485Z" fill="#B9D7F7"/>
<path fill-rule="evenodd" clip-rule="evenodd" d="M34.7485 11.9791V12.0808H32.3945V11.9791H34.7485Z" fill="#B9D7F7"/>
<path fill-rule="evenodd" clip-rule="evenodd" d="M34.7485 12.1942V12.2959H32.3945V12.1942H34.7485Z" fill="#B9D7F7"/>
<path fill-rule="evenodd" clip-rule="evenodd" d="M34.7485 12.4092V12.5108H32.3945V12.4092H34.7485Z" fill="#B9D7F7"/>
<path fill-rule="evenodd" clip-rule="evenodd" d="M34.7485 12.6241V12.7258H32.3945V12.6241H34.7485Z" fill="#B9D7F7"/>
<path fill-rule="evenodd" clip-rule="evenodd" d="M34.7485 12.8392V12.9409H32.3945V12.8392H34.7485Z" fill="#B9D7F7"/>
<path fill-rule="evenodd" clip-rule="evenodd" d="M34.7485 13.0542V13.1559H32.3945V13.0542H34.7485Z" fill="#B9D7F7"/>
<path fill-rule="evenodd" clip-rule="evenodd" d="M34.7485 13.2693V13.3709H32.3945V13.2693H34.7485Z" fill="#B9D7F7"/>
<path fill-rule="evenodd" clip-rule="evenodd" d="M34.7485 13.4844V13.586H32.3945V13.4844H34.7485Z" fill="#B9D7F7"/>
<path fill-rule="evenodd" clip-rule="evenodd" d="M34.8613 16.8369V18.2977C34.8613 18.3377 34.8455 18.3761 34.8174 18.4044C34.7894 18.4327 34.7513 18.4486 34.7116 18.4486H32.4313C32.4117 18.4486 32.3922 18.4447 32.3741 18.4371C32.3559 18.4295 32.3394 18.4184 32.3255 18.4044C32.3116 18.3904 32.3006 18.3737 32.2931 18.3555C32.2856 18.3372 32.2817 18.3175 32.2817 18.2977V14.8777C32.2817 14.8377 32.2975 14.7993 32.3256 14.7711C32.3536 14.7428 32.3917 14.7269 32.4313 14.7269H34.7116C34.7312 14.7269 34.7507 14.7308 34.7689 14.7384C34.787 14.7459 34.8035 14.757 34.8174 14.771C34.8313 14.785 34.8424 14.8017 34.8499 14.8199C34.8574 14.8382 34.8613 14.8579 34.8613 14.8777V15.4412L35.0548 15.5422V16.7359L34.8613 16.8369Z" fill="white"/>
<path fill-rule="evenodd" clip-rule="evenodd" d="M34.655 15.0789V15.2892H32.5071V15.0789H34.655Z" fill="#71D77C"/>
<path fill-rule="evenodd" clip-rule="evenodd" d="M34.7485 15.472V16.0919H32.3945V15.472H34.7485Z" fill="#96B0CC"/>
<path fill-rule="evenodd" clip-rule="evenodd" d="M34.7485 16.2747V16.3763H32.3945V16.2747H34.7485Z" fill="#B9D7F7"/>
<path fill-rule="evenodd" clip-rule="evenodd" d="M34.7485 16.4896V16.5913H32.3945V16.4896H34.7485Z" fill="#B9D7F7"/>
<path fill-rule="evenodd" clip-rule="evenodd" d="M34.7485 16.7047V16.8064H32.3945V16.7047H34.7485Z" fill="#B9D7F7"/>
<path fill-rule="evenodd" clip-rule="evenodd" d="M34.7485 16.9198V17.0214H32.3945V16.9198H34.7485Z" fill="#B9D7F7"/>
<path fill-rule="evenodd" clip-rule="evenodd" d="M34.7485 17.1348V17.2364H32.3945V17.1348H34.7485Z" fill="#B9D7F7"/>
<path fill-rule="evenodd" clip-rule="evenodd" d="M34.7485 17.3499V17.4515H32.3945V17.3499H34.7485Z" fill="#B9D7F7"/>
<path fill-rule="evenodd" clip-rule="evenodd" d="M34.7485 17.5649V17.6666H32.3945V17.5649H34.7485Z" fill="#B9D7F7"/>
<path fill-rule="evenodd" clip-rule="evenodd" d="M34.7485 17.78V17.8816H32.3945V17.78H34.7485Z" fill="#B9D7F7"/>
<path fill-rule="evenodd" clip-rule="evenodd" d="M34.7485 17.995V18.0967H32.3945V17.995H34.7485Z" fill="#B9D7F7"/>
<path fill-rule="evenodd" clip-rule="evenodd" d="M39.1269 12.3264V13.7872C39.1269 13.8071 39.123 13.8267 39.1155 13.845C39.1079 13.8633 39.0969 13.88 39.0829 13.894C39.069 13.908 39.0525 13.9191 39.0343 13.9267C39.0161 13.9342 38.9966 13.9381 38.9769 13.9381H36.6971C36.6774 13.9381 36.6579 13.9341 36.6398 13.9266C36.6216 13.919 36.6051 13.9079 36.5912 13.8939C36.5773 13.8799 36.5663 13.8632 36.5588 13.8449C36.5512 13.8266 36.5474 13.807 36.5474 13.7872V10.3671C36.5474 10.3271 36.5631 10.2888 36.5912 10.2605C36.6193 10.2322 36.6574 10.2163 36.6971 10.2163H38.9769C38.9965 10.2163 39.016 10.2202 39.0342 10.2278C39.0523 10.2354 39.0688 10.2465 39.0827 10.2605C39.0966 10.2745 39.1076 10.2911 39.1151 10.3094C39.1226 10.3277 39.1265 10.3473 39.1265 10.3671V10.9308L39.3201 11.0318V12.2255L39.1265 12.3266L39.1269 12.3264Z" fill="white"/>
<path fill-rule="evenodd" clip-rule="evenodd" d="M38.9207 10.5684V10.7786H36.7729V10.5684H38.9207Z" fill="#71D77C"/>
<path fill-rule="evenodd" clip-rule="evenodd" d="M39.0142 10.9613V11.5812H36.6602V10.9613H39.0142Z" fill="#96B0CC"/>
<path fill-rule="evenodd" clip-rule="evenodd" d="M39.0142 11.7642V11.8657H36.6602V11.7642H39.0142Z" fill="#B9D7F7"/>
<path fill-rule="evenodd" clip-rule="evenodd" d="M39.0142 11.9791V12.0808H36.6602V11.9791H39.0142Z" fill="#B9D7F7"/>
<path fill-rule="evenodd" clip-rule="evenodd" d="M39.0142 12.1942V12.2959H36.6602V12.1942H39.0142Z" fill="#B9D7F7"/>
<path fill-rule="evenodd" clip-rule="evenodd" d="M39.0142 12.4092V12.5108H36.6602V12.4092H39.0142Z" fill="#B9D7F7"/>
<path fill-rule="evenodd" clip-rule="evenodd" d="M39.0142 12.6241V12.7258H36.6602V12.6241H39.0142Z" fill="#B9D7F7"/>
<path fill-rule="evenodd" clip-rule="evenodd" d="M39.0142 12.8392V12.9409H36.6602V12.8392H39.0142Z" fill="#B9D7F7"/>
<path fill-rule="evenodd" clip-rule="evenodd" d="M39.0142 13.0542V13.1559H36.6602V13.0542H39.0142Z" fill="#B9D7F7"/>
<path fill-rule="evenodd" clip-rule="evenodd" d="M39.0142 13.2693V13.3709H36.6602V13.2693H39.0142Z" fill="#B9D7F7"/>
<path fill-rule="evenodd" clip-rule="evenodd" d="M39.0142 13.4844V13.586H36.6602V13.4844H39.0142Z" fill="#B9D7F7"/>
<path fill-rule="evenodd" clip-rule="evenodd" d="M39.1269 16.8369V18.2977C39.1269 18.3176 39.123 18.3372 39.1155 18.3555C39.108 18.3739 39.0969 18.3905 39.083 18.4045C39.069 18.4185 39.0525 18.4296 39.0343 18.4372C39.0161 18.4448 38.9966 18.4486 38.9769 18.4486H36.6971C36.6574 18.4486 36.6193 18.4327 36.5912 18.4044C36.5631 18.3761 36.5474 18.3377 36.5474 18.2977V14.8777C36.5474 14.8579 36.5512 14.8382 36.5588 14.8199C36.5663 14.8017 36.5773 14.785 36.5912 14.771C36.6051 14.757 36.6216 14.7459 36.6398 14.7384C36.6579 14.7308 36.6774 14.7269 36.6971 14.7269H38.9769C39.0166 14.7269 39.0546 14.7428 39.0827 14.7711C39.1107 14.7993 39.1265 14.8377 39.1265 14.8777V15.4412L39.3201 15.5422V16.7359L39.1265 16.8369H39.1269Z" fill="white"/>
<path fill-rule="evenodd" clip-rule="evenodd" d="M38.9207 15.0789V15.2892H36.7729V15.0789H38.9207Z" fill="#71D77C"/>
<path fill-rule="evenodd" clip-rule="evenodd" d="M39.0142 15.472V16.0919H36.6602V15.472H39.0142Z" fill="#96B0CC"/>
<path fill-rule="evenodd" clip-rule="evenodd" d="M39.0142 16.2747V16.3763H36.6602V16.2747H39.0142Z" fill="#B9D7F7"/>
<path fill-rule="evenodd" clip-rule="evenodd" d="M39.0142 16.4896V16.5913H36.6602V16.4896H39.0142Z" fill="#B9D7F7"/>
<path fill-rule="evenodd" clip-rule="evenodd" d="M39.0142 16.7047V16.8064H36.6602V16.7047H39.0142Z" fill="#B9D7F7"/>
<path fill-rule="evenodd" clip-rule="evenodd" d="M39.0142 16.9198V17.0214H36.6602V16.9198H39.0142Z" fill="#B9D7F7"/>
<path fill-rule="evenodd" clip-rule="evenodd" d="M39.0142 17.1348V17.2364H36.6602V17.1348H39.0142Z" fill="#B9D7F7"/>
<path fill-rule="evenodd" clip-rule="evenodd" d="M39.0142 17.3499V17.4515H36.6602V17.3499H39.0142Z" fill="#B9D7F7"/>
<path fill-rule="evenodd" clip-rule="evenodd" d="M39.0142 17.5649V17.6666H36.6602V17.5649H39.0142Z" fill="#B9D7F7"/>
<path fill-rule="evenodd" clip-rule="evenodd" d="M39.0142 17.78V17.8816H36.6602V17.78H39.0142Z" fill="#B9D7F7"/>
<path fill-rule="evenodd" clip-rule="evenodd" d="M39.0142 17.995V18.0967H36.6602V17.995H39.0142Z" fill="#B9D7F7"/>
<path fill-rule="evenodd" clip-rule="evenodd" d="M40.6147 7.65564V9.29684H26.7219V7.65564H40.6147Z" fill="#5870B5"/>
<mask id="mask5_689_3193" style="mask-type:luminance" maskUnits="userSpaceOnUse" x="26" y="7" width="15" height="3">
<path d="M40.6147 7.65564V9.29695H26.7219V7.65564H40.6147Z" fill="white"/>
</mask>
<g mask="url(#mask5_689_3193)">
<path fill-rule="evenodd" clip-rule="evenodd" d="M40.6146 7.63599V9.29686H40.2939V7.63599H40.6146Z" fill="#485C97"/>
<path fill-rule="evenodd" clip-rule="evenodd" d="M26.7219 9.31651V7.65564H27.0426V9.31651H26.7219Z" fill="#7489C7"/>
<path fill-rule="evenodd" clip-rule="evenodd" d="M40.6148 9.16211V9.29689H33.6685V9.16211H40.6148Z" fill="#485C97"/>
<path fill-rule="evenodd" clip-rule="evenodd" d="M26.7219 7.79042V7.65564H33.6684V7.79042H26.7219Z" fill="#7489C7"/>
</g>
<path fill-rule="evenodd" clip-rule="evenodd" d="M27.3957 8.19015C27.4768 8.19018 27.5545 8.22261 27.6118 8.28034C27.6692 8.33806 27.7014 8.41635 27.7015 8.49802C27.7015 8.57971 27.6692 8.65806 27.6119 8.71583C27.5546 8.7736 27.4768 8.80606 27.3957 8.80609C27.3146 8.80606 27.2369 8.7736 27.1795 8.71583C27.1221 8.65807 27.0899 8.57972 27.0898 8.49802C27.0899 8.41631 27.1221 8.33797 27.1795 8.2802C27.2369 8.22243 27.3146 8.18997 27.3957 8.18994V8.19015Z" fill="white"/>
<path fill-rule="evenodd" clip-rule="evenodd" d="M28.4034 8.19015C28.4845 8.19018 28.5622 8.22261 28.6195 8.28034C28.6769 8.33806 28.7091 8.41635 28.7092 8.49802C28.7092 8.57971 28.6769 8.65806 28.6196 8.71583C28.5623 8.7736 28.4845 8.80606 28.4034 8.80609C28.3223 8.80606 28.2446 8.7736 28.1872 8.71583C28.1299 8.65806 28.0977 8.57971 28.0977 8.49802C28.0977 8.41632 28.1299 8.33797 28.1872 8.28021C28.2446 8.22244 28.3223 8.18997 28.4034 8.18994V8.19015Z" fill="white"/>
<path fill-rule="evenodd" clip-rule="evenodd" d="M29.4112 8.19019C29.4922 8.19024 29.5699 8.22269 29.6272 8.28041C29.6846 8.33813 29.7168 8.41641 29.7169 8.49805C29.7169 8.57977 29.6847 8.65815 29.6274 8.71596C29.5701 8.77377 29.4923 8.80628 29.4112 8.80634C29.3301 8.80634 29.2522 8.77386 29.1948 8.71604C29.1375 8.65823 29.1052 8.57981 29.1052 8.49805C29.1053 8.41636 29.1376 8.33806 29.195 8.28033C29.2524 8.22261 29.3301 8.19019 29.4112 8.19019Z" fill="white"/>
<path fill-rule="evenodd" clip-rule="evenodd" d="M36.6142 8.34424C36.6548 8.34424 36.6937 8.36048 36.7224 8.38937C36.7366 8.40367 36.7478 8.42065 36.7555 8.43934C36.7631 8.45803 36.7671 8.47805 36.7671 8.49828C36.7671 8.5185 36.7631 8.53852 36.7555 8.55721C36.7478 8.5759 36.7366 8.59288 36.7224 8.60718C36.6937 8.63607 36.6548 8.65231 36.6142 8.65231H30.7222C30.7021 8.65231 30.6823 8.64833 30.6637 8.64058C30.6452 8.63284 30.6283 8.62149 30.6141 8.60718C30.5999 8.59288 30.5887 8.5759 30.581 8.55722C30.5733 8.53853 30.5693 8.5185 30.5693 8.49828C30.5693 8.47805 30.5733 8.45802 30.581 8.43933C30.5887 8.42065 30.5999 8.40367 30.6141 8.38937C30.6283 8.37506 30.6452 8.36371 30.6637 8.35597C30.6823 8.34822 30.7021 8.34424 30.7222 8.34424H36.6142Z" fill="white"/>
</svg>
